<?xml version="1.0" encoding="utf-8" standalone="no"?>
<!DOCTYPE svg PUBLIC "-//W3C//DTD SVG 1.1//EN"
  "http://www.w3.org/Graphics/SVG/1.1/DTD/svg11.dtd">
<svg xmlns:xlink="http://www.w3.org/1999/xlink" width="436.76775pt" height="401.31345pt" viewBox="0 0 436.76775 401.31345" xmlns="http://www.w3.org/2000/svg" version="1.1">
 <metadata>
  <rdf:RDF xmlns:dc="http://purl.org/dc/elements/1.1/" xmlns:cc="http://creativecommons.org/ns#" xmlns:rdf="http://www.w3.org/1999/02/22-rdf-syntax-ns#">
   <cc:Work>
    <dc:type rdf:resource="http://purl.org/dc/dcmitype/StillImage"/>
    <dc:date>2023-05-12T10:09:49.883205</dc:date>
    <dc:format>image/svg+xml</dc:format>
    <dc:creator>
     <cc:Agent>
      <dc:title>Matplotlib v3.7.1, https://matplotlib.org/</dc:title>
     </cc:Agent>
    </dc:creator>
   </cc:Work>
  </rdf:RDF>
 </metadata>
 <defs>
  <style type="text/css">*{stroke-linejoin: round; stroke-linecap: butt}</style>
 </defs>
 <g id="figure_1">
  <g id="patch_1">
   <path d="M 0 401.31345 
L 436.76775 401.31345 
L 436.76775 0 
L 0 0 
z
" style="fill: #ffffff"/>
  </g>
  <g id="axes_1">
   <g id="patch_2">
    <path d="M 112.142042 313.63875 
L 324.625708 313.63875 
L 324.625708 23.68275 
L 112.142042 23.68275 
z
" style="fill: #ffffff"/>
   </g>
   <g id="matplotlib.axis_1">
    <g id="xtick_1">
     <g id="line2d_1">
      <defs>
       <path id="md72aa133c7" d="M 0 0 
L 0 4.8 
" style="stroke: #262626"/>
      </defs>
      <g>
       <use xlink:href="#md72aa133c7" x="147.555986" y="313.63875" style="fill: #262626; stroke: #262626"/>
      </g>
     </g>
     <g id="text_1">
      <!-- Target2 - -->
      <g style="fill: #262626" transform="translate(121.515892 331.42625) scale(0.132 -0.132)">
       <defs>
        <path id="ArialMT-54" d="M 1659 0 
L 1659 4041 
L 150 4041 
L 150 4581 
L 3781 4581 
L 3781 4041 
L 2266 4041 
L 2266 0 
L 1659 0 
z
" transform="scale(0.015625)"/>
        <path id="ArialMT-61" d="M 2588 409 
Q 2275 144 1986 34 
Q 1697 -75 1366 -75 
Q 819 -75 525 192 
Q 231 459 231 875 
Q 231 1119 342 1320 
Q 453 1522 633 1644 
Q 813 1766 1038 1828 
Q 1203 1872 1538 1913 
Q 2219 1994 2541 2106 
Q 2544 2222 2544 2253 
Q 2544 2597 2384 2738 
Q 2169 2928 1744 2928 
Q 1347 2928 1158 2789 
Q 969 2650 878 2297 
L 328 2372 
Q 403 2725 575 2942 
Q 747 3159 1072 3276 
Q 1397 3394 1825 3394 
Q 2250 3394 2515 3294 
Q 2781 3194 2906 3042 
Q 3031 2891 3081 2659 
Q 3109 2516 3109 2141 
L 3109 1391 
Q 3109 606 3145 398 
Q 3181 191 3288 0 
L 2700 0 
Q 2613 175 2588 409 
z
M 2541 1666 
Q 2234 1541 1622 1453 
Q 1275 1403 1131 1340 
Q 988 1278 909 1158 
Q 831 1038 831 891 
Q 831 666 1001 516 
Q 1172 366 1500 366 
Q 1825 366 2078 508 
Q 2331 650 2450 897 
Q 2541 1088 2541 1459 
L 2541 1666 
z
" transform="scale(0.015625)"/>
        <path id="ArialMT-72" d="M 416 0 
L 416 3319 
L 922 3319 
L 922 2816 
Q 1116 3169 1280 3281 
Q 1444 3394 1641 3394 
Q 1925 3394 2219 3213 
L 2025 2691 
Q 1819 2813 1613 2813 
Q 1428 2813 1281 2702 
Q 1134 2591 1072 2394 
Q 978 2094 978 1738 
L 978 0 
L 416 0 
z
" transform="scale(0.015625)"/>
        <path id="ArialMT-67" d="M 319 -275 
L 866 -356 
Q 900 -609 1056 -725 
Q 1266 -881 1628 -881 
Q 2019 -881 2231 -725 
Q 2444 -569 2519 -288 
Q 2563 -116 2559 434 
Q 2191 0 1641 0 
Q 956 0 581 494 
Q 206 988 206 1678 
Q 206 2153 378 2554 
Q 550 2956 876 3175 
Q 1203 3394 1644 3394 
Q 2231 3394 2613 2919 
L 2613 3319 
L 3131 3319 
L 3131 450 
Q 3131 -325 2973 -648 
Q 2816 -972 2473 -1159 
Q 2131 -1347 1631 -1347 
Q 1038 -1347 672 -1080 
Q 306 -813 319 -275 
z
M 784 1719 
Q 784 1066 1043 766 
Q 1303 466 1694 466 
Q 2081 466 2343 764 
Q 2606 1063 2606 1700 
Q 2606 2309 2336 2618 
Q 2066 2928 1684 2928 
Q 1309 2928 1046 2623 
Q 784 2319 784 1719 
z
" transform="scale(0.015625)"/>
        <path id="ArialMT-65" d="M 2694 1069 
L 3275 997 
Q 3138 488 2766 206 
Q 2394 -75 1816 -75 
Q 1088 -75 661 373 
Q 234 822 234 1631 
Q 234 2469 665 2931 
Q 1097 3394 1784 3394 
Q 2450 3394 2872 2941 
Q 3294 2488 3294 1666 
Q 3294 1616 3291 1516 
L 816 1516 
Q 847 969 1125 678 
Q 1403 388 1819 388 
Q 2128 388 2347 550 
Q 2566 713 2694 1069 
z
M 847 1978 
L 2700 1978 
Q 2663 2397 2488 2606 
Q 2219 2931 1791 2931 
Q 1403 2931 1139 2672 
Q 875 2413 847 1978 
z
" transform="scale(0.015625)"/>
        <path id="ArialMT-74" d="M 1650 503 
L 1731 6 
Q 1494 -44 1306 -44 
Q 1000 -44 831 53 
Q 663 150 594 308 
Q 525 466 525 972 
L 525 2881 
L 113 2881 
L 113 3319 
L 525 3319 
L 525 4141 
L 1084 4478 
L 1084 3319 
L 1650 3319 
L 1650 2881 
L 1084 2881 
L 1084 941 
Q 1084 700 1114 631 
Q 1144 563 1211 522 
Q 1278 481 1403 481 
Q 1497 481 1650 503 
z
" transform="scale(0.015625)"/>
        <path id="ArialMT-32" d="M 3222 541 
L 3222 0 
L 194 0 
Q 188 203 259 391 
Q 375 700 629 1000 
Q 884 1300 1366 1694 
Q 2113 2306 2375 2664 
Q 2638 3022 2638 3341 
Q 2638 3675 2398 3904 
Q 2159 4134 1775 4134 
Q 1369 4134 1125 3890 
Q 881 3647 878 3216 
L 300 3275 
Q 359 3922 746 4261 
Q 1134 4600 1788 4600 
Q 2447 4600 2831 4234 
Q 3216 3869 3216 3328 
Q 3216 3053 3103 2787 
Q 2991 2522 2730 2228 
Q 2469 1934 1863 1422 
Q 1356 997 1212 845 
Q 1069 694 975 541 
L 3222 541 
z
" transform="scale(0.015625)"/>
        <path id="ArialMT-20" transform="scale(0.015625)"/>
        <path id="ArialMT-2d" d="M 203 1375 
L 203 1941 
L 1931 1941 
L 1931 1375 
L 203 1375 
z
" transform="scale(0.015625)"/>
       </defs>
       <use xlink:href="#ArialMT-54"/>
       <use xlink:href="#ArialMT-61" x="49.958984"/>
       <use xlink:href="#ArialMT-72" x="105.574219"/>
       <use xlink:href="#ArialMT-67" x="138.875"/>
       <use xlink:href="#ArialMT-65" x="194.490234"/>
       <use xlink:href="#ArialMT-74" x="250.105469"/>
       <use xlink:href="#ArialMT-32" x="277.888672"/>
       <use xlink:href="#ArialMT-20" x="333.503906"/>
       <use xlink:href="#ArialMT-2d" x="361.287109"/>
      </g>
      <!-- Target2 -->
      <g style="fill: #262626" transform="translate(125.547049 345.589437) scale(0.132 -0.132)">
       <use xlink:href="#ArialMT-54"/>
       <use xlink:href="#ArialMT-61" x="49.958984"/>
       <use xlink:href="#ArialMT-72" x="105.574219"/>
       <use xlink:href="#ArialMT-67" x="138.875"/>
       <use xlink:href="#ArialMT-65" x="194.490234"/>
       <use xlink:href="#ArialMT-74" x="250.105469"/>
       <use xlink:href="#ArialMT-32" x="277.888672"/>
      </g>
     </g>
    </g>
    <g id="xtick_2">
     <g id="line2d_2">
      <g>
       <use xlink:href="#md72aa133c7" x="218.383875" y="313.63875" style="fill: #262626; stroke: #262626"/>
      </g>
     </g>
     <g id="text_2">
      <!-- Target2 - -->
      <g style="fill: #262626" transform="translate(192.343781 331.42625) scale(0.132 -0.132)">
       <use xlink:href="#ArialMT-54"/>
       <use xlink:href="#ArialMT-61" x="49.958984"/>
       <use xlink:href="#ArialMT-72" x="105.574219"/>
       <use xlink:href="#ArialMT-67" x="138.875"/>
       <use xlink:href="#ArialMT-65" x="194.490234"/>
       <use xlink:href="#ArialMT-74" x="250.105469"/>
       <use xlink:href="#ArialMT-32" x="277.888672"/>
       <use xlink:href="#ArialMT-20" x="333.503906"/>
       <use xlink:href="#ArialMT-2d" x="361.287109"/>
      </g>
      <!-- Target2 + -->
      <g style="fill: #262626" transform="translate(190.686563 345.589437) scale(0.132 -0.132)">
       <defs>
        <path id="ArialMT-2b" d="M 1603 741 
L 1603 1997 
L 356 1997 
L 356 2522 
L 1603 2522 
L 1603 3769 
L 2134 3769 
L 2134 2522 
L 3381 2522 
L 3381 1997 
L 2134 1997 
L 2134 741 
L 1603 741 
z
" transform="scale(0.015625)"/>
       </defs>
       <use xlink:href="#ArialMT-54"/>
       <use xlink:href="#ArialMT-61" x="49.958984"/>
       <use xlink:href="#ArialMT-72" x="105.574219"/>
       <use xlink:href="#ArialMT-67" x="138.875"/>
       <use xlink:href="#ArialMT-65" x="194.490234"/>
       <use xlink:href="#ArialMT-74" x="250.105469"/>
       <use xlink:href="#ArialMT-32" x="277.888672"/>
       <use xlink:href="#ArialMT-20" x="333.503906"/>
       <use xlink:href="#ArialMT-2b" x="361.287109"/>
      </g>
      <!-- Polybrene -->
      <g style="fill: #262626" transform="translate(188.666344 359.7056) scale(0.132 -0.132)">
       <defs>
        <path id="ArialMT-50" d="M 494 0 
L 494 4581 
L 2222 4581 
Q 2678 4581 2919 4538 
Q 3256 4481 3484 4323 
Q 3713 4166 3852 3881 
Q 3991 3597 3991 3256 
Q 3991 2672 3619 2267 
Q 3247 1863 2275 1863 
L 1100 1863 
L 1100 0 
L 494 0 
z
M 1100 2403 
L 2284 2403 
Q 2872 2403 3119 2622 
Q 3366 2841 3366 3238 
Q 3366 3525 3220 3729 
Q 3075 3934 2838 4000 
Q 2684 4041 2272 4041 
L 1100 4041 
L 1100 2403 
z
" transform="scale(0.015625)"/>
        <path id="ArialMT-6f" d="M 213 1659 
Q 213 2581 725 3025 
Q 1153 3394 1769 3394 
Q 2453 3394 2887 2945 
Q 3322 2497 3322 1706 
Q 3322 1066 3130 698 
Q 2938 331 2570 128 
Q 2203 -75 1769 -75 
Q 1072 -75 642 372 
Q 213 819 213 1659 
z
M 791 1659 
Q 791 1022 1069 705 
Q 1347 388 1769 388 
Q 2188 388 2466 706 
Q 2744 1025 2744 1678 
Q 2744 2294 2464 2611 
Q 2184 2928 1769 2928 
Q 1347 2928 1069 2612 
Q 791 2297 791 1659 
z
" transform="scale(0.015625)"/>
        <path id="ArialMT-6c" d="M 409 0 
L 409 4581 
L 972 4581 
L 972 0 
L 409 0 
z
" transform="scale(0.015625)"/>
        <path id="ArialMT-79" d="M 397 -1278 
L 334 -750 
Q 519 -800 656 -800 
Q 844 -800 956 -737 
Q 1069 -675 1141 -563 
Q 1194 -478 1313 -144 
Q 1328 -97 1363 -6 
L 103 3319 
L 709 3319 
L 1400 1397 
Q 1534 1031 1641 628 
Q 1738 1016 1872 1384 
L 2581 3319 
L 3144 3319 
L 1881 -56 
Q 1678 -603 1566 -809 
Q 1416 -1088 1222 -1217 
Q 1028 -1347 759 -1347 
Q 597 -1347 397 -1278 
z
" transform="scale(0.015625)"/>
        <path id="ArialMT-62" d="M 941 0 
L 419 0 
L 419 4581 
L 981 4581 
L 981 2947 
Q 1338 3394 1891 3394 
Q 2197 3394 2470 3270 
Q 2744 3147 2920 2923 
Q 3097 2700 3197 2384 
Q 3297 2069 3297 1709 
Q 3297 856 2875 390 
Q 2453 -75 1863 -75 
Q 1275 -75 941 416 
L 941 0 
z
M 934 1684 
Q 934 1088 1097 822 
Q 1363 388 1816 388 
Q 2184 388 2453 708 
Q 2722 1028 2722 1663 
Q 2722 2313 2464 2622 
Q 2206 2931 1841 2931 
Q 1472 2931 1203 2611 
Q 934 2291 934 1684 
z
" transform="scale(0.015625)"/>
        <path id="ArialMT-6e" d="M 422 0 
L 422 3319 
L 928 3319 
L 928 2847 
Q 1294 3394 1984 3394 
Q 2284 3394 2536 3286 
Q 2788 3178 2913 3003 
Q 3038 2828 3088 2588 
Q 3119 2431 3119 2041 
L 3119 0 
L 2556 0 
L 2556 2019 
Q 2556 2363 2490 2533 
Q 2425 2703 2258 2804 
Q 2091 2906 1866 2906 
Q 1506 2906 1245 2678 
Q 984 2450 984 1813 
L 984 0 
L 422 0 
z
" transform="scale(0.015625)"/>
       </defs>
       <use xlink:href="#ArialMT-50"/>
       <use xlink:href="#ArialMT-6f" x="66.699219"/>
       <use xlink:href="#ArialMT-6c" x="122.314453"/>
       <use xlink:href="#ArialMT-79" x="144.53125"/>
       <use xlink:href="#ArialMT-62" x="194.53125"/>
       <use xlink:href="#ArialMT-72" x="250.146484"/>
       <use xlink:href="#ArialMT-65" x="283.447266"/>
       <use xlink:href="#ArialMT-6e" x="339.0625"/>
       <use xlink:href="#ArialMT-65" x="394.677734"/>
      </g>
     </g>
    </g>
    <g id="xtick_3">
     <g id="line2d_3">
      <g>
       <use xlink:href="#md72aa133c7" x="289.211764" y="313.63875" style="fill: #262626; stroke: #262626"/>
      </g>
     </g>
     <g id="text_3">
      <!-- Target2 + -->
      <g style="fill: #262626" transform="translate(261.514451 331.42625) scale(0.132 -0.132)">
       <use xlink:href="#ArialMT-54"/>
       <use xlink:href="#ArialMT-61" x="49.958984"/>
       <use xlink:href="#ArialMT-72" x="105.574219"/>
       <use xlink:href="#ArialMT-67" x="138.875"/>
       <use xlink:href="#ArialMT-65" x="194.490234"/>
       <use xlink:href="#ArialMT-74" x="250.105469"/>
       <use xlink:href="#ArialMT-32" x="277.888672"/>
       <use xlink:href="#ArialMT-20" x="333.503906"/>
       <use xlink:href="#ArialMT-2b" x="361.287109"/>
      </g>
      <!-- Polybrene - -->
      <g style="fill: #262626" transform="translate(255.463076 345.542412) scale(0.132 -0.132)">
       <use xlink:href="#ArialMT-50"/>
       <use xlink:href="#ArialMT-6f" x="66.699219"/>
       <use xlink:href="#ArialMT-6c" x="122.314453"/>
       <use xlink:href="#ArialMT-79" x="144.53125"/>
       <use xlink:href="#ArialMT-62" x="194.53125"/>
       <use xlink:href="#ArialMT-72" x="250.146484"/>
       <use xlink:href="#ArialMT-65" x="283.447266"/>
       <use xlink:href="#ArialMT-6e" x="339.0625"/>
       <use xlink:href="#ArialMT-65" x="394.677734"/>
       <use xlink:href="#ArialMT-20" x="450.292969"/>
       <use xlink:href="#ArialMT-2d" x="478.076172"/>
      </g>
      <!-- Target2 + -->
      <g style="fill: #262626" transform="translate(261.514451 359.7056) scale(0.132 -0.132)">
       <use xlink:href="#ArialMT-54"/>
       <use xlink:href="#ArialMT-61" x="49.958984"/>
       <use xlink:href="#ArialMT-72" x="105.574219"/>
       <use xlink:href="#ArialMT-67" x="138.875"/>
       <use xlink:href="#ArialMT-65" x="194.490234"/>
       <use xlink:href="#ArialMT-74" x="250.105469"/>
       <use xlink:href="#ArialMT-32" x="277.888672"/>
       <use xlink:href="#ArialMT-20" x="333.503906"/>
       <use xlink:href="#ArialMT-2b" x="361.287109"/>
      </g>
      <!-- Polybrene -->
      <g style="fill: #262626" transform="translate(259.494233 373.821762) scale(0.132 -0.132)">
       <use xlink:href="#ArialMT-50"/>
       <use xlink:href="#ArialMT-6f" x="66.699219"/>
       <use xlink:href="#ArialMT-6c" x="122.314453"/>
       <use xlink:href="#ArialMT-79" x="144.53125"/>
       <use xlink:href="#ArialMT-62" x="194.53125"/>
       <use xlink:href="#ArialMT-72" x="250.146484"/>
       <use xlink:href="#ArialMT-65" x="283.447266"/>
       <use xlink:href="#ArialMT-6e" x="339.0625"/>
       <use xlink:href="#ArialMT-65" x="394.677734"/>
      </g>
     </g>
    </g>
    <g id="text_4">
     <!-- Polybrene effect on compounds and matching -->
     <g style="fill: #262626" transform="translate(72.028125 391.0827) scale(0.144 -0.144)">
      <defs>
       <path id="ArialMT-66" d="M 556 0 
L 556 2881 
L 59 2881 
L 59 3319 
L 556 3319 
L 556 3672 
Q 556 4006 616 4169 
Q 697 4388 901 4523 
Q 1106 4659 1475 4659 
Q 1713 4659 2000 4603 
L 1916 4113 
Q 1741 4144 1584 4144 
Q 1328 4144 1222 4034 
Q 1116 3925 1116 3625 
L 1116 3319 
L 1763 3319 
L 1763 2881 
L 1116 2881 
L 1116 0 
L 556 0 
z
" transform="scale(0.015625)"/>
       <path id="ArialMT-63" d="M 2588 1216 
L 3141 1144 
Q 3050 572 2676 248 
Q 2303 -75 1759 -75 
Q 1078 -75 664 370 
Q 250 816 250 1647 
Q 250 2184 428 2587 
Q 606 2991 970 3192 
Q 1334 3394 1763 3394 
Q 2303 3394 2647 3120 
Q 2991 2847 3088 2344 
L 2541 2259 
Q 2463 2594 2264 2762 
Q 2066 2931 1784 2931 
Q 1359 2931 1093 2626 
Q 828 2322 828 1663 
Q 828 994 1084 691 
Q 1341 388 1753 388 
Q 2084 388 2306 591 
Q 2528 794 2588 1216 
z
" transform="scale(0.015625)"/>
       <path id="ArialMT-6d" d="M 422 0 
L 422 3319 
L 925 3319 
L 925 2853 
Q 1081 3097 1340 3245 
Q 1600 3394 1931 3394 
Q 2300 3394 2536 3241 
Q 2772 3088 2869 2813 
Q 3263 3394 3894 3394 
Q 4388 3394 4653 3120 
Q 4919 2847 4919 2278 
L 4919 0 
L 4359 0 
L 4359 2091 
Q 4359 2428 4304 2576 
Q 4250 2725 4106 2815 
Q 3963 2906 3769 2906 
Q 3419 2906 3187 2673 
Q 2956 2441 2956 1928 
L 2956 0 
L 2394 0 
L 2394 2156 
Q 2394 2531 2256 2718 
Q 2119 2906 1806 2906 
Q 1569 2906 1367 2781 
Q 1166 2656 1075 2415 
Q 984 2175 984 1722 
L 984 0 
L 422 0 
z
" transform="scale(0.015625)"/>
       <path id="ArialMT-70" d="M 422 -1272 
L 422 3319 
L 934 3319 
L 934 2888 
Q 1116 3141 1344 3267 
Q 1572 3394 1897 3394 
Q 2322 3394 2647 3175 
Q 2972 2956 3137 2557 
Q 3303 2159 3303 1684 
Q 3303 1175 3120 767 
Q 2938 359 2589 142 
Q 2241 -75 1856 -75 
Q 1575 -75 1351 44 
Q 1128 163 984 344 
L 984 -1272 
L 422 -1272 
z
M 931 1641 
Q 931 1000 1190 694 
Q 1450 388 1819 388 
Q 2194 388 2461 705 
Q 2728 1022 2728 1688 
Q 2728 2322 2467 2637 
Q 2206 2953 1844 2953 
Q 1484 2953 1207 2617 
Q 931 2281 931 1641 
z
" transform="scale(0.015625)"/>
       <path id="ArialMT-75" d="M 2597 0 
L 2597 488 
Q 2209 -75 1544 -75 
Q 1250 -75 995 37 
Q 741 150 617 320 
Q 494 491 444 738 
Q 409 903 409 1263 
L 409 3319 
L 972 3319 
L 972 1478 
Q 972 1038 1006 884 
Q 1059 663 1231 536 
Q 1403 409 1656 409 
Q 1909 409 2131 539 
Q 2353 669 2445 892 
Q 2538 1116 2538 1541 
L 2538 3319 
L 3100 3319 
L 3100 0 
L 2597 0 
z
" transform="scale(0.015625)"/>
       <path id="ArialMT-64" d="M 2575 0 
L 2575 419 
Q 2259 -75 1647 -75 
Q 1250 -75 917 144 
Q 584 363 401 755 
Q 219 1147 219 1656 
Q 219 2153 384 2558 
Q 550 2963 881 3178 
Q 1213 3394 1622 3394 
Q 1922 3394 2156 3267 
Q 2391 3141 2538 2938 
L 2538 4581 
L 3097 4581 
L 3097 0 
L 2575 0 
z
M 797 1656 
Q 797 1019 1065 703 
Q 1334 388 1700 388 
Q 2069 388 2326 689 
Q 2584 991 2584 1609 
Q 2584 2291 2321 2609 
Q 2059 2928 1675 2928 
Q 1300 2928 1048 2622 
Q 797 2316 797 1656 
z
" transform="scale(0.015625)"/>
       <path id="ArialMT-73" d="M 197 991 
L 753 1078 
Q 800 744 1014 566 
Q 1228 388 1613 388 
Q 2000 388 2187 545 
Q 2375 703 2375 916 
Q 2375 1106 2209 1216 
Q 2094 1291 1634 1406 
Q 1016 1563 777 1677 
Q 538 1791 414 1992 
Q 291 2194 291 2438 
Q 291 2659 392 2848 
Q 494 3038 669 3163 
Q 800 3259 1026 3326 
Q 1253 3394 1513 3394 
Q 1903 3394 2198 3281 
Q 2494 3169 2634 2976 
Q 2775 2784 2828 2463 
L 2278 2388 
Q 2241 2644 2061 2787 
Q 1881 2931 1553 2931 
Q 1166 2931 1000 2803 
Q 834 2675 834 2503 
Q 834 2394 903 2306 
Q 972 2216 1119 2156 
Q 1203 2125 1616 2013 
Q 2213 1853 2448 1751 
Q 2684 1650 2818 1456 
Q 2953 1263 2953 975 
Q 2953 694 2789 445 
Q 2625 197 2315 61 
Q 2006 -75 1616 -75 
Q 969 -75 630 194 
Q 291 463 197 991 
z
" transform="scale(0.015625)"/>
       <path id="ArialMT-68" d="M 422 0 
L 422 4581 
L 984 4581 
L 984 2938 
Q 1378 3394 1978 3394 
Q 2347 3394 2619 3248 
Q 2891 3103 3008 2847 
Q 3125 2591 3125 2103 
L 3125 0 
L 2563 0 
L 2563 2103 
Q 2563 2525 2380 2717 
Q 2197 2909 1863 2909 
Q 1613 2909 1392 2779 
Q 1172 2650 1078 2428 
Q 984 2206 984 1816 
L 984 0 
L 422 0 
z
" transform="scale(0.015625)"/>
       <path id="ArialMT-69" d="M 425 3934 
L 425 4581 
L 988 4581 
L 988 3934 
L 425 3934 
z
M 425 0 
L 425 3319 
L 988 3319 
L 988 0 
L 425 0 
z
" transform="scale(0.015625)"/>
      </defs>
      <use xlink:href="#ArialMT-50"/>
      <use xlink:href="#ArialMT-6f" x="66.699219"/>
      <use xlink:href="#ArialMT-6c" x="122.314453"/>
      <use xlink:href="#ArialMT-79" x="144.53125"/>
      <use xlink:href="#ArialMT-62" x="194.53125"/>
      <use xlink:href="#ArialMT-72" x="250.146484"/>
      <use xlink:href="#ArialMT-65" x="283.447266"/>
      <use xlink:href="#ArialMT-6e" x="339.0625"/>
      <use xlink:href="#ArialMT-65" x="394.677734"/>
      <use xlink:href="#ArialMT-20" x="450.292969"/>
      <use xlink:href="#ArialMT-65" x="478.076172"/>
      <use xlink:href="#ArialMT-66" x="533.691406"/>
      <use xlink:href="#ArialMT-66" x="559.724609"/>
      <use xlink:href="#ArialMT-65" x="587.507812"/>
      <use xlink:href="#ArialMT-63" x="643.123047"/>
      <use xlink:href="#ArialMT-74" x="693.123047"/>
      <use xlink:href="#ArialMT-20" x="720.90625"/>
      <use xlink:href="#ArialMT-6f" x="748.689453"/>
      <use xlink:href="#ArialMT-6e" x="804.304688"/>
      <use xlink:href="#ArialMT-20" x="859.919922"/>
      <use xlink:href="#ArialMT-63" x="887.703125"/>
      <use xlink:href="#ArialMT-6f" x="937.703125"/>
      <use xlink:href="#ArialMT-6d" x="993.318359"/>
      <use xlink:href="#ArialMT-70" x="1076.619141"/>
      <use xlink:href="#ArialMT-6f" x="1132.234375"/>
      <use xlink:href="#ArialMT-75" x="1187.849609"/>
      <use xlink:href="#ArialMT-6e" x="1243.464844"/>
      <use xlink:href="#ArialMT-64" x="1299.080078"/>
      <use xlink:href="#ArialMT-73" x="1354.695312"/>
      <use xlink:href="#ArialMT-20" x="1404.695312"/>
      <use xlink:href="#ArialMT-61" x="1432.478516"/>
      <use xlink:href="#ArialMT-6e" x="1488.09375"/>
      <use xlink:href="#ArialMT-64" x="1543.708984"/>
      <use xlink:href="#ArialMT-20" x="1599.324219"/>
      <use xlink:href="#ArialMT-6d" x="1627.107422"/>
      <use xlink:href="#ArialMT-61" x="1710.408203"/>
      <use xlink:href="#ArialMT-74" x="1766.023438"/>
      <use xlink:href="#ArialMT-63" x="1793.806641"/>
      <use xlink:href="#ArialMT-68" x="1843.806641"/>
      <use xlink:href="#ArialMT-69" x="1899.421875"/>
      <use xlink:href="#ArialMT-6e" x="1921.638672"/>
      <use xlink:href="#ArialMT-67" x="1977.253906"/>
     </g>
    </g>
   </g>
   <g id="matplotlib.axis_2">
    <g id="ytick_1">
     <g id="line2d_4">
      <defs>
       <path id="m22ea7e9a6a" d="M 0 0 
L -4.8 0 
" style="stroke: #262626"/>
      </defs>
      <g>
       <use xlink:href="#m22ea7e9a6a" x="112.142042" y="278.393114" style="fill: #262626; stroke: #262626"/>
      </g>
     </g>
     <g id="text_5">
      <!-- 45 -->
      <g style="fill: #262626" transform="translate(89.161167 283.11727) scale(0.132 -0.132)">
       <defs>
        <path id="ArialMT-34" d="M 2069 0 
L 2069 1097 
L 81 1097 
L 81 1613 
L 2172 4581 
L 2631 4581 
L 2631 1613 
L 3250 1613 
L 3250 1097 
L 2631 1097 
L 2631 0 
L 2069 0 
z
M 2069 1613 
L 2069 3678 
L 634 1613 
L 2069 1613 
z
" transform="scale(0.015625)"/>
        <path id="ArialMT-35" d="M 266 1200 
L 856 1250 
Q 922 819 1161 601 
Q 1400 384 1738 384 
Q 2144 384 2425 690 
Q 2706 997 2706 1503 
Q 2706 1984 2436 2262 
Q 2166 2541 1728 2541 
Q 1456 2541 1237 2417 
Q 1019 2294 894 2097 
L 366 2166 
L 809 4519 
L 3088 4519 
L 3088 3981 
L 1259 3981 
L 1013 2750 
Q 1425 3038 1878 3038 
Q 2478 3038 2890 2622 
Q 3303 2206 3303 1553 
Q 3303 931 2941 478 
Q 2500 -78 1738 -78 
Q 1113 -78 717 272 
Q 322 622 266 1200 
z
" transform="scale(0.015625)"/>
       </defs>
       <use xlink:href="#ArialMT-34"/>
       <use xlink:href="#ArialMT-35" x="55.615234"/>
      </g>
     </g>
    </g>
    <g id="ytick_2">
     <g id="line2d_5">
      <g>
       <use xlink:href="#m22ea7e9a6a" x="112.142042" y="242.005919" style="fill: #262626; stroke: #262626"/>
      </g>
     </g>
     <g id="text_6">
      <!-- 50 -->
      <g style="fill: #262626" transform="translate(89.161167 246.730076) scale(0.132 -0.132)">
       <defs>
        <path id="ArialMT-30" d="M 266 2259 
Q 266 3072 433 3567 
Q 600 4063 929 4331 
Q 1259 4600 1759 4600 
Q 2128 4600 2406 4451 
Q 2684 4303 2865 4023 
Q 3047 3744 3150 3342 
Q 3253 2941 3253 2259 
Q 3253 1453 3087 958 
Q 2922 463 2592 192 
Q 2263 -78 1759 -78 
Q 1097 -78 719 397 
Q 266 969 266 2259 
z
M 844 2259 
Q 844 1131 1108 757 
Q 1372 384 1759 384 
Q 2147 384 2411 759 
Q 2675 1134 2675 2259 
Q 2675 3391 2411 3762 
Q 2147 4134 1753 4134 
Q 1366 4134 1134 3806 
Q 844 3388 844 2259 
z
" transform="scale(0.015625)"/>
       </defs>
       <use xlink:href="#ArialMT-35"/>
       <use xlink:href="#ArialMT-30" x="55.615234"/>
      </g>
     </g>
    </g>
    <g id="ytick_3">
     <g id="line2d_6">
      <g>
       <use xlink:href="#m22ea7e9a6a" x="112.142042" y="205.618724" style="fill: #262626; stroke: #262626"/>
      </g>
     </g>
     <g id="text_7">
      <!-- 55 -->
      <g style="fill: #262626" transform="translate(89.161167 210.342881) scale(0.132 -0.132)">
       <use xlink:href="#ArialMT-35"/>
       <use xlink:href="#ArialMT-35" x="55.615234"/>
      </g>
     </g>
    </g>
    <g id="ytick_4">
     <g id="line2d_7">
      <g>
       <use xlink:href="#m22ea7e9a6a" x="112.142042" y="169.23153" style="fill: #262626; stroke: #262626"/>
      </g>
     </g>
     <g id="text_8">
      <!-- 60 -->
      <g style="fill: #262626" transform="translate(89.161167 173.955686) scale(0.132 -0.132)">
       <defs>
        <path id="ArialMT-36" d="M 3184 3459 
L 2625 3416 
Q 2550 3747 2413 3897 
Q 2184 4138 1850 4138 
Q 1581 4138 1378 3988 
Q 1113 3794 959 3422 
Q 806 3050 800 2363 
Q 1003 2672 1297 2822 
Q 1591 2972 1913 2972 
Q 2475 2972 2870 2558 
Q 3266 2144 3266 1488 
Q 3266 1056 3080 686 
Q 2894 316 2569 119 
Q 2244 -78 1831 -78 
Q 1128 -78 684 439 
Q 241 956 241 2144 
Q 241 3472 731 4075 
Q 1159 4600 1884 4600 
Q 2425 4600 2770 4297 
Q 3116 3994 3184 3459 
z
M 888 1484 
Q 888 1194 1011 928 
Q 1134 663 1356 523 
Q 1578 384 1822 384 
Q 2178 384 2434 671 
Q 2691 959 2691 1453 
Q 2691 1928 2437 2201 
Q 2184 2475 1800 2475 
Q 1419 2475 1153 2201 
Q 888 1928 888 1484 
z
" transform="scale(0.015625)"/>
       </defs>
       <use xlink:href="#ArialMT-36"/>
       <use xlink:href="#ArialMT-30" x="55.615234"/>
      </g>
     </g>
    </g>
    <g id="ytick_5">
     <g id="line2d_8">
      <g>
       <use xlink:href="#m22ea7e9a6a" x="112.142042" y="132.844335" style="fill: #262626; stroke: #262626"/>
      </g>
     </g>
     <g id="text_9">
      <!-- 65 -->
      <g style="fill: #262626" transform="translate(89.161167 137.568491) scale(0.132 -0.132)">
       <use xlink:href="#ArialMT-36"/>
       <use xlink:href="#ArialMT-35" x="55.615234"/>
      </g>
     </g>
    </g>
    <g id="ytick_6">
     <g id="line2d_9">
      <g>
       <use xlink:href="#m22ea7e9a6a" x="112.142042" y="96.45714" style="fill: #262626; stroke: #262626"/>
      </g>
     </g>
     <g id="text_10">
      <!-- 70 -->
      <g style="fill: #262626" transform="translate(89.161167 101.181296) scale(0.132 -0.132)">
       <defs>
        <path id="ArialMT-37" d="M 303 3981 
L 303 4522 
L 3269 4522 
L 3269 4084 
Q 2831 3619 2401 2847 
Q 1972 2075 1738 1259 
Q 1569 684 1522 0 
L 944 0 
Q 953 541 1156 1306 
Q 1359 2072 1739 2783 
Q 2119 3494 2547 3981 
L 303 3981 
z
" transform="scale(0.015625)"/>
       </defs>
       <use xlink:href="#ArialMT-37"/>
       <use xlink:href="#ArialMT-30" x="55.615234"/>
      </g>
     </g>
    </g>
    <g id="ytick_7">
     <g id="line2d_10">
      <g>
       <use xlink:href="#m22ea7e9a6a" x="112.142042" y="60.069945" style="fill: #262626; stroke: #262626"/>
      </g>
     </g>
     <g id="text_11">
      <!-- 75 -->
      <g style="fill: #262626" transform="translate(89.161167 64.794101) scale(0.132 -0.132)">
       <use xlink:href="#ArialMT-37"/>
       <use xlink:href="#ArialMT-35" x="55.615234"/>
      </g>
     </g>
    </g>
    <g id="ytick_8">
     <g id="line2d_11">
      <g>
       <use xlink:href="#m22ea7e9a6a" x="112.142042" y="23.68275" style="fill: #262626; stroke: #262626"/>
      </g>
     </g>
     <g id="text_12">
      <!-- 80 -->
      <g style="fill: #262626" transform="translate(89.161167 28.406906) scale(0.132 -0.132)">
       <defs>
        <path id="ArialMT-38" d="M 1131 2484 
Q 781 2613 612 2850 
Q 444 3088 444 3419 
Q 444 3919 803 4259 
Q 1163 4600 1759 4600 
Q 2359 4600 2725 4251 
Q 3091 3903 3091 3403 
Q 3091 3084 2923 2848 
Q 2756 2613 2416 2484 
Q 2838 2347 3058 2040 
Q 3278 1734 3278 1309 
Q 3278 722 2862 322 
Q 2447 -78 1769 -78 
Q 1091 -78 675 323 
Q 259 725 259 1325 
Q 259 1772 486 2073 
Q 713 2375 1131 2484 
z
M 1019 3438 
Q 1019 3113 1228 2906 
Q 1438 2700 1772 2700 
Q 2097 2700 2305 2904 
Q 2513 3109 2513 3406 
Q 2513 3716 2298 3927 
Q 2084 4138 1766 4138 
Q 1444 4138 1231 3931 
Q 1019 3725 1019 3438 
z
M 838 1322 
Q 838 1081 952 856 
Q 1066 631 1291 507 
Q 1516 384 1775 384 
Q 2178 384 2440 643 
Q 2703 903 2703 1303 
Q 2703 1709 2433 1975 
Q 2163 2241 1756 2241 
Q 1359 2241 1098 1978 
Q 838 1716 838 1322 
z
" transform="scale(0.015625)"/>
       </defs>
       <use xlink:href="#ArialMT-38"/>
       <use xlink:href="#ArialMT-30" x="55.615234"/>
      </g>
     </g>
    </g>
    <g id="text_13">
     <!-- Percent Replicating -->
     <g style="fill: #262626" transform="translate(82.130417 231.0915) rotate(-90) scale(0.144 -0.144)">
      <defs>
       <path id="ArialMT-52" d="M 503 0 
L 503 4581 
L 2534 4581 
Q 3147 4581 3465 4457 
Q 3784 4334 3975 4021 
Q 4166 3709 4166 3331 
Q 4166 2844 3850 2509 
Q 3534 2175 2875 2084 
Q 3116 1969 3241 1856 
Q 3506 1613 3744 1247 
L 4541 0 
L 3778 0 
L 3172 953 
Q 2906 1366 2734 1584 
Q 2563 1803 2427 1890 
Q 2291 1978 2150 2013 
Q 2047 2034 1813 2034 
L 1109 2034 
L 1109 0 
L 503 0 
z
M 1109 2559 
L 2413 2559 
Q 2828 2559 3062 2645 
Q 3297 2731 3419 2920 
Q 3541 3109 3541 3331 
Q 3541 3656 3305 3865 
Q 3069 4075 2559 4075 
L 1109 4075 
L 1109 2559 
z
" transform="scale(0.015625)"/>
      </defs>
      <use xlink:href="#ArialMT-50"/>
      <use xlink:href="#ArialMT-65" x="66.699219"/>
      <use xlink:href="#ArialMT-72" x="122.314453"/>
      <use xlink:href="#ArialMT-63" x="155.615234"/>
      <use xlink:href="#ArialMT-65" x="205.615234"/>
      <use xlink:href="#ArialMT-6e" x="261.230469"/>
      <use xlink:href="#ArialMT-74" x="316.845703"/>
      <use xlink:href="#ArialMT-20" x="344.628906"/>
      <use xlink:href="#ArialMT-52" x="372.412109"/>
      <use xlink:href="#ArialMT-65" x="444.628906"/>
      <use xlink:href="#ArialMT-70" x="500.244141"/>
      <use xlink:href="#ArialMT-6c" x="555.859375"/>
      <use xlink:href="#ArialMT-69" x="578.076172"/>
      <use xlink:href="#ArialMT-63" x="600.292969"/>
      <use xlink:href="#ArialMT-61" x="650.292969"/>
      <use xlink:href="#ArialMT-74" x="705.908203"/>
      <use xlink:href="#ArialMT-69" x="733.691406"/>
      <use xlink:href="#ArialMT-6e" x="755.908203"/>
      <use xlink:href="#ArialMT-67" x="811.523438"/>
     </g>
    </g>
   </g>
   <g id="PathCollection_1"/>
   <g id="PathCollection_2"/>
   <g id="PathCollection_3"/>
   <g id="patch_3">
    <path d="M 112.142042 313.63875 
L 112.142042 23.68275 
" style="fill: none; stroke: #262626; stroke-linejoin: miter; stroke-linecap: square"/>
   </g>
   <g id="patch_4">
    <path d="M 112.142042 313.63875 
L 324.625708 313.63875 
" style="fill: none; stroke: #262626; stroke-linejoin: miter; stroke-linecap: square"/>
   </g>
   <g id="PathCollection_4">
    <defs>
     <path id="C0_0_b9013f0958" d="M 0 4.472136 
C 1.186024 4.472136 2.323632 4.000923 3.162278 3.162278 
C 4.000923 2.323632 4.472136 1.186024 4.472136 -0 
C 4.472136 -1.186024 4.000923 -2.323632 3.162278 -3.162278 
C 2.323632 -4.000923 1.186024 -4.472136 0 -4.472136 
C -1.186024 -4.472136 -2.323632 -4.000923 -3.162278 -3.162278 
C -4.000923 -2.323632 -4.472136 -1.186024 -4.472136 0 
C -4.472136 1.186024 -4.000923 2.323632 -3.162278 3.162278 
C -2.323632 4.000923 -1.186024 4.472136 0 4.472136 
z
"/>
    </defs>
    <g clip-path="url(#p9b8d5c388f)">
     <use xlink:href="#C0_0_b9013f0958" x="131.051053" y="133.440846" style="fill: #e41a1c; fill-opacity: 0.8; stroke: #4c4c4c; stroke-opacity: 0.8"/>
    </g>
    <g clip-path="url(#p9b8d5c388f)">
     <use xlink:href="#C0_0_b9013f0958" x="132.417293" y="123.896664" style="fill: #e41a1c; fill-opacity: 0.8; stroke: #4c4c4c; stroke-opacity: 0.8"/>
    </g>
    <g clip-path="url(#p9b8d5c388f)">
     <use xlink:href="#C0_0_b9013f0958" x="132.358249" y="120.71527" style="fill: #e41a1c; fill-opacity: 0.8; stroke: #4c4c4c; stroke-opacity: 0.8"/>
    </g>
   </g>
   <g id="PathCollection_5">
    <path d="M 0 405.785586 
C 1.186024 405.785586 2.323632 405.314373 3.162278 404.475728 
C 4.000923 403.637082 4.472136 402.499474 4.472136 401.31345 
C 4.472136 400.127426 4.000923 398.989818 3.162278 398.151172 
C 2.323632 397.312527 1.186024 396.841314 0 396.841314 
C -1.186024 396.841314 -2.323632 397.312527 -3.162278 398.151172 
C -4.000923 398.989818 -4.472136 400.127426 -4.472136 401.31345 
C -4.472136 402.499474 -4.000923 403.637082 -3.162278 404.475728 
C -2.323632 405.314373 -1.186024 405.785586 0 405.785586 
" clip-path="url(#p9b8d5c388f)" style="fill: none; stroke: #ffffff; stroke-opacity: 0.8"/>
   </g>
   <g id="PathCollection_6">
    <path d="M 0 405.785586 
C 1.186024 405.785586 2.323632 405.314373 3.162278 404.475728 
C 4.000923 403.637082 4.472136 402.499474 4.472136 401.31345 
C 4.472136 400.127426 4.000923 398.989818 3.162278 398.151172 
C 2.323632 397.312527 1.186024 396.841314 0 396.841314 
C -1.186024 396.841314 -2.323632 397.312527 -3.162278 398.151172 
C -4.000923 398.989818 -4.472136 400.127426 -4.472136 401.31345 
C -4.472136 402.499474 -4.000923 403.637082 -3.162278 404.475728 
C -2.323632 405.314373 -1.186024 405.785586 0 405.785586 
" clip-path="url(#p9b8d5c388f)" style="fill: none; stroke: #ffffff; stroke-opacity: 0.8"/>
   </g>
   <g id="PathCollection_7">
    <path d="M 0 405.785586 
C 1.186024 405.785586 2.323632 405.314373 3.162278 404.475728 
C 4.000923 403.637082 4.472136 402.499474 4.472136 401.31345 
C 4.472136 400.127426 4.000923 398.989818 3.162278 398.151172 
C 2.323632 397.312527 1.186024 396.841314 0 396.841314 
C -1.186024 396.841314 -2.323632 397.312527 -3.162278 398.151172 
C -4.000923 398.989818 -4.472136 400.127426 -4.472136 401.31345 
C -4.472136 402.499474 -4.000923 403.637082 -3.162278 404.475728 
C -2.323632 405.314373 -1.186024 405.785586 0 405.785586 
" clip-path="url(#p9b8d5c388f)" style="fill: none; stroke: #ffffff; stroke-opacity: 0.8"/>
   </g>
   <g id="PathCollection_8">
    <defs>
     <path id="C1_0_6a4a35afca" d="M 0 4.472136 
C 1.186024 4.472136 2.323632 4.000923 3.162278 3.162278 
C 4.000923 2.323632 4.472136 1.186024 4.472136 -0 
C 4.472136 -1.186024 4.000923 -2.323632 3.162278 -3.162278 
C 2.323632 -4.000923 1.186024 -4.472136 0 -4.472136 
C -1.186024 -4.472136 -2.323632 -4.000923 -3.162278 -3.162278 
C -4.000923 -2.323632 -4.472136 -1.186024 -4.472136 0 
C -4.472136 1.186024 -4.000923 2.323632 -3.162278 3.162278 
C -2.323632 4.000923 -1.186024 4.472136 0 4.472136 
z
"/>
    </defs>
    <g clip-path="url(#p9b8d5c388f)">
     <use xlink:href="#C1_0_6a4a35afca" x="219.491066" y="283.761717" style="fill: #377eb8; fill-opacity: 0.8; stroke: #484848; stroke-opacity: 0.8"/>
    </g>
    <g clip-path="url(#p9b8d5c388f)">
     <use xlink:href="#C1_0_6a4a35afca" x="213.342798" y="288.533808" style="fill: #377eb8; fill-opacity: 0.8; stroke: #484848; stroke-opacity: 0.8"/>
    </g>
    <g clip-path="url(#p9b8d5c388f)">
     <use xlink:href="#C1_0_6a4a35afca" x="219.434355" y="259.901261" style="fill: #377eb8; fill-opacity: 0.8; stroke: #484848; stroke-opacity: 0.8"/>
    </g>
    <g clip-path="url(#p9b8d5c388f)">
     <use xlink:href="#C1_0_6a4a35afca" x="220.529019" y="270.544896" style="fill: #377eb8; fill-opacity: 0.8; stroke: #484848; stroke-opacity: 0.8"/>
    </g>
    <g clip-path="url(#p9b8d5c388f)">
     <use xlink:href="#C1_0_6a4a35afca" x="214.595893" y="299.083872" style="fill: #377eb8; fill-opacity: 0.8; stroke: #484848; stroke-opacity: 0.8"/>
    </g>
    <g clip-path="url(#p9b8d5c388f)">
     <use xlink:href="#C1_0_6a4a35afca" x="218.133572" y="270.544896" style="fill: #377eb8; fill-opacity: 0.8; stroke: #484848; stroke-opacity: 0.8"/>
    </g>
    <g clip-path="url(#p9b8d5c388f)">
     <use xlink:href="#C1_0_6a4a35afca" x="215.071182" y="287.192632" style="fill: #377eb8; fill-opacity: 0.8; stroke: #484848; stroke-opacity: 0.8"/>
    </g>
    <g clip-path="url(#p9b8d5c388f)">
     <use xlink:href="#C1_0_6a4a35afca" x="222.127742" y="277.67964" style="fill: #377eb8; fill-opacity: 0.8; stroke: #484848; stroke-opacity: 0.8"/>
    </g>
    <g clip-path="url(#p9b8d5c388f)">
     <use xlink:href="#C1_0_6a4a35afca" x="216.847728" y="284.814384" style="fill: #377eb8; fill-opacity: 0.8; stroke: #484848; stroke-opacity: 0.8"/>
    </g>
   </g>
   <g id="PathCollection_9">
    <path d="M 0 405.785586 
C 1.186024 405.785586 2.323632 405.314373 3.162278 404.475728 
C 4.000923 403.637082 4.472136 402.499474 4.472136 401.31345 
C 4.472136 400.127426 4.000923 398.989818 3.162278 398.151172 
C 2.323632 397.312527 1.186024 396.841314 0 396.841314 
C -1.186024 396.841314 -2.323632 397.312527 -3.162278 398.151172 
C -4.000923 398.989818 -4.472136 400.127426 -4.472136 401.31345 
C -4.472136 402.499474 -4.000923 403.637082 -3.162278 404.475728 
C -2.323632 405.314373 -1.186024 405.785586 0 405.785586 
" clip-path="url(#p9b8d5c388f)" style="fill: none; stroke: #ffffff; stroke-opacity: 0.8"/>
   </g>
   <g id="PathCollection_10">
    <path d="M 0 405.785586 
C 1.186024 405.785586 2.323632 405.314373 3.162278 404.475728 
C 4.000923 403.637082 4.472136 402.499474 4.472136 401.31345 
C 4.472136 400.127426 4.000923 398.989818 3.162278 398.151172 
C 2.323632 397.312527 1.186024 396.841314 0 396.841314 
C -1.186024 396.841314 -2.323632 397.312527 -3.162278 398.151172 
C -4.000923 398.989818 -4.472136 400.127426 -4.472136 401.31345 
C -4.472136 402.499474 -4.000923 403.637082 -3.162278 404.475728 
C -2.323632 405.314373 -1.186024 405.785586 0 405.785586 
" clip-path="url(#p9b8d5c388f)" style="fill: none; stroke: #ffffff; stroke-opacity: 0.8"/>
   </g>
   <g id="PathCollection_11">
    <path d="M 0 405.785586 
C 1.186024 405.785586 2.323632 405.314373 3.162278 404.475728 
C 4.000923 403.637082 4.472136 402.499474 4.472136 401.31345 
C 4.472136 400.127426 4.000923 398.989818 3.162278 398.151172 
C 2.323632 397.312527 1.186024 396.841314 0 396.841314 
C -1.186024 396.841314 -2.323632 397.312527 -3.162278 398.151172 
C -4.000923 398.989818 -4.472136 400.127426 -4.472136 401.31345 
C -4.472136 402.499474 -4.000923 403.637082 -3.162278 404.475728 
C -2.323632 405.314373 -1.186024 405.785586 0 405.785586 
" clip-path="url(#p9b8d5c388f)" style="fill: none; stroke: #ffffff; stroke-opacity: 0.8"/>
   </g>
   <g id="PathCollection_12">
    <defs>
     <path id="C2_0_278705b130" d="M 0 4.472136 
C 1.186024 4.472136 2.323632 4.000923 3.162278 3.162278 
C 4.000923 2.323632 4.472136 1.186024 4.472136 -0 
C 4.472136 -1.186024 4.000923 -2.323632 3.162278 -3.162278 
C 2.323632 -4.000923 1.186024 -4.472136 0 -4.472136 
C -1.186024 -4.472136 -2.323632 -4.000923 -3.162278 -3.162278 
C -4.000923 -2.323632 -4.472136 -1.186024 -4.472136 0 
C -4.472136 1.186024 -4.000923 2.323632 -3.162278 3.162278 
C -2.323632 4.000923 -1.186024 4.472136 0 4.472136 
z
"/>
    </defs>
    <g clip-path="url(#p9b8d5c388f)">
     <use xlink:href="#C2_0_278705b130" x="303.033713" y="222.979935" style="fill: #4daf4a; fill-opacity: 0.8; stroke: #4b4b4b; stroke-opacity: 0.8"/>
    </g>
    <g clip-path="url(#p9b8d5c388f)">
     <use xlink:href="#C2_0_278705b130" x="308.266247" y="220.601687" style="fill: #4daf4a; fill-opacity: 0.8; stroke: #4b4b4b; stroke-opacity: 0.8"/>
    </g>
    <g clip-path="url(#p9b8d5c388f)">
     <use xlink:href="#C2_0_278705b130" x="307.165365" y="175.414974" style="fill: #4daf4a; fill-opacity: 0.8; stroke: #4b4b4b; stroke-opacity: 0.8"/>
    </g>
   </g>
   <g id="text_14">
    <!-- Polybrene effect on compounds and matching-Percent Replicating -->
    <g style="fill: #262626" transform="translate(7.2 17.68275) scale(0.144 -0.144)">
     <use xlink:href="#ArialMT-50"/>
     <use xlink:href="#ArialMT-6f" x="66.699219"/>
     <use xlink:href="#ArialMT-6c" x="122.314453"/>
     <use xlink:href="#ArialMT-79" x="144.53125"/>
     <use xlink:href="#ArialMT-62" x="194.53125"/>
     <use xlink:href="#ArialMT-72" x="250.146484"/>
     <use xlink:href="#ArialMT-65" x="283.447266"/>
     <use xlink:href="#ArialMT-6e" x="339.0625"/>
     <use xlink:href="#ArialMT-65" x="394.677734"/>
     <use xlink:href="#ArialMT-20" x="450.292969"/>
     <use xlink:href="#ArialMT-65" x="478.076172"/>
     <use xlink:href="#ArialMT-66" x="533.691406"/>
     <use xlink:href="#ArialMT-66" x="559.724609"/>
     <use xlink:href="#ArialMT-65" x="587.507812"/>
     <use xlink:href="#ArialMT-63" x="643.123047"/>
     <use xlink:href="#ArialMT-74" x="693.123047"/>
     <use xlink:href="#ArialMT-20" x="720.90625"/>
     <use xlink:href="#ArialMT-6f" x="748.689453"/>
     <use xlink:href="#ArialMT-6e" x="804.304688"/>
     <use xlink:href="#ArialMT-20" x="859.919922"/>
     <use xlink:href="#ArialMT-63" x="887.703125"/>
     <use xlink:href="#ArialMT-6f" x="937.703125"/>
     <use xlink:href="#ArialMT-6d" x="993.318359"/>
     <use xlink:href="#ArialMT-70" x="1076.619141"/>
     <use xlink:href="#ArialMT-6f" x="1132.234375"/>
     <use xlink:href="#ArialMT-75" x="1187.849609"/>
     <use xlink:href="#ArialMT-6e" x="1243.464844"/>
     <use xlink:href="#ArialMT-64" x="1299.080078"/>
     <use xlink:href="#ArialMT-73" x="1354.695312"/>
     <use xlink:href="#ArialMT-20" x="1404.695312"/>
     <use xlink:href="#ArialMT-61" x="1432.478516"/>
     <use xlink:href="#ArialMT-6e" x="1488.09375"/>
     <use xlink:href="#ArialMT-64" x="1543.708984"/>
     <use xlink:href="#ArialMT-20" x="1599.324219"/>
     <use xlink:href="#ArialMT-6d" x="1627.107422"/>
     <use xlink:href="#ArialMT-61" x="1710.408203"/>
     <use xlink:href="#ArialMT-74" x="1766.023438"/>
     <use xlink:href="#ArialMT-63" x="1793.806641"/>
     <use xlink:href="#ArialMT-68" x="1843.806641"/>
     <use xlink:href="#ArialMT-69" x="1899.421875"/>
     <use xlink:href="#ArialMT-6e" x="1921.638672"/>
     <use xlink:href="#ArialMT-67" x="1977.253906"/>
     <use xlink:href="#ArialMT-2d" x="2032.869141"/>
     <use xlink:href="#ArialMT-50" x="2066.169922"/>
     <use xlink:href="#ArialMT-65" x="2132.869141"/>
     <use xlink:href="#ArialMT-72" x="2188.484375"/>
     <use xlink:href="#ArialMT-63" x="2221.785156"/>
     <use xlink:href="#ArialMT-65" x="2271.785156"/>
     <use xlink:href="#ArialMT-6e" x="2327.400391"/>
     <use xlink:href="#ArialMT-74" x="2383.015625"/>
     <use xlink:href="#ArialMT-20" x="2410.798828"/>
     <use xlink:href="#ArialMT-52" x="2438.582031"/>
     <use xlink:href="#ArialMT-65" x="2510.798828"/>
     <use xlink:href="#ArialMT-70" x="2566.414062"/>
     <use xlink:href="#ArialMT-6c" x="2622.029297"/>
     <use xlink:href="#ArialMT-69" x="2644.246094"/>
     <use xlink:href="#ArialMT-63" x="2666.462891"/>
     <use xlink:href="#ArialMT-61" x="2716.462891"/>
     <use xlink:href="#ArialMT-74" x="2772.078125"/>
     <use xlink:href="#ArialMT-69" x="2799.861328"/>
     <use xlink:href="#ArialMT-6e" x="2822.078125"/>
     <use xlink:href="#ArialMT-67" x="2877.693359"/>
    </g>
   </g>
  </g>
 </g>
 <defs>
  <clipPath id="p9b8d5c388f">
   <rect x="112.142042" y="23.68275" width="212.483667" height="289.956"/>
  </clipPath>
 </defs>
</svg>
