<?xml version="1.0" encoding="utf-8" standalone="no"?>
<!DOCTYPE svg PUBLIC "-//W3C//DTD SVG 1.1//EN"
  "http://www.w3.org/Graphics/SVG/1.1/DTD/svg11.dtd">
<svg xmlns:xlink="http://www.w3.org/1999/xlink" width="1151.26122pt" height="341.588813pt" viewBox="0 0 1151.26122 341.588813" xmlns="http://www.w3.org/2000/svg" version="1.1">
 <metadata>
  <rdf:RDF xmlns:dc="http://purl.org/dc/elements/1.1/" xmlns:cc="http://creativecommons.org/ns#" xmlns:rdf="http://www.w3.org/1999/02/22-rdf-syntax-ns#">
   <cc:Work>
    <dc:type rdf:resource="http://purl.org/dc/dcmitype/StillImage"/>
    <dc:date>2023-05-12T09:47:59.706631</dc:date>
    <dc:format>image/svg+xml</dc:format>
    <dc:creator>
     <cc:Agent>
      <dc:title>Matplotlib v3.7.1, https://matplotlib.org/</dc:title>
     </cc:Agent>
    </dc:creator>
   </cc:Work>
  </rdf:RDF>
 </metadata>
 <defs>
  <style type="text/css">*{stroke-linejoin: round; stroke-linecap: butt}</style>
 </defs>
 <g id="figure_1">
  <g id="patch_1">
   <path d="M -0 341.588813 
L 1151.26122 341.588813 
L 1151.26122 0 
L -0 0 
z
" style="fill: #ffffff"/>
  </g>
  <g id="axes_1">
   <g id="patch_2">
    <path d="M 47.518875 296.84775 
L 369.89192 296.84775 
L 369.89192 23.69175 
L 47.518875 23.69175 
z
" style="fill: #ffffff"/>
   </g>
   <g id="matplotlib.axis_1">
    <g id="xtick_1">
     <g id="line2d_1">
      <defs>
       <path id="mc9eacd75fb" d="M 0 0 
L 0 4.8 
" style="stroke: #262626"/>
      </defs>
      <g>
       <use xlink:href="#mc9eacd75fb" x="87.815506" y="296.84775" style="fill: #262626; stroke: #262626"/>
      </g>
     </g>
     <g id="text_1">
      <!-- 24 -->
      <g style="fill: #262626" transform="translate(80.475068 314.596063) scale(0.132 -0.132)">
       <defs>
        <path id="ArialMT-32" d="M 3222 541 
L 3222 0 
L 194 0 
Q 188 203 259 391 
Q 375 700 629 1000 
Q 884 1300 1366 1694 
Q 2113 2306 2375 2664 
Q 2638 3022 2638 3341 
Q 2638 3675 2398 3904 
Q 2159 4134 1775 4134 
Q 1369 4134 1125 3890 
Q 881 3647 878 3216 
L 300 3275 
Q 359 3922 746 4261 
Q 1134 4600 1788 4600 
Q 2447 4600 2831 4234 
Q 3216 3869 3216 3328 
Q 3216 3053 3103 2787 
Q 2991 2522 2730 2228 
Q 2469 1934 1863 1422 
Q 1356 997 1212 845 
Q 1069 694 975 541 
L 3222 541 
z
" transform="scale(0.015625)"/>
        <path id="ArialMT-34" d="M 2069 0 
L 2069 1097 
L 81 1097 
L 81 1613 
L 2172 4581 
L 2631 4581 
L 2631 1613 
L 3250 1613 
L 3250 1097 
L 2631 1097 
L 2631 0 
L 2069 0 
z
M 2069 1613 
L 2069 3678 
L 634 1613 
L 2069 1613 
z
" transform="scale(0.015625)"/>
       </defs>
       <use xlink:href="#ArialMT-32"/>
       <use xlink:href="#ArialMT-34" x="55.615234"/>
      </g>
     </g>
    </g>
    <g id="xtick_2">
     <g id="line2d_2">
      <g>
       <use xlink:href="#mc9eacd75fb" x="168.408767" y="296.84775" style="fill: #262626; stroke: #262626"/>
      </g>
     </g>
     <g id="text_2">
      <!-- 48 -->
      <g style="fill: #262626" transform="translate(161.068329 314.596063) scale(0.132 -0.132)">
       <defs>
        <path id="ArialMT-38" d="M 1131 2484 
Q 781 2613 612 2850 
Q 444 3088 444 3419 
Q 444 3919 803 4259 
Q 1163 4600 1759 4600 
Q 2359 4600 2725 4251 
Q 3091 3903 3091 3403 
Q 3091 3084 2923 2848 
Q 2756 2613 2416 2484 
Q 2838 2347 3058 2040 
Q 3278 1734 3278 1309 
Q 3278 722 2862 322 
Q 2447 -78 1769 -78 
Q 1091 -78 675 323 
Q 259 725 259 1325 
Q 259 1772 486 2073 
Q 713 2375 1131 2484 
z
M 1019 3438 
Q 1019 3113 1228 2906 
Q 1438 2700 1772 2700 
Q 2097 2700 2305 2904 
Q 2513 3109 2513 3406 
Q 2513 3716 2298 3927 
Q 2084 4138 1766 4138 
Q 1444 4138 1231 3931 
Q 1019 3725 1019 3438 
z
M 838 1322 
Q 838 1081 952 856 
Q 1066 631 1291 507 
Q 1516 384 1775 384 
Q 2178 384 2440 643 
Q 2703 903 2703 1303 
Q 2703 1709 2433 1975 
Q 2163 2241 1756 2241 
Q 1359 2241 1098 1978 
Q 838 1716 838 1322 
z
" transform="scale(0.015625)"/>
       </defs>
       <use xlink:href="#ArialMT-34"/>
       <use xlink:href="#ArialMT-38" x="55.615234"/>
      </g>
     </g>
    </g>
    <g id="xtick_3">
     <g id="line2d_3">
      <g>
       <use xlink:href="#mc9eacd75fb" x="249.002028" y="296.84775" style="fill: #262626; stroke: #262626"/>
      </g>
     </g>
     <g id="text_3">
      <!-- 96 -->
      <g style="fill: #262626" transform="translate(241.661591 314.596063) scale(0.132 -0.132)">
       <defs>
        <path id="ArialMT-39" d="M 350 1059 
L 891 1109 
Q 959 728 1153 556 
Q 1347 384 1650 384 
Q 1909 384 2104 503 
Q 2300 622 2425 820 
Q 2550 1019 2634 1356 
Q 2719 1694 2719 2044 
Q 2719 2081 2716 2156 
Q 2547 1888 2255 1720 
Q 1963 1553 1622 1553 
Q 1053 1553 659 1965 
Q 266 2378 266 3053 
Q 266 3750 677 4175 
Q 1088 4600 1706 4600 
Q 2153 4600 2523 4359 
Q 2894 4119 3086 3673 
Q 3278 3228 3278 2384 
Q 3278 1506 3087 986 
Q 2897 466 2520 194 
Q 2144 -78 1638 -78 
Q 1100 -78 759 220 
Q 419 519 350 1059 
z
M 2653 3081 
Q 2653 3566 2395 3850 
Q 2138 4134 1775 4134 
Q 1400 4134 1122 3828 
Q 844 3522 844 3034 
Q 844 2597 1108 2323 
Q 1372 2050 1759 2050 
Q 2150 2050 2401 2323 
Q 2653 2597 2653 3081 
z
" transform="scale(0.015625)"/>
        <path id="ArialMT-36" d="M 3184 3459 
L 2625 3416 
Q 2550 3747 2413 3897 
Q 2184 4138 1850 4138 
Q 1581 4138 1378 3988 
Q 1113 3794 959 3422 
Q 806 3050 800 2363 
Q 1003 2672 1297 2822 
Q 1591 2972 1913 2972 
Q 2475 2972 2870 2558 
Q 3266 2144 3266 1488 
Q 3266 1056 3080 686 
Q 2894 316 2569 119 
Q 2244 -78 1831 -78 
Q 1128 -78 684 439 
Q 241 956 241 2144 
Q 241 3472 731 4075 
Q 1159 4600 1884 4600 
Q 2425 4600 2770 4297 
Q 3116 3994 3184 3459 
z
M 888 1484 
Q 888 1194 1011 928 
Q 1134 663 1356 523 
Q 1578 384 1822 384 
Q 2178 384 2434 671 
Q 2691 959 2691 1453 
Q 2691 1928 2437 2201 
Q 2184 2475 1800 2475 
Q 1419 2475 1153 2201 
Q 888 1928 888 1484 
z
" transform="scale(0.015625)"/>
       </defs>
       <use xlink:href="#ArialMT-39"/>
       <use xlink:href="#ArialMT-36" x="55.615234"/>
      </g>
     </g>
    </g>
    <g id="xtick_4">
     <g id="line2d_4">
      <g>
       <use xlink:href="#mc9eacd75fb" x="329.595289" y="296.84775" style="fill: #262626; stroke: #262626"/>
      </g>
     </g>
     <g id="text_4">
      <!-- 144 -->
      <g style="fill: #262626" transform="translate(318.584633 314.596063) scale(0.132 -0.132)">
       <defs>
        <path id="ArialMT-31" d="M 2384 0 
L 1822 0 
L 1822 3584 
Q 1619 3391 1289 3197 
Q 959 3003 697 2906 
L 697 3450 
Q 1169 3672 1522 3987 
Q 1875 4303 2022 4600 
L 2384 4600 
L 2384 0 
z
" transform="scale(0.015625)"/>
       </defs>
       <use xlink:href="#ArialMT-31"/>
       <use xlink:href="#ArialMT-34" x="55.615234"/>
       <use xlink:href="#ArialMT-34" x="111.230469"/>
      </g>
     </g>
    </g>
    <g id="text_5">
     <!-- Treatment timepoint -->
     <g style="fill: #262626" transform="translate(144.953897 331.526813) scale(0.144 -0.144)">
      <defs>
       <path id="ArialMT-54" d="M 1659 0 
L 1659 4041 
L 150 4041 
L 150 4581 
L 3781 4581 
L 3781 4041 
L 2266 4041 
L 2266 0 
L 1659 0 
z
" transform="scale(0.015625)"/>
       <path id="ArialMT-72" d="M 416 0 
L 416 3319 
L 922 3319 
L 922 2816 
Q 1116 3169 1280 3281 
Q 1444 3394 1641 3394 
Q 1925 3394 2219 3213 
L 2025 2691 
Q 1819 2813 1613 2813 
Q 1428 2813 1281 2702 
Q 1134 2591 1072 2394 
Q 978 2094 978 1738 
L 978 0 
L 416 0 
z
" transform="scale(0.015625)"/>
       <path id="ArialMT-65" d="M 2694 1069 
L 3275 997 
Q 3138 488 2766 206 
Q 2394 -75 1816 -75 
Q 1088 -75 661 373 
Q 234 822 234 1631 
Q 234 2469 665 2931 
Q 1097 3394 1784 3394 
Q 2450 3394 2872 2941 
Q 3294 2488 3294 1666 
Q 3294 1616 3291 1516 
L 816 1516 
Q 847 969 1125 678 
Q 1403 388 1819 388 
Q 2128 388 2347 550 
Q 2566 713 2694 1069 
z
M 847 1978 
L 2700 1978 
Q 2663 2397 2488 2606 
Q 2219 2931 1791 2931 
Q 1403 2931 1139 2672 
Q 875 2413 847 1978 
z
" transform="scale(0.015625)"/>
       <path id="ArialMT-61" d="M 2588 409 
Q 2275 144 1986 34 
Q 1697 -75 1366 -75 
Q 819 -75 525 192 
Q 231 459 231 875 
Q 231 1119 342 1320 
Q 453 1522 633 1644 
Q 813 1766 1038 1828 
Q 1203 1872 1538 1913 
Q 2219 1994 2541 2106 
Q 2544 2222 2544 2253 
Q 2544 2597 2384 2738 
Q 2169 2928 1744 2928 
Q 1347 2928 1158 2789 
Q 969 2650 878 2297 
L 328 2372 
Q 403 2725 575 2942 
Q 747 3159 1072 3276 
Q 1397 3394 1825 3394 
Q 2250 3394 2515 3294 
Q 2781 3194 2906 3042 
Q 3031 2891 3081 2659 
Q 3109 2516 3109 2141 
L 3109 1391 
Q 3109 606 3145 398 
Q 3181 191 3288 0 
L 2700 0 
Q 2613 175 2588 409 
z
M 2541 1666 
Q 2234 1541 1622 1453 
Q 1275 1403 1131 1340 
Q 988 1278 909 1158 
Q 831 1038 831 891 
Q 831 666 1001 516 
Q 1172 366 1500 366 
Q 1825 366 2078 508 
Q 2331 650 2450 897 
Q 2541 1088 2541 1459 
L 2541 1666 
z
" transform="scale(0.015625)"/>
       <path id="ArialMT-74" d="M 1650 503 
L 1731 6 
Q 1494 -44 1306 -44 
Q 1000 -44 831 53 
Q 663 150 594 308 
Q 525 466 525 972 
L 525 2881 
L 113 2881 
L 113 3319 
L 525 3319 
L 525 4141 
L 1084 4478 
L 1084 3319 
L 1650 3319 
L 1650 2881 
L 1084 2881 
L 1084 941 
Q 1084 700 1114 631 
Q 1144 563 1211 522 
Q 1278 481 1403 481 
Q 1497 481 1650 503 
z
" transform="scale(0.015625)"/>
       <path id="ArialMT-6d" d="M 422 0 
L 422 3319 
L 925 3319 
L 925 2853 
Q 1081 3097 1340 3245 
Q 1600 3394 1931 3394 
Q 2300 3394 2536 3241 
Q 2772 3088 2869 2813 
Q 3263 3394 3894 3394 
Q 4388 3394 4653 3120 
Q 4919 2847 4919 2278 
L 4919 0 
L 4359 0 
L 4359 2091 
Q 4359 2428 4304 2576 
Q 4250 2725 4106 2815 
Q 3963 2906 3769 2906 
Q 3419 2906 3187 2673 
Q 2956 2441 2956 1928 
L 2956 0 
L 2394 0 
L 2394 2156 
Q 2394 2531 2256 2718 
Q 2119 2906 1806 2906 
Q 1569 2906 1367 2781 
Q 1166 2656 1075 2415 
Q 984 2175 984 1722 
L 984 0 
L 422 0 
z
" transform="scale(0.015625)"/>
       <path id="ArialMT-6e" d="M 422 0 
L 422 3319 
L 928 3319 
L 928 2847 
Q 1294 3394 1984 3394 
Q 2284 3394 2536 3286 
Q 2788 3178 2913 3003 
Q 3038 2828 3088 2588 
Q 3119 2431 3119 2041 
L 3119 0 
L 2556 0 
L 2556 2019 
Q 2556 2363 2490 2533 
Q 2425 2703 2258 2804 
Q 2091 2906 1866 2906 
Q 1506 2906 1245 2678 
Q 984 2450 984 1813 
L 984 0 
L 422 0 
z
" transform="scale(0.015625)"/>
       <path id="ArialMT-20" transform="scale(0.015625)"/>
       <path id="ArialMT-69" d="M 425 3934 
L 425 4581 
L 988 4581 
L 988 3934 
L 425 3934 
z
M 425 0 
L 425 3319 
L 988 3319 
L 988 0 
L 425 0 
z
" transform="scale(0.015625)"/>
       <path id="ArialMT-70" d="M 422 -1272 
L 422 3319 
L 934 3319 
L 934 2888 
Q 1116 3141 1344 3267 
Q 1572 3394 1897 3394 
Q 2322 3394 2647 3175 
Q 2972 2956 3137 2557 
Q 3303 2159 3303 1684 
Q 3303 1175 3120 767 
Q 2938 359 2589 142 
Q 2241 -75 1856 -75 
Q 1575 -75 1351 44 
Q 1128 163 984 344 
L 984 -1272 
L 422 -1272 
z
M 931 1641 
Q 931 1000 1190 694 
Q 1450 388 1819 388 
Q 2194 388 2461 705 
Q 2728 1022 2728 1688 
Q 2728 2322 2467 2637 
Q 2206 2953 1844 2953 
Q 1484 2953 1207 2617 
Q 931 2281 931 1641 
z
" transform="scale(0.015625)"/>
       <path id="ArialMT-6f" d="M 213 1659 
Q 213 2581 725 3025 
Q 1153 3394 1769 3394 
Q 2453 3394 2887 2945 
Q 3322 2497 3322 1706 
Q 3322 1066 3130 698 
Q 2938 331 2570 128 
Q 2203 -75 1769 -75 
Q 1072 -75 642 372 
Q 213 819 213 1659 
z
M 791 1659 
Q 791 1022 1069 705 
Q 1347 388 1769 388 
Q 2188 388 2466 706 
Q 2744 1025 2744 1678 
Q 2744 2294 2464 2611 
Q 2184 2928 1769 2928 
Q 1347 2928 1069 2612 
Q 791 2297 791 1659 
z
" transform="scale(0.015625)"/>
      </defs>
      <use xlink:href="#ArialMT-54"/>
      <use xlink:href="#ArialMT-72" x="57.333984"/>
      <use xlink:href="#ArialMT-65" x="90.634766"/>
      <use xlink:href="#ArialMT-61" x="146.25"/>
      <use xlink:href="#ArialMT-74" x="201.865234"/>
      <use xlink:href="#ArialMT-6d" x="229.648438"/>
      <use xlink:href="#ArialMT-65" x="312.949219"/>
      <use xlink:href="#ArialMT-6e" x="368.564453"/>
      <use xlink:href="#ArialMT-74" x="424.179688"/>
      <use xlink:href="#ArialMT-20" x="451.962891"/>
      <use xlink:href="#ArialMT-74" x="479.746094"/>
      <use xlink:href="#ArialMT-69" x="507.529297"/>
      <use xlink:href="#ArialMT-6d" x="529.746094"/>
      <use xlink:href="#ArialMT-65" x="613.046875"/>
      <use xlink:href="#ArialMT-70" x="668.662109"/>
      <use xlink:href="#ArialMT-6f" x="724.277344"/>
      <use xlink:href="#ArialMT-69" x="779.892578"/>
      <use xlink:href="#ArialMT-6e" x="802.109375"/>
      <use xlink:href="#ArialMT-74" x="857.724609"/>
     </g>
    </g>
   </g>
   <g id="matplotlib.axis_2">
    <g id="ytick_1">
     <g id="line2d_5">
      <defs>
       <path id="m5a43333be0" d="M 0 0 
L -4.8 0 
" style="stroke: #262626"/>
      </defs>
      <g>
       <use xlink:href="#m5a43333be0" x="47.518875" y="286.706312" style="fill: #262626; stroke: #262626"/>
      </g>
     </g>
     <g id="text_6">
      <!-- 30 -->
      <g style="fill: #262626" transform="translate(24.538 291.430468) scale(0.132 -0.132)">
       <defs>
        <path id="ArialMT-33" d="M 269 1209 
L 831 1284 
Q 928 806 1161 595 
Q 1394 384 1728 384 
Q 2125 384 2398 659 
Q 2672 934 2672 1341 
Q 2672 1728 2419 1979 
Q 2166 2231 1775 2231 
Q 1616 2231 1378 2169 
L 1441 2663 
Q 1497 2656 1531 2656 
Q 1891 2656 2178 2843 
Q 2466 3031 2466 3422 
Q 2466 3731 2256 3934 
Q 2047 4138 1716 4138 
Q 1388 4138 1169 3931 
Q 950 3725 888 3313 
L 325 3413 
Q 428 3978 793 4289 
Q 1159 4600 1703 4600 
Q 2078 4600 2393 4439 
Q 2709 4278 2876 4000 
Q 3044 3722 3044 3409 
Q 3044 3113 2884 2869 
Q 2725 2625 2413 2481 
Q 2819 2388 3044 2092 
Q 3269 1797 3269 1353 
Q 3269 753 2831 336 
Q 2394 -81 1725 -81 
Q 1122 -81 723 278 
Q 325 638 269 1209 
z
" transform="scale(0.015625)"/>
        <path id="ArialMT-30" d="M 266 2259 
Q 266 3072 433 3567 
Q 600 4063 929 4331 
Q 1259 4600 1759 4600 
Q 2128 4600 2406 4451 
Q 2684 4303 2865 4023 
Q 3047 3744 3150 3342 
Q 3253 2941 3253 2259 
Q 3253 1453 3087 958 
Q 2922 463 2592 192 
Q 2263 -78 1759 -78 
Q 1097 -78 719 397 
Q 266 969 266 2259 
z
M 844 2259 
Q 844 1131 1108 757 
Q 1372 384 1759 384 
Q 2147 384 2411 759 
Q 2675 1134 2675 2259 
Q 2675 3391 2411 3762 
Q 2147 4134 1753 4134 
Q 1366 4134 1134 3806 
Q 844 3388 844 2259 
z
" transform="scale(0.015625)"/>
       </defs>
       <use xlink:href="#ArialMT-33"/>
       <use xlink:href="#ArialMT-30" x="55.615234"/>
      </g>
     </g>
    </g>
    <g id="ytick_2">
     <g id="line2d_6">
      <g>
       <use xlink:href="#m5a43333be0" x="47.518875" y="248.07226" style="fill: #262626; stroke: #262626"/>
      </g>
     </g>
     <g id="text_7">
      <!-- 40 -->
      <g style="fill: #262626" transform="translate(24.538 252.796416) scale(0.132 -0.132)">
       <use xlink:href="#ArialMT-34"/>
       <use xlink:href="#ArialMT-30" x="55.615234"/>
      </g>
     </g>
    </g>
    <g id="ytick_3">
     <g id="line2d_7">
      <g>
       <use xlink:href="#m5a43333be0" x="47.518875" y="209.438209" style="fill: #262626; stroke: #262626"/>
      </g>
     </g>
     <g id="text_8">
      <!-- 50 -->
      <g style="fill: #262626" transform="translate(24.538 214.162365) scale(0.132 -0.132)">
       <defs>
        <path id="ArialMT-35" d="M 266 1200 
L 856 1250 
Q 922 819 1161 601 
Q 1400 384 1738 384 
Q 2144 384 2425 690 
Q 2706 997 2706 1503 
Q 2706 1984 2436 2262 
Q 2166 2541 1728 2541 
Q 1456 2541 1237 2417 
Q 1019 2294 894 2097 
L 366 2166 
L 809 4519 
L 3088 4519 
L 3088 3981 
L 1259 3981 
L 1013 2750 
Q 1425 3038 1878 3038 
Q 2478 3038 2890 2622 
Q 3303 2206 3303 1553 
Q 3303 931 2941 478 
Q 2500 -78 1738 -78 
Q 1113 -78 717 272 
Q 322 622 266 1200 
z
" transform="scale(0.015625)"/>
       </defs>
       <use xlink:href="#ArialMT-35"/>
       <use xlink:href="#ArialMT-30" x="55.615234"/>
      </g>
     </g>
    </g>
    <g id="ytick_4">
     <g id="line2d_8">
      <g>
       <use xlink:href="#m5a43333be0" x="47.518875" y="170.804157" style="fill: #262626; stroke: #262626"/>
      </g>
     </g>
     <g id="text_9">
      <!-- 60 -->
      <g style="fill: #262626" transform="translate(24.538 175.528314) scale(0.132 -0.132)">
       <use xlink:href="#ArialMT-36"/>
       <use xlink:href="#ArialMT-30" x="55.615234"/>
      </g>
     </g>
    </g>
    <g id="ytick_5">
     <g id="line2d_9">
      <g>
       <use xlink:href="#m5a43333be0" x="47.518875" y="132.170106" style="fill: #262626; stroke: #262626"/>
      </g>
     </g>
     <g id="text_10">
      <!-- 70 -->
      <g style="fill: #262626" transform="translate(24.538 136.894262) scale(0.132 -0.132)">
       <defs>
        <path id="ArialMT-37" d="M 303 3981 
L 303 4522 
L 3269 4522 
L 3269 4084 
Q 2831 3619 2401 2847 
Q 1972 2075 1738 1259 
Q 1569 684 1522 0 
L 944 0 
Q 953 541 1156 1306 
Q 1359 2072 1739 2783 
Q 2119 3494 2547 3981 
L 303 3981 
z
" transform="scale(0.015625)"/>
       </defs>
       <use xlink:href="#ArialMT-37"/>
       <use xlink:href="#ArialMT-30" x="55.615234"/>
      </g>
     </g>
    </g>
    <g id="ytick_6">
     <g id="line2d_10">
      <g>
       <use xlink:href="#m5a43333be0" x="47.518875" y="93.536055" style="fill: #262626; stroke: #262626"/>
      </g>
     </g>
     <g id="text_11">
      <!-- 80 -->
      <g style="fill: #262626" transform="translate(24.538 98.260211) scale(0.132 -0.132)">
       <use xlink:href="#ArialMT-38"/>
       <use xlink:href="#ArialMT-30" x="55.615234"/>
      </g>
     </g>
    </g>
    <g id="ytick_7">
     <g id="line2d_11">
      <g>
       <use xlink:href="#m5a43333be0" x="47.518875" y="54.902003" style="fill: #262626; stroke: #262626"/>
      </g>
     </g>
     <g id="text_12">
      <!-- 90 -->
      <g style="fill: #262626" transform="translate(24.538 59.62616) scale(0.132 -0.132)">
       <use xlink:href="#ArialMT-39"/>
       <use xlink:href="#ArialMT-30" x="55.615234"/>
      </g>
     </g>
    </g>
    <g id="text_13">
     <!-- Percent Replicating -->
     <g style="fill: #262626" transform="translate(17.50725 222.7005) rotate(-90) scale(0.144 -0.144)">
      <defs>
       <path id="ArialMT-50" d="M 494 0 
L 494 4581 
L 2222 4581 
Q 2678 4581 2919 4538 
Q 3256 4481 3484 4323 
Q 3713 4166 3852 3881 
Q 3991 3597 3991 3256 
Q 3991 2672 3619 2267 
Q 3247 1863 2275 1863 
L 1100 1863 
L 1100 0 
L 494 0 
z
M 1100 2403 
L 2284 2403 
Q 2872 2403 3119 2622 
Q 3366 2841 3366 3238 
Q 3366 3525 3220 3729 
Q 3075 3934 2838 4000 
Q 2684 4041 2272 4041 
L 1100 4041 
L 1100 2403 
z
" transform="scale(0.015625)"/>
       <path id="ArialMT-63" d="M 2588 1216 
L 3141 1144 
Q 3050 572 2676 248 
Q 2303 -75 1759 -75 
Q 1078 -75 664 370 
Q 250 816 250 1647 
Q 250 2184 428 2587 
Q 606 2991 970 3192 
Q 1334 3394 1763 3394 
Q 2303 3394 2647 3120 
Q 2991 2847 3088 2344 
L 2541 2259 
Q 2463 2594 2264 2762 
Q 2066 2931 1784 2931 
Q 1359 2931 1093 2626 
Q 828 2322 828 1663 
Q 828 994 1084 691 
Q 1341 388 1753 388 
Q 2084 388 2306 591 
Q 2528 794 2588 1216 
z
" transform="scale(0.015625)"/>
       <path id="ArialMT-52" d="M 503 0 
L 503 4581 
L 2534 4581 
Q 3147 4581 3465 4457 
Q 3784 4334 3975 4021 
Q 4166 3709 4166 3331 
Q 4166 2844 3850 2509 
Q 3534 2175 2875 2084 
Q 3116 1969 3241 1856 
Q 3506 1613 3744 1247 
L 4541 0 
L 3778 0 
L 3172 953 
Q 2906 1366 2734 1584 
Q 2563 1803 2427 1890 
Q 2291 1978 2150 2013 
Q 2047 2034 1813 2034 
L 1109 2034 
L 1109 0 
L 503 0 
z
M 1109 2559 
L 2413 2559 
Q 2828 2559 3062 2645 
Q 3297 2731 3419 2920 
Q 3541 3109 3541 3331 
Q 3541 3656 3305 3865 
Q 3069 4075 2559 4075 
L 1109 4075 
L 1109 2559 
z
" transform="scale(0.015625)"/>
       <path id="ArialMT-6c" d="M 409 0 
L 409 4581 
L 972 4581 
L 972 0 
L 409 0 
z
" transform="scale(0.015625)"/>
       <path id="ArialMT-67" d="M 319 -275 
L 866 -356 
Q 900 -609 1056 -725 
Q 1266 -881 1628 -881 
Q 2019 -881 2231 -725 
Q 2444 -569 2519 -288 
Q 2563 -116 2559 434 
Q 2191 0 1641 0 
Q 956 0 581 494 
Q 206 988 206 1678 
Q 206 2153 378 2554 
Q 550 2956 876 3175 
Q 1203 3394 1644 3394 
Q 2231 3394 2613 2919 
L 2613 3319 
L 3131 3319 
L 3131 450 
Q 3131 -325 2973 -648 
Q 2816 -972 2473 -1159 
Q 2131 -1347 1631 -1347 
Q 1038 -1347 672 -1080 
Q 306 -813 319 -275 
z
M 784 1719 
Q 784 1066 1043 766 
Q 1303 466 1694 466 
Q 2081 466 2343 764 
Q 2606 1063 2606 1700 
Q 2606 2309 2336 2618 
Q 2066 2928 1684 2928 
Q 1309 2928 1046 2623 
Q 784 2319 784 1719 
z
" transform="scale(0.015625)"/>
      </defs>
      <use xlink:href="#ArialMT-50"/>
      <use xlink:href="#ArialMT-65" x="66.699219"/>
      <use xlink:href="#ArialMT-72" x="122.314453"/>
      <use xlink:href="#ArialMT-63" x="155.615234"/>
      <use xlink:href="#ArialMT-65" x="205.615234"/>
      <use xlink:href="#ArialMT-6e" x="261.230469"/>
      <use xlink:href="#ArialMT-74" x="316.845703"/>
      <use xlink:href="#ArialMT-20" x="344.628906"/>
      <use xlink:href="#ArialMT-52" x="372.412109"/>
      <use xlink:href="#ArialMT-65" x="444.628906"/>
      <use xlink:href="#ArialMT-70" x="500.244141"/>
      <use xlink:href="#ArialMT-6c" x="555.859375"/>
      <use xlink:href="#ArialMT-69" x="578.076172"/>
      <use xlink:href="#ArialMT-63" x="600.292969"/>
      <use xlink:href="#ArialMT-61" x="650.292969"/>
      <use xlink:href="#ArialMT-74" x="705.908203"/>
      <use xlink:href="#ArialMT-69" x="733.691406"/>
      <use xlink:href="#ArialMT-6e" x="755.908203"/>
      <use xlink:href="#ArialMT-67" x="811.523438"/>
     </g>
    </g>
   </g>
   <g id="patch_3">
    <path d="M 47.518875 296.84775 
L 47.518875 23.69175 
" style="fill: none; stroke: #262626; stroke-linejoin: miter; stroke-linecap: square"/>
   </g>
   <g id="patch_4">
    <path d="M 47.518875 296.84775 
L 369.89192 296.84775 
" style="fill: none; stroke: #262626; stroke-linejoin: miter; stroke-linecap: square"/>
   </g>
   <g id="PathCollection_1">
    <defs>
     <path id="mdf40dd0fe2" d="M 0 4.472136 
C 1.186024 4.472136 2.323632 4.000923 3.162278 3.162278 
C 4.000923 2.323632 4.472136 1.186024 4.472136 0 
C 4.472136 -1.186024 4.000923 -2.323632 3.162278 -3.162278 
C 2.323632 -4.000923 1.186024 -4.472136 0 -4.472136 
C -1.186024 -4.472136 -2.323632 -4.000923 -3.162278 -3.162278 
C -4.000923 -2.323632 -4.472136 -1.186024 -4.472136 0 
C -4.472136 1.186024 -4.000923 2.323632 -3.162278 3.162278 
C -2.323632 4.000923 -1.186024 4.472136 0 4.472136 
z
" style="stroke: #4c4c4c; stroke-opacity: 0.8"/>
    </defs>
    <g clip-path="url(#p222a8968f4)">
     <use xlink:href="#mdf40dd0fe2" x="71.696853" y="68.032531" style="fill: #e41a1c; fill-opacity: 0.8; stroke: #4c4c4c; stroke-opacity: 0.8"/>
    </g>
   </g>
   <g id="PathCollection_2">
    <defs>
     <path id="mf3bdcd6dab" d="M 0 4.472136 
C 1.186024 4.472136 2.323632 4.000923 3.162278 3.162278 
C 4.000923 2.323632 4.472136 1.186024 4.472136 0 
C 4.472136 -1.186024 4.000923 -2.323632 3.162278 -3.162278 
C 2.323632 -4.000923 1.186024 -4.472136 0 -4.472136 
C -1.186024 -4.472136 -2.323632 -4.000923 -3.162278 -3.162278 
C -4.000923 -2.323632 -4.472136 -1.186024 -4.472136 0 
C -4.472136 1.186024 -4.000923 2.323632 -3.162278 3.162278 
C -2.323632 4.000923 -1.186024 4.472136 0 4.472136 
z
" style="stroke: #484848; stroke-opacity: 0.8"/>
    </defs>
    <g clip-path="url(#p222a8968f4)">
     <use xlink:href="#mf3bdcd6dab" x="103.934158" y="100.858849" style="fill: #377eb8; fill-opacity: 0.8; stroke: #484848; stroke-opacity: 0.8"/>
    </g>
   </g>
   <g id="PathCollection_3">
    <g clip-path="url(#p222a8968f4)">
     <use xlink:href="#mdf40dd0fe2" x="152.290115" y="31.41856" style="fill: #e41a1c; fill-opacity: 0.8; stroke: #4c4c4c; stroke-opacity: 0.8"/>
    </g>
   </g>
   <g id="PathCollection_4">
    <g clip-path="url(#p222a8968f4)">
     <use xlink:href="#mf3bdcd6dab" x="184.527419" y="95.808646" style="fill: #377eb8; fill-opacity: 0.8; stroke: #484848; stroke-opacity: 0.8"/>
    </g>
   </g>
   <g id="PathCollection_5">
    <path d="M 0 346.060948 
C 1.186024 346.060948 2.323632 345.589736 3.162278 344.75109 
C 4.000923 343.912444 4.472136 342.774837 4.472136 341.588813 
C 4.472136 340.402788 4.000923 339.265181 3.162278 338.426535 
C 2.323632 337.587889 1.186024 337.116677 0 337.116677 
C -1.186024 337.116677 -2.323632 337.587889 -3.162278 338.426535 
C -4.000923 339.265181 -4.472136 340.402788 -4.472136 341.588813 
C -4.472136 342.774837 -4.000923 343.912444 -3.162278 344.75109 
C -2.323632 345.589736 -1.186024 346.060948 0 346.060948 
" clip-path="url(#p222a8968f4)" style="fill: none; stroke: #ffffff; stroke-opacity: 0.8"/>
   </g>
   <g id="PathCollection_6">
    <path d="M 0 346.060948 
C 1.186024 346.060948 2.323632 345.589736 3.162278 344.75109 
C 4.000923 343.912444 4.472136 342.774837 4.472136 341.588813 
C 4.472136 340.402788 4.000923 339.265181 3.162278 338.426535 
C 2.323632 337.587889 1.186024 337.116677 0 337.116677 
C -1.186024 337.116677 -2.323632 337.587889 -3.162278 338.426535 
C -4.000923 339.265181 -4.472136 340.402788 -4.472136 341.588813 
C -4.472136 342.774837 -4.000923 343.912444 -3.162278 344.75109 
C -2.323632 345.589736 -1.186024 346.060948 0 346.060948 
" clip-path="url(#p222a8968f4)" style="fill: none; stroke: #ffffff; stroke-opacity: 0.8"/>
   </g>
   <g id="PathCollection_7">
    <path d="M 0 346.060948 
C 1.186024 346.060948 2.323632 345.589736 3.162278 344.75109 
C 4.000923 343.912444 4.472136 342.774837 4.472136 341.588813 
C 4.472136 340.402788 4.000923 339.265181 3.162278 338.426535 
C 2.323632 337.587889 1.186024 337.116677 0 337.116677 
C -1.186024 337.116677 -2.323632 337.587889 -3.162278 338.426535 
C -4.000923 339.265181 -4.472136 340.402788 -4.472136 341.588813 
C -4.472136 342.774837 -4.000923 343.912444 -3.162278 344.75109 
C -2.323632 345.589736 -1.186024 346.060948 0 346.060948 
" clip-path="url(#p222a8968f4)" style="fill: none; stroke: #ffffff; stroke-opacity: 0.8"/>
   </g>
   <g id="PathCollection_8">
    <path d="M 0 346.060948 
C 1.186024 346.060948 2.323632 345.589736 3.162278 344.75109 
C 4.000923 343.912444 4.472136 342.774837 4.472136 341.588813 
C 4.472136 340.402788 4.000923 339.265181 3.162278 338.426535 
C 2.323632 337.587889 1.186024 337.116677 0 337.116677 
C -1.186024 337.116677 -2.323632 337.587889 -3.162278 338.426535 
C -4.000923 339.265181 -4.472136 340.402788 -4.472136 341.588813 
C -4.472136 342.774837 -4.000923 343.912444 -3.162278 344.75109 
C -2.323632 345.589736 -1.186024 346.060948 0 346.060948 
" clip-path="url(#p222a8968f4)" style="fill: none; stroke: #ffffff; stroke-opacity: 0.8"/>
   </g>
   <g id="text_14">
    <!-- Modality = Compounds -->
    <g style="fill: #262626" transform="translate(134.870522 17.69175) scale(0.144 -0.144)">
     <defs>
      <path id="ArialMT-4d" d="M 475 0 
L 475 4581 
L 1388 4581 
L 2472 1338 
Q 2622 884 2691 659 
Q 2769 909 2934 1394 
L 4031 4581 
L 4847 4581 
L 4847 0 
L 4263 0 
L 4263 3834 
L 2931 0 
L 2384 0 
L 1059 3900 
L 1059 0 
L 475 0 
z
" transform="scale(0.015625)"/>
      <path id="ArialMT-64" d="M 2575 0 
L 2575 419 
Q 2259 -75 1647 -75 
Q 1250 -75 917 144 
Q 584 363 401 755 
Q 219 1147 219 1656 
Q 219 2153 384 2558 
Q 550 2963 881 3178 
Q 1213 3394 1622 3394 
Q 1922 3394 2156 3267 
Q 2391 3141 2538 2938 
L 2538 4581 
L 3097 4581 
L 3097 0 
L 2575 0 
z
M 797 1656 
Q 797 1019 1065 703 
Q 1334 388 1700 388 
Q 2069 388 2326 689 
Q 2584 991 2584 1609 
Q 2584 2291 2321 2609 
Q 2059 2928 1675 2928 
Q 1300 2928 1048 2622 
Q 797 2316 797 1656 
z
" transform="scale(0.015625)"/>
      <path id="ArialMT-79" d="M 397 -1278 
L 334 -750 
Q 519 -800 656 -800 
Q 844 -800 956 -737 
Q 1069 -675 1141 -563 
Q 1194 -478 1313 -144 
Q 1328 -97 1363 -6 
L 103 3319 
L 709 3319 
L 1400 1397 
Q 1534 1031 1641 628 
Q 1738 1016 1872 1384 
L 2581 3319 
L 3144 3319 
L 1881 -56 
Q 1678 -603 1566 -809 
Q 1416 -1088 1222 -1217 
Q 1028 -1347 759 -1347 
Q 597 -1347 397 -1278 
z
" transform="scale(0.015625)"/>
      <path id="ArialMT-3d" d="M 3381 2694 
L 356 2694 
L 356 3219 
L 3381 3219 
L 3381 2694 
z
M 3381 1303 
L 356 1303 
L 356 1828 
L 3381 1828 
L 3381 1303 
z
" transform="scale(0.015625)"/>
      <path id="ArialMT-43" d="M 3763 1606 
L 4369 1453 
Q 4178 706 3683 314 
Q 3188 -78 2472 -78 
Q 1731 -78 1267 223 
Q 803 525 561 1097 
Q 319 1669 319 2325 
Q 319 3041 592 3573 
Q 866 4106 1370 4382 
Q 1875 4659 2481 4659 
Q 3169 4659 3637 4309 
Q 4106 3959 4291 3325 
L 3694 3184 
Q 3534 3684 3231 3912 
Q 2928 4141 2469 4141 
Q 1941 4141 1586 3887 
Q 1231 3634 1087 3207 
Q 944 2781 944 2328 
Q 944 1744 1114 1308 
Q 1284 872 1643 656 
Q 2003 441 2422 441 
Q 2931 441 3284 734 
Q 3638 1028 3763 1606 
z
" transform="scale(0.015625)"/>
      <path id="ArialMT-75" d="M 2597 0 
L 2597 488 
Q 2209 -75 1544 -75 
Q 1250 -75 995 37 
Q 741 150 617 320 
Q 494 491 444 738 
Q 409 903 409 1263 
L 409 3319 
L 972 3319 
L 972 1478 
Q 972 1038 1006 884 
Q 1059 663 1231 536 
Q 1403 409 1656 409 
Q 1909 409 2131 539 
Q 2353 669 2445 892 
Q 2538 1116 2538 1541 
L 2538 3319 
L 3100 3319 
L 3100 0 
L 2597 0 
z
" transform="scale(0.015625)"/>
      <path id="ArialMT-73" d="M 197 991 
L 753 1078 
Q 800 744 1014 566 
Q 1228 388 1613 388 
Q 2000 388 2187 545 
Q 2375 703 2375 916 
Q 2375 1106 2209 1216 
Q 2094 1291 1634 1406 
Q 1016 1563 777 1677 
Q 538 1791 414 1992 
Q 291 2194 291 2438 
Q 291 2659 392 2848 
Q 494 3038 669 3163 
Q 800 3259 1026 3326 
Q 1253 3394 1513 3394 
Q 1903 3394 2198 3281 
Q 2494 3169 2634 2976 
Q 2775 2784 2828 2463 
L 2278 2388 
Q 2241 2644 2061 2787 
Q 1881 2931 1553 2931 
Q 1166 2931 1000 2803 
Q 834 2675 834 2503 
Q 834 2394 903 2306 
Q 972 2216 1119 2156 
Q 1203 2125 1616 2013 
Q 2213 1853 2448 1751 
Q 2684 1650 2818 1456 
Q 2953 1263 2953 975 
Q 2953 694 2789 445 
Q 2625 197 2315 61 
Q 2006 -75 1616 -75 
Q 969 -75 630 194 
Q 291 463 197 991 
z
" transform="scale(0.015625)"/>
     </defs>
     <use xlink:href="#ArialMT-4d"/>
     <use xlink:href="#ArialMT-6f" x="83.300781"/>
     <use xlink:href="#ArialMT-64" x="138.916016"/>
     <use xlink:href="#ArialMT-61" x="194.53125"/>
     <use xlink:href="#ArialMT-6c" x="250.146484"/>
     <use xlink:href="#ArialMT-69" x="272.363281"/>
     <use xlink:href="#ArialMT-74" x="294.580078"/>
     <use xlink:href="#ArialMT-79" x="322.363281"/>
     <use xlink:href="#ArialMT-20" x="372.363281"/>
     <use xlink:href="#ArialMT-3d" x="400.146484"/>
     <use xlink:href="#ArialMT-20" x="458.544922"/>
     <use xlink:href="#ArialMT-43" x="486.328125"/>
     <use xlink:href="#ArialMT-6f" x="558.544922"/>
     <use xlink:href="#ArialMT-6d" x="614.160156"/>
     <use xlink:href="#ArialMT-70" x="697.460938"/>
     <use xlink:href="#ArialMT-6f" x="753.076172"/>
     <use xlink:href="#ArialMT-75" x="808.691406"/>
     <use xlink:href="#ArialMT-6e" x="864.306641"/>
     <use xlink:href="#ArialMT-64" x="919.921875"/>
     <use xlink:href="#ArialMT-73" x="975.537109"/>
    </g>
   </g>
  </g>
  <g id="axes_2">
   <g id="patch_5">
    <path d="M 390.235025 296.84775 
L 712.60807 296.84775 
L 712.60807 23.69175 
L 390.235025 23.69175 
z
" style="fill: #ffffff"/>
   </g>
   <g id="matplotlib.axis_3">
    <g id="xtick_5">
     <g id="line2d_12">
      <g>
       <use xlink:href="#mc9eacd75fb" x="430.531656" y="296.84775" style="fill: #262626; stroke: #262626"/>
      </g>
     </g>
     <g id="text_15">
      <!-- 24 -->
      <g style="fill: #262626" transform="translate(423.191218 314.596063) scale(0.132 -0.132)">
       <use xlink:href="#ArialMT-32"/>
       <use xlink:href="#ArialMT-34" x="55.615234"/>
      </g>
     </g>
    </g>
    <g id="xtick_6">
     <g id="line2d_13">
      <g>
       <use xlink:href="#mc9eacd75fb" x="511.124917" y="296.84775" style="fill: #262626; stroke: #262626"/>
      </g>
     </g>
     <g id="text_16">
      <!-- 48 -->
      <g style="fill: #262626" transform="translate(503.784479 314.596063) scale(0.132 -0.132)">
       <use xlink:href="#ArialMT-34"/>
       <use xlink:href="#ArialMT-38" x="55.615234"/>
      </g>
     </g>
    </g>
    <g id="xtick_7">
     <g id="line2d_14">
      <g>
       <use xlink:href="#mc9eacd75fb" x="591.718178" y="296.84775" style="fill: #262626; stroke: #262626"/>
      </g>
     </g>
     <g id="text_17">
      <!-- 96 -->
      <g style="fill: #262626" transform="translate(584.377741 314.596063) scale(0.132 -0.132)">
       <use xlink:href="#ArialMT-39"/>
       <use xlink:href="#ArialMT-36" x="55.615234"/>
      </g>
     </g>
    </g>
    <g id="xtick_8">
     <g id="line2d_15">
      <g>
       <use xlink:href="#mc9eacd75fb" x="672.311439" y="296.84775" style="fill: #262626; stroke: #262626"/>
      </g>
     </g>
     <g id="text_18">
      <!-- 144 -->
      <g style="fill: #262626" transform="translate(661.300783 314.596063) scale(0.132 -0.132)">
       <use xlink:href="#ArialMT-31"/>
       <use xlink:href="#ArialMT-34" x="55.615234"/>
       <use xlink:href="#ArialMT-34" x="111.230469"/>
      </g>
     </g>
    </g>
    <g id="text_19">
     <!-- Treatment timepoint -->
     <g style="fill: #262626" transform="translate(487.670048 331.526813) scale(0.144 -0.144)">
      <use xlink:href="#ArialMT-54"/>
      <use xlink:href="#ArialMT-72" x="57.333984"/>
      <use xlink:href="#ArialMT-65" x="90.634766"/>
      <use xlink:href="#ArialMT-61" x="146.25"/>
      <use xlink:href="#ArialMT-74" x="201.865234"/>
      <use xlink:href="#ArialMT-6d" x="229.648438"/>
      <use xlink:href="#ArialMT-65" x="312.949219"/>
      <use xlink:href="#ArialMT-6e" x="368.564453"/>
      <use xlink:href="#ArialMT-74" x="424.179688"/>
      <use xlink:href="#ArialMT-20" x="451.962891"/>
      <use xlink:href="#ArialMT-74" x="479.746094"/>
      <use xlink:href="#ArialMT-69" x="507.529297"/>
      <use xlink:href="#ArialMT-6d" x="529.746094"/>
      <use xlink:href="#ArialMT-65" x="613.046875"/>
      <use xlink:href="#ArialMT-70" x="668.662109"/>
      <use xlink:href="#ArialMT-6f" x="724.277344"/>
      <use xlink:href="#ArialMT-69" x="779.892578"/>
      <use xlink:href="#ArialMT-6e" x="802.109375"/>
      <use xlink:href="#ArialMT-74" x="857.724609"/>
     </g>
    </g>
   </g>
   <g id="matplotlib.axis_4">
    <g id="ytick_8">
     <g id="line2d_16">
      <g>
       <use xlink:href="#m5a43333be0" x="390.235025" y="286.706312" style="fill: #262626; stroke: #262626"/>
      </g>
     </g>
    </g>
    <g id="ytick_9">
     <g id="line2d_17">
      <g>
       <use xlink:href="#m5a43333be0" x="390.235025" y="248.07226" style="fill: #262626; stroke: #262626"/>
      </g>
     </g>
    </g>
    <g id="ytick_10">
     <g id="line2d_18">
      <g>
       <use xlink:href="#m5a43333be0" x="390.235025" y="209.438209" style="fill: #262626; stroke: #262626"/>
      </g>
     </g>
    </g>
    <g id="ytick_11">
     <g id="line2d_19">
      <g>
       <use xlink:href="#m5a43333be0" x="390.235025" y="170.804157" style="fill: #262626; stroke: #262626"/>
      </g>
     </g>
    </g>
    <g id="ytick_12">
     <g id="line2d_20">
      <g>
       <use xlink:href="#m5a43333be0" x="390.235025" y="132.170106" style="fill: #262626; stroke: #262626"/>
      </g>
     </g>
    </g>
    <g id="ytick_13">
     <g id="line2d_21">
      <g>
       <use xlink:href="#m5a43333be0" x="390.235025" y="93.536055" style="fill: #262626; stroke: #262626"/>
      </g>
     </g>
    </g>
    <g id="ytick_14">
     <g id="line2d_22">
      <g>
       <use xlink:href="#m5a43333be0" x="390.235025" y="54.902003" style="fill: #262626; stroke: #262626"/>
      </g>
     </g>
    </g>
   </g>
   <g id="patch_6">
    <path d="M 390.235025 296.84775 
L 390.235025 23.69175 
" style="fill: none; stroke: #262626; stroke-linejoin: miter; stroke-linecap: square"/>
   </g>
   <g id="patch_7">
    <path d="M 390.235025 296.84775 
L 712.60807 296.84775 
" style="fill: none; stroke: #262626; stroke-linejoin: miter; stroke-linecap: square"/>
   </g>
   <g id="PathCollection_9">
    <path d="M 0 346.060948 
C 1.186024 346.060948 2.323632 345.589736 3.162278 344.75109 
C 4.000923 343.912444 4.472136 342.774837 4.472136 341.588813 
C 4.472136 340.402788 4.000923 339.265181 3.162278 338.426535 
C 2.323632 337.587889 1.186024 337.116677 0 337.116677 
C -1.186024 337.116677 -2.323632 337.587889 -3.162278 338.426535 
C -4.000923 339.265181 -4.472136 340.402788 -4.472136 341.588813 
C -4.472136 342.774837 -4.000923 343.912444 -3.162278 344.75109 
C -2.323632 345.589736 -1.186024 346.060948 0 346.060948 
" clip-path="url(#p5c38ca6a78)" style="fill: none; stroke: #ffffff; stroke-opacity: 0.8"/>
   </g>
   <g id="PathCollection_10">
    <path d="M 0 346.060948 
C 1.186024 346.060948 2.323632 345.589736 3.162278 344.75109 
C 4.000923 343.912444 4.472136 342.774837 4.472136 341.588813 
C 4.472136 340.402788 4.000923 339.265181 3.162278 338.426535 
C 2.323632 337.587889 1.186024 337.116677 0 337.116677 
C -1.186024 337.116677 -2.323632 337.587889 -3.162278 338.426535 
C -4.000923 339.265181 -4.472136 340.402788 -4.472136 341.588813 
C -4.472136 342.774837 -4.000923 343.912444 -3.162278 344.75109 
C -2.323632 345.589736 -1.186024 346.060948 0 346.060948 
" clip-path="url(#p5c38ca6a78)" style="fill: none; stroke: #ffffff; stroke-opacity: 0.8"/>
   </g>
   <g id="PathCollection_11">
    <g clip-path="url(#p5c38ca6a78)">
     <use xlink:href="#mdf40dd0fe2" x="495.006265" y="289.12094" style="fill: #e41a1c; fill-opacity: 0.8; stroke: #4c4c4c; stroke-opacity: 0.8"/>
    </g>
   </g>
   <g id="PathCollection_12">
    <g clip-path="url(#p5c38ca6a78)">
     <use xlink:href="#mf3bdcd6dab" x="527.243569" y="204.608952" style="fill: #377eb8; fill-opacity: 0.8; stroke: #484848; stroke-opacity: 0.8"/>
    </g>
   </g>
   <g id="PathCollection_13">
    <g clip-path="url(#p5c38ca6a78)">
     <use xlink:href="#mdf40dd0fe2" x="575.599526" y="281.877055" style="fill: #e41a1c; fill-opacity: 0.8; stroke: #4c4c4c; stroke-opacity: 0.8"/>
    </g>
   </g>
   <g id="PathCollection_14">
    <g clip-path="url(#p5c38ca6a78)">
     <use xlink:href="#mf3bdcd6dab" x="607.83683" y="226.340606" style="fill: #377eb8; fill-opacity: 0.8; stroke: #484848; stroke-opacity: 0.8"/>
    </g>
   </g>
   <g id="PathCollection_15">
    <path d="M 0 346.060948 
C 1.186024 346.060948 2.323632 345.589736 3.162278 344.75109 
C 4.000923 343.912444 4.472136 342.774837 4.472136 341.588813 
C 4.472136 340.402788 4.000923 339.265181 3.162278 338.426535 
C 2.323632 337.587889 1.186024 337.116677 0 337.116677 
C -1.186024 337.116677 -2.323632 337.587889 -3.162278 338.426535 
C -4.000923 339.265181 -4.472136 340.402788 -4.472136 341.588813 
C -4.472136 342.774837 -4.000923 343.912444 -3.162278 344.75109 
C -2.323632 345.589736 -1.186024 346.060948 0 346.060948 
" clip-path="url(#p5c38ca6a78)" style="fill: none; stroke: #ffffff; stroke-opacity: 0.8"/>
   </g>
   <g id="PathCollection_16">
    <path d="M 0 346.060948 
C 1.186024 346.060948 2.323632 345.589736 3.162278 344.75109 
C 4.000923 343.912444 4.472136 342.774837 4.472136 341.588813 
C 4.472136 340.402788 4.000923 339.265181 3.162278 338.426535 
C 2.323632 337.587889 1.186024 337.116677 0 337.116677 
C -1.186024 337.116677 -2.323632 337.587889 -3.162278 338.426535 
C -4.000923 339.265181 -4.472136 340.402788 -4.472136 341.588813 
C -4.472136 342.774837 -4.000923 343.912444 -3.162278 344.75109 
C -2.323632 345.589736 -1.186024 346.060948 0 346.060948 
" clip-path="url(#p5c38ca6a78)" style="fill: none; stroke: #ffffff; stroke-opacity: 0.8"/>
   </g>
   <g id="text_20">
    <!-- Modality = ORF -->
    <g style="fill: #262626" transform="translate(501.209423 17.69175) scale(0.144 -0.144)">
     <defs>
      <path id="ArialMT-4f" d="M 309 2231 
Q 309 3372 921 4017 
Q 1534 4663 2503 4663 
Q 3138 4663 3647 4359 
Q 4156 4056 4423 3514 
Q 4691 2972 4691 2284 
Q 4691 1588 4409 1038 
Q 4128 488 3612 205 
Q 3097 -78 2500 -78 
Q 1853 -78 1343 234 
Q 834 547 571 1087 
Q 309 1628 309 2231 
z
M 934 2222 
Q 934 1394 1379 917 
Q 1825 441 2497 441 
Q 3181 441 3623 922 
Q 4066 1403 4066 2288 
Q 4066 2847 3877 3264 
Q 3688 3681 3323 3911 
Q 2959 4141 2506 4141 
Q 1863 4141 1398 3698 
Q 934 3256 934 2222 
z
" transform="scale(0.015625)"/>
      <path id="ArialMT-46" d="M 525 0 
L 525 4581 
L 3616 4581 
L 3616 4041 
L 1131 4041 
L 1131 2622 
L 3281 2622 
L 3281 2081 
L 1131 2081 
L 1131 0 
L 525 0 
z
" transform="scale(0.015625)"/>
     </defs>
     <use xlink:href="#ArialMT-4d"/>
     <use xlink:href="#ArialMT-6f" x="83.300781"/>
     <use xlink:href="#ArialMT-64" x="138.916016"/>
     <use xlink:href="#ArialMT-61" x="194.53125"/>
     <use xlink:href="#ArialMT-6c" x="250.146484"/>
     <use xlink:href="#ArialMT-69" x="272.363281"/>
     <use xlink:href="#ArialMT-74" x="294.580078"/>
     <use xlink:href="#ArialMT-79" x="322.363281"/>
     <use xlink:href="#ArialMT-20" x="372.363281"/>
     <use xlink:href="#ArialMT-3d" x="400.146484"/>
     <use xlink:href="#ArialMT-20" x="458.544922"/>
     <use xlink:href="#ArialMT-4f" x="486.328125"/>
     <use xlink:href="#ArialMT-52" x="564.111328"/>
     <use xlink:href="#ArialMT-46" x="636.328125"/>
    </g>
   </g>
  </g>
  <g id="axes_3">
   <g id="patch_8">
    <path d="M 732.951175 296.84775 
L 1055.32422 296.84775 
L 1055.32422 23.69175 
L 732.951175 23.69175 
z
" style="fill: #ffffff"/>
   </g>
   <g id="matplotlib.axis_5">
    <g id="xtick_9">
     <g id="line2d_23">
      <g>
       <use xlink:href="#mc9eacd75fb" x="773.247806" y="296.84775" style="fill: #262626; stroke: #262626"/>
      </g>
     </g>
     <g id="text_21">
      <!-- 24 -->
      <g style="fill: #262626" transform="translate(765.907368 314.596063) scale(0.132 -0.132)">
       <use xlink:href="#ArialMT-32"/>
       <use xlink:href="#ArialMT-34" x="55.615234"/>
      </g>
     </g>
    </g>
    <g id="xtick_10">
     <g id="line2d_24">
      <g>
       <use xlink:href="#mc9eacd75fb" x="853.841067" y="296.84775" style="fill: #262626; stroke: #262626"/>
      </g>
     </g>
     <g id="text_22">
      <!-- 48 -->
      <g style="fill: #262626" transform="translate(846.500629 314.596063) scale(0.132 -0.132)">
       <use xlink:href="#ArialMT-34"/>
       <use xlink:href="#ArialMT-38" x="55.615234"/>
      </g>
     </g>
    </g>
    <g id="xtick_11">
     <g id="line2d_25">
      <g>
       <use xlink:href="#mc9eacd75fb" x="934.434328" y="296.84775" style="fill: #262626; stroke: #262626"/>
      </g>
     </g>
     <g id="text_23">
      <!-- 96 -->
      <g style="fill: #262626" transform="translate(927.093891 314.596063) scale(0.132 -0.132)">
       <use xlink:href="#ArialMT-39"/>
       <use xlink:href="#ArialMT-36" x="55.615234"/>
      </g>
     </g>
    </g>
    <g id="xtick_12">
     <g id="line2d_26">
      <g>
       <use xlink:href="#mc9eacd75fb" x="1015.027589" y="296.84775" style="fill: #262626; stroke: #262626"/>
      </g>
     </g>
     <g id="text_24">
      <!-- 144 -->
      <g style="fill: #262626" transform="translate(1004.016933 314.596063) scale(0.132 -0.132)">
       <use xlink:href="#ArialMT-31"/>
       <use xlink:href="#ArialMT-34" x="55.615234"/>
       <use xlink:href="#ArialMT-34" x="111.230469"/>
      </g>
     </g>
    </g>
    <g id="text_25">
     <!-- Treatment timepoint -->
     <g style="fill: #262626" transform="translate(830.386198 331.526813) scale(0.144 -0.144)">
      <use xlink:href="#ArialMT-54"/>
      <use xlink:href="#ArialMT-72" x="57.333984"/>
      <use xlink:href="#ArialMT-65" x="90.634766"/>
      <use xlink:href="#ArialMT-61" x="146.25"/>
      <use xlink:href="#ArialMT-74" x="201.865234"/>
      <use xlink:href="#ArialMT-6d" x="229.648438"/>
      <use xlink:href="#ArialMT-65" x="312.949219"/>
      <use xlink:href="#ArialMT-6e" x="368.564453"/>
      <use xlink:href="#ArialMT-74" x="424.179688"/>
      <use xlink:href="#ArialMT-20" x="451.962891"/>
      <use xlink:href="#ArialMT-74" x="479.746094"/>
      <use xlink:href="#ArialMT-69" x="507.529297"/>
      <use xlink:href="#ArialMT-6d" x="529.746094"/>
      <use xlink:href="#ArialMT-65" x="613.046875"/>
      <use xlink:href="#ArialMT-70" x="668.662109"/>
      <use xlink:href="#ArialMT-6f" x="724.277344"/>
      <use xlink:href="#ArialMT-69" x="779.892578"/>
      <use xlink:href="#ArialMT-6e" x="802.109375"/>
      <use xlink:href="#ArialMT-74" x="857.724609"/>
     </g>
    </g>
   </g>
   <g id="matplotlib.axis_6">
    <g id="ytick_15">
     <g id="line2d_27">
      <g>
       <use xlink:href="#m5a43333be0" x="732.951175" y="286.706312" style="fill: #262626; stroke: #262626"/>
      </g>
     </g>
    </g>
    <g id="ytick_16">
     <g id="line2d_28">
      <g>
       <use xlink:href="#m5a43333be0" x="732.951175" y="248.07226" style="fill: #262626; stroke: #262626"/>
      </g>
     </g>
    </g>
    <g id="ytick_17">
     <g id="line2d_29">
      <g>
       <use xlink:href="#m5a43333be0" x="732.951175" y="209.438209" style="fill: #262626; stroke: #262626"/>
      </g>
     </g>
    </g>
    <g id="ytick_18">
     <g id="line2d_30">
      <g>
       <use xlink:href="#m5a43333be0" x="732.951175" y="170.804157" style="fill: #262626; stroke: #262626"/>
      </g>
     </g>
    </g>
    <g id="ytick_19">
     <g id="line2d_31">
      <g>
       <use xlink:href="#m5a43333be0" x="732.951175" y="132.170106" style="fill: #262626; stroke: #262626"/>
      </g>
     </g>
    </g>
    <g id="ytick_20">
     <g id="line2d_32">
      <g>
       <use xlink:href="#m5a43333be0" x="732.951175" y="93.536055" style="fill: #262626; stroke: #262626"/>
      </g>
     </g>
    </g>
    <g id="ytick_21">
     <g id="line2d_33">
      <g>
       <use xlink:href="#m5a43333be0" x="732.951175" y="54.902003" style="fill: #262626; stroke: #262626"/>
      </g>
     </g>
    </g>
   </g>
   <g id="PathCollection_17"/>
   <g id="PathCollection_18"/>
   <g id="patch_9">
    <path d="M 732.951175 296.84775 
L 732.951175 23.69175 
" style="fill: none; stroke: #262626; stroke-linejoin: miter; stroke-linecap: square"/>
   </g>
   <g id="patch_10">
    <path d="M 732.951175 296.84775 
L 1055.32422 296.84775 
" style="fill: none; stroke: #262626; stroke-linejoin: miter; stroke-linecap: square"/>
   </g>
   <g id="PathCollection_19">
    <path d="M 0 346.060948 
C 1.186024 346.060948 2.323632 345.589736 3.162278 344.75109 
C 4.000923 343.912444 4.472136 342.774837 4.472136 341.588813 
C 4.472136 340.402788 4.000923 339.265181 3.162278 338.426535 
C 2.323632 337.587889 1.186024 337.116677 0 337.116677 
C -1.186024 337.116677 -2.323632 337.587889 -3.162278 338.426535 
C -4.000923 339.265181 -4.472136 340.402788 -4.472136 341.588813 
C -4.472136 342.774837 -4.000923 343.912444 -3.162278 344.75109 
C -2.323632 345.589736 -1.186024 346.060948 0 346.060948 
" clip-path="url(#p50edcb5758)" style="fill: none; stroke: #ffffff; stroke-opacity: 0.8"/>
   </g>
   <g id="PathCollection_20">
    <path d="M 0 346.060948 
C 1.186024 346.060948 2.323632 345.589736 3.162278 344.75109 
C 4.000923 343.912444 4.472136 342.774837 4.472136 341.588813 
C 4.472136 340.402788 4.000923 339.265181 3.162278 338.426535 
C 2.323632 337.587889 1.186024 337.116677 0 337.116677 
C -1.186024 337.116677 -2.323632 337.587889 -3.162278 338.426535 
C -4.000923 339.265181 -4.472136 340.402788 -4.472136 341.588813 
C -4.472136 342.774837 -4.000923 343.912444 -3.162278 344.75109 
C -2.323632 345.589736 -1.186024 346.060948 0 346.060948 
" clip-path="url(#p50edcb5758)" style="fill: none; stroke: #ffffff; stroke-opacity: 0.8"/>
   </g>
   <g id="PathCollection_21">
    <path d="M 0 346.060948 
C 1.186024 346.060948 2.323632 345.589736 3.162278 344.75109 
C 4.000923 343.912444 4.472136 342.774837 4.472136 341.588813 
C 4.472136 340.402788 4.000923 339.265181 3.162278 338.426535 
C 2.323632 337.587889 1.186024 337.116677 0 337.116677 
C -1.186024 337.116677 -2.323632 337.587889 -3.162278 338.426535 
C -4.000923 339.265181 -4.472136 340.402788 -4.472136 341.588813 
C -4.472136 342.774837 -4.000923 343.912444 -3.162278 344.75109 
C -2.323632 345.589736 -1.186024 346.060948 0 346.060948 
" clip-path="url(#p50edcb5758)" style="fill: none; stroke: #ffffff; stroke-opacity: 0.8"/>
   </g>
   <g id="PathCollection_22">
    <path d="M 0 346.060948 
C 1.186024 346.060948 2.323632 345.589736 3.162278 344.75109 
C 4.000923 343.912444 4.472136 342.774837 4.472136 341.588813 
C 4.472136 340.402788 4.000923 339.265181 3.162278 338.426535 
C 2.323632 337.587889 1.186024 337.116677 0 337.116677 
C -1.186024 337.116677 -2.323632 337.587889 -3.162278 338.426535 
C -4.000923 339.265181 -4.472136 340.402788 -4.472136 341.588813 
C -4.472136 342.774837 -4.000923 343.912444 -3.162278 344.75109 
C -2.323632 345.589736 -1.186024 346.060948 0 346.060948 
" clip-path="url(#p50edcb5758)" style="fill: none; stroke: #ffffff; stroke-opacity: 0.8"/>
   </g>
   <g id="PathCollection_23">
    <g clip-path="url(#p50edcb5758)">
     <use xlink:href="#mdf40dd0fe2" x="918.315676" y="237.938738" style="fill: #e41a1c; fill-opacity: 0.8; stroke: #4c4c4c; stroke-opacity: 0.8"/>
    </g>
   </g>
   <g id="PathCollection_24">
    <g clip-path="url(#p50edcb5758)">
     <use xlink:href="#mf3bdcd6dab" x="950.55298" y="136.603522" style="fill: #377eb8; fill-opacity: 0.8; stroke: #484848; stroke-opacity: 0.8"/>
    </g>
   </g>
   <g id="PathCollection_25">
    <g clip-path="url(#p50edcb5758)">
     <use xlink:href="#mdf40dd0fe2" x="998.908937" y="224.005146" style="fill: #e41a1c; fill-opacity: 0.8; stroke: #4c4c4c; stroke-opacity: 0.8"/>
    </g>
   </g>
   <g id="PathCollection_26">
    <g clip-path="url(#p50edcb5758)">
     <use xlink:href="#mf3bdcd6dab" x="1031.146242" y="203.738103" style="fill: #377eb8; fill-opacity: 0.8; stroke: #484848; stroke-opacity: 0.8"/>
    </g>
   </g>
   <g id="text_26">
    <!-- Modality = CRISPR -->
    <g style="fill: #262626" transform="translate(831.918448 17.69175) scale(0.144 -0.144)">
     <defs>
      <path id="ArialMT-49" d="M 597 0 
L 597 4581 
L 1203 4581 
L 1203 0 
L 597 0 
z
" transform="scale(0.015625)"/>
      <path id="ArialMT-53" d="M 288 1472 
L 859 1522 
Q 900 1178 1048 958 
Q 1197 738 1509 602 
Q 1822 466 2213 466 
Q 2559 466 2825 569 
Q 3091 672 3220 851 
Q 3350 1031 3350 1244 
Q 3350 1459 3225 1620 
Q 3100 1781 2813 1891 
Q 2628 1963 1997 2114 
Q 1366 2266 1113 2400 
Q 784 2572 623 2826 
Q 463 3081 463 3397 
Q 463 3744 659 4045 
Q 856 4347 1234 4503 
Q 1613 4659 2075 4659 
Q 2584 4659 2973 4495 
Q 3363 4331 3572 4012 
Q 3781 3694 3797 3291 
L 3216 3247 
Q 3169 3681 2898 3903 
Q 2628 4125 2100 4125 
Q 1550 4125 1298 3923 
Q 1047 3722 1047 3438 
Q 1047 3191 1225 3031 
Q 1400 2872 2139 2705 
Q 2878 2538 3153 2413 
Q 3553 2228 3743 1945 
Q 3934 1663 3934 1294 
Q 3934 928 3725 604 
Q 3516 281 3123 101 
Q 2731 -78 2241 -78 
Q 1619 -78 1198 103 
Q 778 284 539 648 
Q 300 1013 288 1472 
z
" transform="scale(0.015625)"/>
     </defs>
     <use xlink:href="#ArialMT-4d"/>
     <use xlink:href="#ArialMT-6f" x="83.300781"/>
     <use xlink:href="#ArialMT-64" x="138.916016"/>
     <use xlink:href="#ArialMT-61" x="194.53125"/>
     <use xlink:href="#ArialMT-6c" x="250.146484"/>
     <use xlink:href="#ArialMT-69" x="272.363281"/>
     <use xlink:href="#ArialMT-74" x="294.580078"/>
     <use xlink:href="#ArialMT-79" x="322.363281"/>
     <use xlink:href="#ArialMT-20" x="372.363281"/>
     <use xlink:href="#ArialMT-3d" x="400.146484"/>
     <use xlink:href="#ArialMT-20" x="458.544922"/>
     <use xlink:href="#ArialMT-43" x="486.328125"/>
     <use xlink:href="#ArialMT-52" x="558.544922"/>
     <use xlink:href="#ArialMT-49" x="630.761719"/>
     <use xlink:href="#ArialMT-53" x="658.544922"/>
     <use xlink:href="#ArialMT-50" x="725.244141"/>
     <use xlink:href="#ArialMT-52" x="791.943359"/>
    </g>
   </g>
  </g>
  <g id="legend_1">
   <g id="text_27">
    <!-- Cell Type -->
    <g style="fill: #262626" transform="translate(1073.041845 155.848594) scale(0.144 -0.144)">
     <use xlink:href="#ArialMT-43"/>
     <use xlink:href="#ArialMT-65" x="72.216797"/>
     <use xlink:href="#ArialMT-6c" x="127.832031"/>
     <use xlink:href="#ArialMT-6c" x="150.048828"/>
     <use xlink:href="#ArialMT-20" x="172.265625"/>
     <use xlink:href="#ArialMT-54" x="198.298828"/>
     <use xlink:href="#ArialMT-79" x="253.882812"/>
     <use xlink:href="#ArialMT-70" x="303.882812"/>
     <use xlink:href="#ArialMT-65" x="359.498047"/>
    </g>
   </g>
   <g id="PathCollection_27">
    <defs>
     <path id="m27f2402920" d="M 0 3.6 
C 0.954731 3.6 1.870488 3.220681 2.545584 2.545584 
C 3.220681 1.870488 3.6 0.954731 3.6 0 
C 3.6 -0.954731 3.220681 -1.870488 2.545584 -2.545584 
C 1.870488 -3.220681 0.954731 -3.6 0 -3.6 
C -0.954731 -3.6 -1.870488 -3.220681 -2.545584 -2.545584 
C -3.220681 -1.870488 -3.6 -0.954731 -3.6 0 
C -3.6 0.954731 -3.220681 1.870488 -2.545584 2.545584 
C -1.870488 3.220681 -0.954731 3.6 0 3.6 
z
" style="stroke: #e41a1c; stroke-width: 0.8"/>
    </defs>
    <g>
     <use xlink:href="#m27f2402920" x="1079.67597" y="171.462656" style="fill: #e41a1c; stroke: #e41a1c; stroke-width: 0.8"/>
    </g>
   </g>
   <g id="text_28">
    <!-- A549 -->
    <g style="fill: #262626" transform="translate(1103.43597 174.927656) scale(0.132 -0.132)">
     <defs>
      <path id="ArialMT-41" d="M -9 0 
L 1750 4581 
L 2403 4581 
L 4278 0 
L 3588 0 
L 3053 1388 
L 1138 1388 
L 634 0 
L -9 0 
z
M 1313 1881 
L 2866 1881 
L 2388 3150 
Q 2169 3728 2063 4100 
Q 1975 3659 1816 3225 
L 1313 1881 
z
" transform="scale(0.015625)"/>
     </defs>
     <use xlink:href="#ArialMT-41"/>
     <use xlink:href="#ArialMT-35" x="66.699219"/>
     <use xlink:href="#ArialMT-34" x="122.314453"/>
     <use xlink:href="#ArialMT-39" x="177.929688"/>
    </g>
   </g>
   <g id="PathCollection_28">
    <defs>
     <path id="m359b261b79" d="M 0 3.6 
C 0.954731 3.6 1.870488 3.220681 2.545584 2.545584 
C 3.220681 1.870488 3.6 0.954731 3.6 0 
C 3.6 -0.954731 3.220681 -1.870488 2.545584 -2.545584 
C 1.870488 -3.220681 0.954731 -3.6 0 -3.6 
C -0.954731 -3.6 -1.870488 -3.220681 -2.545584 -2.545584 
C -3.220681 -1.870488 -3.6 -0.954731 -3.6 0 
C -3.6 0.954731 -3.220681 1.870488 -2.545584 2.545584 
C -1.870488 3.220681 -0.954731 3.6 0 3.6 
z
" style="stroke: #377eb8; stroke-width: 0.8"/>
    </defs>
    <g>
     <use xlink:href="#m359b261b79" x="1079.67597" y="190.134469" style="fill: #377eb8; stroke: #377eb8; stroke-width: 0.8"/>
    </g>
   </g>
   <g id="text_29">
    <!-- U2OS -->
    <g style="fill: #262626" transform="translate(1103.43597 193.599469) scale(0.132 -0.132)">
     <defs>
      <path id="ArialMT-55" d="M 3500 4581 
L 4106 4581 
L 4106 1934 
Q 4106 1244 3950 837 
Q 3794 431 3386 176 
Q 2978 -78 2316 -78 
Q 1672 -78 1262 144 
Q 853 366 678 786 
Q 503 1206 503 1934 
L 503 4581 
L 1109 4581 
L 1109 1938 
Q 1109 1341 1220 1058 
Q 1331 775 1601 622 
Q 1872 469 2263 469 
Q 2931 469 3215 772 
Q 3500 1075 3500 1938 
L 3500 4581 
z
" transform="scale(0.015625)"/>
     </defs>
     <use xlink:href="#ArialMT-55"/>
     <use xlink:href="#ArialMT-32" x="72.216797"/>
     <use xlink:href="#ArialMT-4f" x="127.832031"/>
     <use xlink:href="#ArialMT-53" x="205.615234"/>
    </g>
   </g>
  </g>
 </g>
 <defs>
  <clipPath id="p222a8968f4">
   <rect x="47.518875" y="23.69175" width="322.373045" height="273.156"/>
  </clipPath>
  <clipPath id="p5c38ca6a78">
   <rect x="390.235025" y="23.69175" width="322.373045" height="273.156"/>
  </clipPath>
  <clipPath id="p50edcb5758">
   <rect x="732.951175" y="23.69175" width="322.373045" height="273.156"/>
  </clipPath>
 </defs>
</svg>
