<?xml version="1.0" encoding="utf-8" standalone="no"?>
<!DOCTYPE svg PUBLIC "-//W3C//DTD SVG 1.1//EN"
  "http://www.w3.org/Graphics/SVG/1.1/DTD/svg11.dtd">
<!-- Created with matplotlib (https://matplotlib.org/) -->
<svg height="341.757563pt" version="1.1" viewBox="0 0 834.363964 341.757563" width="834.363964pt" xmlns="http://www.w3.org/2000/svg" xmlns:xlink="http://www.w3.org/1999/xlink">
 <defs>
  <style type="text/css">
*{stroke-linecap:butt;stroke-linejoin:round;}
  </style>
 </defs>
 <g id="figure_1">
  <g id="patch_1">
   <path d="M 0 341.757563 
L 834.363964 341.757563 
L 834.363964 0 
L 0 0 
z
" style="fill:#ffffff;"/>
  </g>
  <g id="axes_1">
   <g id="patch_2">
    <path d="M 47.518875 296.84775 
L 357.036495 296.84775 
L 357.036495 23.69175 
L 47.518875 23.69175 
z
" style="fill:#ffffff;"/>
   </g>
   <g id="matplotlib.axis_1">
    <g id="xtick_1">
     <g id="line2d_1">
      <defs>
       <path d="M 0 0 
L 0 4.8 
" id="maebb8eba9f" style="stroke:#262626;"/>
      </defs>
      <g>
       <use style="fill:#262626;stroke:#262626;" x="47.518875" xlink:href="#maebb8eba9f" y="296.84775"/>
      </g>
     </g>
     <g id="text_1">
      <!-- 50 -->
      <defs>
       <path d="M 4.15625 18.75 
L 13.375 19.53125 
Q 14.40625 12.796875 18.140625 9.390625 
Q 21.875 6 27.15625 6 
Q 33.5 6 37.890625 10.78125 
Q 42.28125 15.578125 42.28125 23.484375 
Q 42.28125 31 38.0625 35.34375 
Q 33.84375 39.703125 27 39.703125 
Q 22.75 39.703125 19.328125 37.765625 
Q 15.921875 35.84375 13.96875 32.765625 
L 5.71875 33.84375 
L 12.640625 70.609375 
L 48.25 70.609375 
L 48.25 62.203125 
L 19.671875 62.203125 
L 15.828125 42.96875 
Q 22.265625 47.46875 29.34375 47.46875 
Q 38.71875 47.46875 45.15625 40.96875 
Q 51.609375 34.46875 51.609375 24.265625 
Q 51.609375 14.546875 45.953125 7.46875 
Q 39.0625 -1.21875 27.15625 -1.21875 
Q 17.390625 -1.21875 11.203125 4.25 
Q 5.03125 9.71875 4.15625 18.75 
z
" id="ArialMT-53"/>
       <path d="M 4.15625 35.296875 
Q 4.15625 48 6.765625 55.734375 
Q 9.375 63.484375 14.515625 67.671875 
Q 19.671875 71.875 27.484375 71.875 
Q 33.25 71.875 37.59375 69.546875 
Q 41.9375 67.234375 44.765625 62.859375 
Q 47.609375 58.5 49.21875 52.21875 
Q 50.828125 45.953125 50.828125 35.296875 
Q 50.828125 22.703125 48.234375 14.96875 
Q 45.65625 7.234375 40.5 3 
Q 35.359375 -1.21875 27.484375 -1.21875 
Q 17.140625 -1.21875 11.234375 6.203125 
Q 4.15625 15.140625 4.15625 35.296875 
z
M 13.1875 35.296875 
Q 13.1875 17.671875 17.3125 11.828125 
Q 21.4375 6 27.484375 6 
Q 33.546875 6 37.671875 11.859375 
Q 41.796875 17.71875 41.796875 35.296875 
Q 41.796875 52.984375 37.671875 58.78125 
Q 33.546875 64.59375 27.390625 64.59375 
Q 21.34375 64.59375 17.71875 59.46875 
Q 13.1875 52.9375 13.1875 35.296875 
z
" id="ArialMT-48"/>
      </defs>
      <g style="fill:#262626;" transform="translate(40.178437 314.596063)scale(0.132 -0.132)">
       <use xlink:href="#ArialMT-53"/>
       <use x="55.615234" xlink:href="#ArialMT-48"/>
      </g>
     </g>
    </g>
    <g id="xtick_2">
     <g id="line2d_2">
      <g>
       <use style="fill:#262626;stroke:#262626;" x="99.105145" xlink:href="#maebb8eba9f" y="296.84775"/>
      </g>
     </g>
     <g id="text_2">
      <!-- 55 -->
      <g style="fill:#262626;" transform="translate(91.764708 314.596063)scale(0.132 -0.132)">
       <use xlink:href="#ArialMT-53"/>
       <use x="55.615234" xlink:href="#ArialMT-53"/>
      </g>
     </g>
    </g>
    <g id="xtick_3">
     <g id="line2d_3">
      <g>
       <use style="fill:#262626;stroke:#262626;" x="150.691415" xlink:href="#maebb8eba9f" y="296.84775"/>
      </g>
     </g>
     <g id="text_3">
      <!-- 60 -->
      <defs>
       <path d="M 49.75 54.046875 
L 41.015625 53.375 
Q 39.84375 58.546875 37.703125 60.890625 
Q 34.125 64.65625 28.90625 64.65625 
Q 24.703125 64.65625 21.53125 62.3125 
Q 17.390625 59.28125 14.984375 53.46875 
Q 12.59375 47.65625 12.5 36.921875 
Q 15.671875 41.75 20.265625 44.09375 
Q 24.859375 46.4375 29.890625 46.4375 
Q 38.671875 46.4375 44.84375 39.96875 
Q 51.03125 33.5 51.03125 23.25 
Q 51.03125 16.5 48.125 10.71875 
Q 45.21875 4.9375 40.140625 1.859375 
Q 35.0625 -1.21875 28.609375 -1.21875 
Q 17.625 -1.21875 10.6875 6.859375 
Q 3.765625 14.9375 3.765625 33.5 
Q 3.765625 54.25 11.421875 63.671875 
Q 18.109375 71.875 29.4375 71.875 
Q 37.890625 71.875 43.28125 67.140625 
Q 48.6875 62.40625 49.75 54.046875 
z
M 13.875 23.1875 
Q 13.875 18.65625 15.796875 14.5 
Q 17.71875 10.359375 21.1875 8.171875 
Q 24.65625 6 28.46875 6 
Q 34.03125 6 38.03125 10.484375 
Q 42.046875 14.984375 42.046875 22.703125 
Q 42.046875 30.125 38.078125 34.390625 
Q 34.125 38.671875 28.125 38.671875 
Q 22.171875 38.671875 18.015625 34.390625 
Q 13.875 30.125 13.875 23.1875 
z
" id="ArialMT-54"/>
      </defs>
      <g style="fill:#262626;" transform="translate(143.350978 314.596063)scale(0.132 -0.132)">
       <use xlink:href="#ArialMT-54"/>
       <use x="55.615234" xlink:href="#ArialMT-48"/>
      </g>
     </g>
    </g>
    <g id="xtick_4">
     <g id="line2d_4">
      <g>
       <use style="fill:#262626;stroke:#262626;" x="202.277685" xlink:href="#maebb8eba9f" y="296.84775"/>
      </g>
     </g>
     <g id="text_4">
      <!-- 65 -->
      <g style="fill:#262626;" transform="translate(194.937248 314.596063)scale(0.132 -0.132)">
       <use xlink:href="#ArialMT-54"/>
       <use x="55.615234" xlink:href="#ArialMT-53"/>
      </g>
     </g>
    </g>
    <g id="xtick_5">
     <g id="line2d_5">
      <g>
       <use style="fill:#262626;stroke:#262626;" x="253.863955" xlink:href="#maebb8eba9f" y="296.84775"/>
      </g>
     </g>
     <g id="text_5">
      <!-- 70 -->
      <defs>
       <path d="M 4.734375 62.203125 
L 4.734375 70.65625 
L 51.078125 70.65625 
L 51.078125 63.8125 
Q 44.234375 56.546875 37.515625 44.484375 
Q 30.8125 32.421875 27.15625 19.671875 
Q 24.515625 10.6875 23.78125 0 
L 14.75 0 
Q 14.890625 8.453125 18.0625 20.40625 
Q 21.234375 32.375 27.171875 43.484375 
Q 33.109375 54.59375 39.796875 62.203125 
z
" id="ArialMT-55"/>
      </defs>
      <g style="fill:#262626;" transform="translate(246.523518 314.596063)scale(0.132 -0.132)">
       <use xlink:href="#ArialMT-55"/>
       <use x="55.615234" xlink:href="#ArialMT-48"/>
      </g>
     </g>
    </g>
    <g id="xtick_6">
     <g id="line2d_6">
      <g>
       <use style="fill:#262626;stroke:#262626;" x="305.450225" xlink:href="#maebb8eba9f" y="296.84775"/>
      </g>
     </g>
     <g id="text_6">
      <!-- 75 -->
      <g style="fill:#262626;" transform="translate(298.109788 314.596063)scale(0.132 -0.132)">
       <use xlink:href="#ArialMT-55"/>
       <use x="55.615234" xlink:href="#ArialMT-53"/>
      </g>
     </g>
    </g>
    <g id="xtick_7">
     <g id="line2d_7">
      <g>
       <use style="fill:#262626;stroke:#262626;" x="357.036495" xlink:href="#maebb8eba9f" y="296.84775"/>
      </g>
     </g>
     <g id="text_7">
      <!-- 80 -->
      <defs>
       <path d="M 17.671875 38.8125 
Q 12.203125 40.828125 9.5625 44.53125 
Q 6.9375 48.25 6.9375 53.421875 
Q 6.9375 61.234375 12.546875 66.546875 
Q 18.171875 71.875 27.484375 71.875 
Q 36.859375 71.875 42.578125 66.421875 
Q 48.296875 60.984375 48.296875 53.171875 
Q 48.296875 48.1875 45.671875 44.5 
Q 43.0625 40.828125 37.75 38.8125 
Q 44.34375 36.671875 47.78125 31.875 
Q 51.21875 27.09375 51.21875 20.453125 
Q 51.21875 11.28125 44.71875 5.03125 
Q 38.234375 -1.21875 27.640625 -1.21875 
Q 17.046875 -1.21875 10.546875 5.046875 
Q 4.046875 11.328125 4.046875 20.703125 
Q 4.046875 27.6875 7.59375 32.390625 
Q 11.140625 37.109375 17.671875 38.8125 
z
M 15.921875 53.71875 
Q 15.921875 48.640625 19.1875 45.40625 
Q 22.46875 42.1875 27.6875 42.1875 
Q 32.765625 42.1875 36.015625 45.375 
Q 39.265625 48.578125 39.265625 53.21875 
Q 39.265625 58.0625 35.90625 61.359375 
Q 32.5625 64.65625 27.59375 64.65625 
Q 22.5625 64.65625 19.234375 61.421875 
Q 15.921875 58.203125 15.921875 53.71875 
z
M 13.09375 20.65625 
Q 13.09375 16.890625 14.875 13.375 
Q 16.65625 9.859375 20.171875 7.921875 
Q 23.6875 6 27.734375 6 
Q 34.03125 6 38.125 10.046875 
Q 42.234375 14.109375 42.234375 20.359375 
Q 42.234375 26.703125 38.015625 30.859375 
Q 33.796875 35.015625 27.4375 35.015625 
Q 21.234375 35.015625 17.15625 30.90625 
Q 13.09375 26.8125 13.09375 20.65625 
z
" id="ArialMT-56"/>
      </defs>
      <g style="fill:#262626;" transform="translate(349.696058 314.596063)scale(0.132 -0.132)">
       <use xlink:href="#ArialMT-56"/>
       <use x="55.615234" xlink:href="#ArialMT-48"/>
      </g>
     </g>
    </g>
    <g id="text_8">
     <!-- Percent Replicating -->
     <defs>
      <path d="M 7.71875 0 
L 7.71875 71.578125 
L 34.71875 71.578125 
Q 41.84375 71.578125 45.609375 70.90625 
Q 50.875 70.015625 54.4375 67.546875 
Q 58.015625 65.09375 60.1875 60.640625 
Q 62.359375 56.203125 62.359375 50.875 
Q 62.359375 41.75 56.546875 35.421875 
Q 50.734375 29.109375 35.546875 29.109375 
L 17.1875 29.109375 
L 17.1875 0 
z
M 17.1875 37.546875 
L 35.6875 37.546875 
Q 44.875 37.546875 48.734375 40.96875 
Q 52.59375 44.390625 52.59375 50.59375 
Q 52.59375 55.078125 50.3125 58.265625 
Q 48.046875 61.46875 44.34375 62.5 
Q 41.9375 63.140625 35.5 63.140625 
L 17.1875 63.140625 
z
" id="ArialMT-80"/>
      <path d="M 42.09375 16.703125 
L 51.171875 15.578125 
Q 49.03125 7.625 43.21875 3.21875 
Q 37.40625 -1.171875 28.375 -1.171875 
Q 17 -1.171875 10.328125 5.828125 
Q 3.65625 12.84375 3.65625 25.484375 
Q 3.65625 38.578125 10.390625 45.796875 
Q 17.140625 53.03125 27.875 53.03125 
Q 38.28125 53.03125 44.875 45.953125 
Q 51.46875 38.875 51.46875 26.03125 
Q 51.46875 25.25 51.421875 23.6875 
L 12.75 23.6875 
Q 13.234375 15.140625 17.578125 10.59375 
Q 21.921875 6.0625 28.421875 6.0625 
Q 33.25 6.0625 36.671875 8.59375 
Q 40.09375 11.140625 42.09375 16.703125 
z
M 13.234375 30.90625 
L 42.1875 30.90625 
Q 41.609375 37.453125 38.875 40.71875 
Q 34.671875 45.796875 27.984375 45.796875 
Q 21.921875 45.796875 17.796875 41.75 
Q 13.671875 37.703125 13.234375 30.90625 
z
" id="ArialMT-101"/>
      <path d="M 6.5 0 
L 6.5 51.859375 
L 14.40625 51.859375 
L 14.40625 44 
Q 17.4375 49.515625 20 51.265625 
Q 22.5625 53.03125 25.640625 53.03125 
Q 30.078125 53.03125 34.671875 50.203125 
L 31.640625 42.046875 
Q 28.421875 43.953125 25.203125 43.953125 
Q 22.3125 43.953125 20.015625 42.21875 
Q 17.71875 40.484375 16.75 37.40625 
Q 15.28125 32.71875 15.28125 27.15625 
L 15.28125 0 
z
" id="ArialMT-114"/>
      <path d="M 40.4375 19 
L 49.078125 17.875 
Q 47.65625 8.9375 41.8125 3.875 
Q 35.984375 -1.171875 27.484375 -1.171875 
Q 16.84375 -1.171875 10.375 5.78125 
Q 3.90625 12.75 3.90625 25.734375 
Q 3.90625 34.125 6.6875 40.421875 
Q 9.46875 46.734375 15.15625 49.875 
Q 20.84375 53.03125 27.546875 53.03125 
Q 35.984375 53.03125 41.359375 48.75 
Q 46.734375 44.484375 48.25 36.625 
L 39.703125 35.296875 
Q 38.484375 40.53125 35.375 43.15625 
Q 32.28125 45.796875 27.875 45.796875 
Q 21.234375 45.796875 17.078125 41.03125 
Q 12.9375 36.28125 12.9375 25.984375 
Q 12.9375 15.53125 16.9375 10.796875 
Q 20.953125 6.0625 27.390625 6.0625 
Q 32.5625 6.0625 36.03125 9.234375 
Q 39.5 12.40625 40.4375 19 
z
" id="ArialMT-99"/>
      <path d="M 6.59375 0 
L 6.59375 51.859375 
L 14.5 51.859375 
L 14.5 44.484375 
Q 20.21875 53.03125 31 53.03125 
Q 35.6875 53.03125 39.625 51.34375 
Q 43.5625 49.65625 45.515625 46.921875 
Q 47.46875 44.1875 48.25 40.4375 
Q 48.734375 37.984375 48.734375 31.890625 
L 48.734375 0 
L 39.9375 0 
L 39.9375 31.546875 
Q 39.9375 36.921875 38.90625 39.578125 
Q 37.890625 42.234375 35.28125 43.8125 
Q 32.671875 45.40625 29.15625 45.40625 
Q 23.53125 45.40625 19.453125 41.84375 
Q 15.375 38.28125 15.375 28.328125 
L 15.375 0 
z
" id="ArialMT-110"/>
      <path d="M 25.78125 7.859375 
L 27.046875 0.09375 
Q 23.34375 -0.6875 20.40625 -0.6875 
Q 15.625 -0.6875 12.984375 0.828125 
Q 10.359375 2.34375 9.28125 4.8125 
Q 8.203125 7.28125 8.203125 15.1875 
L 8.203125 45.015625 
L 1.765625 45.015625 
L 1.765625 51.859375 
L 8.203125 51.859375 
L 8.203125 64.703125 
L 16.9375 69.96875 
L 16.9375 51.859375 
L 25.78125 51.859375 
L 25.78125 45.015625 
L 16.9375 45.015625 
L 16.9375 14.703125 
Q 16.9375 10.9375 17.40625 9.859375 
Q 17.875 8.796875 18.921875 8.15625 
Q 19.96875 7.515625 21.921875 7.515625 
Q 23.390625 7.515625 25.78125 7.859375 
z
" id="ArialMT-116"/>
      <path id="ArialMT-32"/>
      <path d="M 7.859375 0 
L 7.859375 71.578125 
L 39.59375 71.578125 
Q 49.171875 71.578125 54.140625 69.640625 
Q 59.125 67.71875 62.109375 62.828125 
Q 65.09375 57.953125 65.09375 52.046875 
Q 65.09375 44.4375 60.15625 39.203125 
Q 55.21875 33.984375 44.921875 32.5625 
Q 48.6875 30.765625 50.640625 29 
Q 54.78125 25.203125 58.5 19.484375 
L 70.953125 0 
L 59.03125 0 
L 49.5625 14.890625 
Q 45.40625 21.34375 42.71875 24.75 
Q 40.046875 28.171875 37.921875 29.53125 
Q 35.796875 30.90625 33.59375 31.453125 
Q 31.984375 31.78125 28.328125 31.78125 
L 17.328125 31.78125 
L 17.328125 0 
z
M 17.328125 39.984375 
L 37.703125 39.984375 
Q 44.1875 39.984375 47.84375 41.328125 
Q 51.515625 42.671875 53.421875 45.625 
Q 55.328125 48.578125 55.328125 52.046875 
Q 55.328125 57.125 51.640625 60.390625 
Q 47.953125 63.671875 39.984375 63.671875 
L 17.328125 63.671875 
z
" id="ArialMT-82"/>
      <path d="M 6.59375 -19.875 
L 6.59375 51.859375 
L 14.59375 51.859375 
L 14.59375 45.125 
Q 17.4375 49.078125 21 51.046875 
Q 24.5625 53.03125 29.640625 53.03125 
Q 36.28125 53.03125 41.359375 49.609375 
Q 46.4375 46.1875 49.015625 39.953125 
Q 51.609375 33.734375 51.609375 26.3125 
Q 51.609375 18.359375 48.75 11.984375 
Q 45.90625 5.609375 40.453125 2.21875 
Q 35.015625 -1.171875 29 -1.171875 
Q 24.609375 -1.171875 21.109375 0.6875 
Q 17.625 2.546875 15.375 5.375 
L 15.375 -19.875 
z
M 14.546875 25.640625 
Q 14.546875 15.625 18.59375 10.84375 
Q 22.65625 6.0625 28.421875 6.0625 
Q 34.28125 6.0625 38.453125 11.015625 
Q 42.625 15.96875 42.625 26.375 
Q 42.625 36.28125 38.546875 41.203125 
Q 34.46875 46.140625 28.8125 46.140625 
Q 23.1875 46.140625 18.859375 40.890625 
Q 14.546875 35.640625 14.546875 25.640625 
z
" id="ArialMT-112"/>
      <path d="M 6.390625 0 
L 6.390625 71.578125 
L 15.1875 71.578125 
L 15.1875 0 
z
" id="ArialMT-108"/>
      <path d="M 6.640625 61.46875 
L 6.640625 71.578125 
L 15.4375 71.578125 
L 15.4375 61.46875 
z
M 6.640625 0 
L 6.640625 51.859375 
L 15.4375 51.859375 
L 15.4375 0 
z
" id="ArialMT-105"/>
      <path d="M 40.4375 6.390625 
Q 35.546875 2.25 31.03125 0.53125 
Q 26.515625 -1.171875 21.34375 -1.171875 
Q 12.796875 -1.171875 8.203125 3 
Q 3.609375 7.171875 3.609375 13.671875 
Q 3.609375 17.484375 5.34375 20.625 
Q 7.078125 23.78125 9.890625 25.6875 
Q 12.703125 27.59375 16.21875 28.5625 
Q 18.796875 29.25 24.03125 29.890625 
Q 34.671875 31.15625 39.703125 32.90625 
Q 39.75 34.71875 39.75 35.203125 
Q 39.75 40.578125 37.25 42.78125 
Q 33.890625 45.75 27.25 45.75 
Q 21.046875 45.75 18.09375 43.578125 
Q 15.140625 41.40625 13.71875 35.890625 
L 5.125 37.0625 
Q 6.296875 42.578125 8.984375 45.96875 
Q 11.671875 49.359375 16.75 51.1875 
Q 21.828125 53.03125 28.515625 53.03125 
Q 35.15625 53.03125 39.296875 51.46875 
Q 43.453125 49.90625 45.40625 47.53125 
Q 47.359375 45.171875 48.140625 41.546875 
Q 48.578125 39.3125 48.578125 33.453125 
L 48.578125 21.734375 
Q 48.578125 9.46875 49.140625 6.21875 
Q 49.703125 2.984375 51.375 0 
L 42.1875 0 
Q 40.828125 2.734375 40.4375 6.390625 
z
M 39.703125 26.03125 
Q 34.90625 24.078125 25.34375 22.703125 
Q 19.921875 21.921875 17.671875 20.9375 
Q 15.4375 19.96875 14.203125 18.09375 
Q 12.984375 16.21875 12.984375 13.921875 
Q 12.984375 10.40625 15.640625 8.0625 
Q 18.3125 5.71875 23.4375 5.71875 
Q 28.515625 5.71875 32.46875 7.9375 
Q 36.421875 10.15625 38.28125 14.015625 
Q 39.703125 17 39.703125 22.796875 
z
" id="ArialMT-97"/>
      <path d="M 4.984375 -4.296875 
L 13.53125 -5.5625 
Q 14.0625 -9.515625 16.5 -11.328125 
Q 19.78125 -13.765625 25.4375 -13.765625 
Q 31.546875 -13.765625 34.859375 -11.328125 
Q 38.1875 -8.890625 39.359375 -4.5 
Q 40.046875 -1.8125 39.984375 6.78125 
Q 34.234375 0 25.640625 0 
Q 14.9375 0 9.078125 7.71875 
Q 3.21875 15.4375 3.21875 26.21875 
Q 3.21875 33.640625 5.90625 39.90625 
Q 8.59375 46.1875 13.6875 49.609375 
Q 18.796875 53.03125 25.6875 53.03125 
Q 34.859375 53.03125 40.828125 45.609375 
L 40.828125 51.859375 
L 48.921875 51.859375 
L 48.921875 7.03125 
Q 48.921875 -5.078125 46.453125 -10.125 
Q 44 -15.1875 38.640625 -18.109375 
Q 33.296875 -21.046875 25.484375 -21.046875 
Q 16.21875 -21.046875 10.5 -16.875 
Q 4.78125 -12.703125 4.984375 -4.296875 
z
M 12.25 26.859375 
Q 12.25 16.65625 16.296875 11.96875 
Q 20.359375 7.28125 26.46875 7.28125 
Q 32.515625 7.28125 36.609375 11.9375 
Q 40.71875 16.609375 40.71875 26.5625 
Q 40.71875 36.078125 36.5 40.90625 
Q 32.28125 45.75 26.3125 45.75 
Q 20.453125 45.75 16.34375 40.984375 
Q 12.25 36.234375 12.25 26.859375 
z
" id="ArialMT-103"/>
     </defs>
     <g style="fill:#262626;" transform="translate(139.846935 331.526813)scale(0.144 -0.144)">
      <use xlink:href="#ArialMT-80"/>
      <use x="66.699219" xlink:href="#ArialMT-101"/>
      <use x="122.314453" xlink:href="#ArialMT-114"/>
      <use x="155.615234" xlink:href="#ArialMT-99"/>
      <use x="205.615234" xlink:href="#ArialMT-101"/>
      <use x="261.230469" xlink:href="#ArialMT-110"/>
      <use x="316.845703" xlink:href="#ArialMT-116"/>
      <use x="344.628906" xlink:href="#ArialMT-32"/>
      <use x="372.412109" xlink:href="#ArialMT-82"/>
      <use x="444.628906" xlink:href="#ArialMT-101"/>
      <use x="500.244141" xlink:href="#ArialMT-112"/>
      <use x="555.859375" xlink:href="#ArialMT-108"/>
      <use x="578.076172" xlink:href="#ArialMT-105"/>
      <use x="600.292969" xlink:href="#ArialMT-99"/>
      <use x="650.292969" xlink:href="#ArialMT-97"/>
      <use x="705.908203" xlink:href="#ArialMT-116"/>
      <use x="733.691406" xlink:href="#ArialMT-105"/>
      <use x="755.908203" xlink:href="#ArialMT-110"/>
      <use x="811.523438" xlink:href="#ArialMT-103"/>
     </g>
    </g>
   </g>
   <g id="matplotlib.axis_2">
    <g id="ytick_1">
     <g id="line2d_8">
      <defs>
       <path d="M 0 0 
L -4.8 0 
" id="m807ac9419d" style="stroke:#262626;"/>
      </defs>
      <g>
       <use style="fill:#262626;stroke:#262626;" x="47.518875" xlink:href="#m807ac9419d" y="296.84775"/>
      </g>
     </g>
     <g id="text_9">
      <!-- 5 -->
      <g style="fill:#262626;" transform="translate(31.878437 301.571906)scale(0.132 -0.132)">
       <use xlink:href="#ArialMT-53"/>
      </g>
     </g>
    </g>
    <g id="ytick_2">
     <g id="line2d_9">
      <g>
       <use style="fill:#262626;stroke:#262626;" x="47.518875" xlink:href="#m807ac9419d" y="257.825464"/>
      </g>
     </g>
     <g id="text_10">
      <!-- 10 -->
      <defs>
       <path d="M 37.25 0 
L 28.46875 0 
L 28.46875 56 
Q 25.296875 52.984375 20.140625 49.953125 
Q 14.984375 46.921875 10.890625 45.40625 
L 10.890625 53.90625 
Q 18.265625 57.375 23.78125 62.296875 
Q 29.296875 67.234375 31.59375 71.875 
L 37.25 71.875 
z
" id="ArialMT-49"/>
      </defs>
      <g style="fill:#262626;" transform="translate(24.538 262.549621)scale(0.132 -0.132)">
       <use xlink:href="#ArialMT-49"/>
       <use x="55.615234" xlink:href="#ArialMT-48"/>
      </g>
     </g>
    </g>
    <g id="ytick_3">
     <g id="line2d_10">
      <g>
       <use style="fill:#262626;stroke:#262626;" x="47.518875" xlink:href="#m807ac9419d" y="218.803179"/>
      </g>
     </g>
     <g id="text_11">
      <!-- 15 -->
      <g style="fill:#262626;" transform="translate(24.538 223.527335)scale(0.132 -0.132)">
       <use xlink:href="#ArialMT-49"/>
       <use x="55.615234" xlink:href="#ArialMT-53"/>
      </g>
     </g>
    </g>
    <g id="ytick_4">
     <g id="line2d_11">
      <g>
       <use style="fill:#262626;stroke:#262626;" x="47.518875" xlink:href="#m807ac9419d" y="179.780893"/>
      </g>
     </g>
     <g id="text_12">
      <!-- 20 -->
      <defs>
       <path d="M 50.34375 8.453125 
L 50.34375 0 
L 3.03125 0 
Q 2.9375 3.171875 4.046875 6.109375 
Q 5.859375 10.9375 9.828125 15.625 
Q 13.8125 20.3125 21.34375 26.46875 
Q 33.015625 36.03125 37.109375 41.625 
Q 41.21875 47.21875 41.21875 52.203125 
Q 41.21875 57.421875 37.46875 61 
Q 33.734375 64.59375 27.734375 64.59375 
Q 21.390625 64.59375 17.578125 60.78125 
Q 13.765625 56.984375 13.71875 50.25 
L 4.6875 51.171875 
Q 5.609375 61.28125 11.65625 66.578125 
Q 17.71875 71.875 27.9375 71.875 
Q 38.234375 71.875 44.234375 66.15625 
Q 50.25 60.453125 50.25 52 
Q 50.25 47.703125 48.484375 43.546875 
Q 46.734375 39.40625 42.65625 34.8125 
Q 38.578125 30.21875 29.109375 22.21875 
Q 21.1875 15.578125 18.9375 13.203125 
Q 16.703125 10.84375 15.234375 8.453125 
z
" id="ArialMT-50"/>
      </defs>
      <g style="fill:#262626;" transform="translate(24.538 184.505049)scale(0.132 -0.132)">
       <use xlink:href="#ArialMT-50"/>
       <use x="55.615234" xlink:href="#ArialMT-48"/>
      </g>
     </g>
    </g>
    <g id="ytick_5">
     <g id="line2d_12">
      <g>
       <use style="fill:#262626;stroke:#262626;" x="47.518875" xlink:href="#m807ac9419d" y="140.758607"/>
      </g>
     </g>
     <g id="text_13">
      <!-- 25 -->
      <g style="fill:#262626;" transform="translate(24.538 145.482763)scale(0.132 -0.132)">
       <use xlink:href="#ArialMT-50"/>
       <use x="55.615234" xlink:href="#ArialMT-53"/>
      </g>
     </g>
    </g>
    <g id="ytick_6">
     <g id="line2d_13">
      <g>
       <use style="fill:#262626;stroke:#262626;" x="47.518875" xlink:href="#m807ac9419d" y="101.736321"/>
      </g>
     </g>
     <g id="text_14">
      <!-- 30 -->
      <defs>
       <path d="M 4.203125 18.890625 
L 12.984375 20.0625 
Q 14.5 12.59375 18.140625 9.296875 
Q 21.78125 6 27 6 
Q 33.203125 6 37.46875 10.296875 
Q 41.75 14.59375 41.75 20.953125 
Q 41.75 27 37.796875 30.921875 
Q 33.84375 34.859375 27.734375 34.859375 
Q 25.25 34.859375 21.53125 33.890625 
L 22.515625 41.609375 
Q 23.390625 41.5 23.921875 41.5 
Q 29.546875 41.5 34.03125 44.421875 
Q 38.53125 47.359375 38.53125 53.46875 
Q 38.53125 58.296875 35.25 61.46875 
Q 31.984375 64.65625 26.8125 64.65625 
Q 21.6875 64.65625 18.265625 61.421875 
Q 14.84375 58.203125 13.875 51.765625 
L 5.078125 53.328125 
Q 6.6875 62.15625 12.390625 67.015625 
Q 18.109375 71.875 26.609375 71.875 
Q 32.46875 71.875 37.390625 69.359375 
Q 42.328125 66.84375 44.9375 62.5 
Q 47.5625 58.15625 47.5625 53.265625 
Q 47.5625 48.640625 45.0625 44.828125 
Q 42.578125 41.015625 37.703125 38.765625 
Q 44.046875 37.3125 47.5625 32.6875 
Q 51.078125 28.078125 51.078125 21.140625 
Q 51.078125 11.765625 44.234375 5.25 
Q 37.40625 -1.265625 26.953125 -1.265625 
Q 17.53125 -1.265625 11.296875 4.34375 
Q 5.078125 9.96875 4.203125 18.890625 
z
" id="ArialMT-51"/>
      </defs>
      <g style="fill:#262626;" transform="translate(24.538 106.460478)scale(0.132 -0.132)">
       <use xlink:href="#ArialMT-51"/>
       <use x="55.615234" xlink:href="#ArialMT-48"/>
      </g>
     </g>
    </g>
    <g id="ytick_7">
     <g id="line2d_14">
      <g>
       <use style="fill:#262626;stroke:#262626;" x="47.518875" xlink:href="#m807ac9419d" y="62.714036"/>
      </g>
     </g>
     <g id="text_15">
      <!-- 35 -->
      <g style="fill:#262626;" transform="translate(24.538 67.438192)scale(0.132 -0.132)">
       <use xlink:href="#ArialMT-51"/>
       <use x="55.615234" xlink:href="#ArialMT-53"/>
      </g>
     </g>
    </g>
    <g id="ytick_8">
     <g id="line2d_15">
      <g>
       <use style="fill:#262626;stroke:#262626;" x="47.518875" xlink:href="#m807ac9419d" y="23.69175"/>
      </g>
     </g>
     <g id="text_16">
      <!-- 40 -->
      <defs>
       <path d="M 32.328125 0 
L 32.328125 17.140625 
L 1.265625 17.140625 
L 1.265625 25.203125 
L 33.9375 71.578125 
L 41.109375 71.578125 
L 41.109375 25.203125 
L 50.78125 25.203125 
L 50.78125 17.140625 
L 41.109375 17.140625 
L 41.109375 0 
z
M 32.328125 25.203125 
L 32.328125 57.46875 
L 9.90625 25.203125 
z
" id="ArialMT-52"/>
      </defs>
      <g style="fill:#262626;" transform="translate(24.538 28.415906)scale(0.132 -0.132)">
       <use xlink:href="#ArialMT-52"/>
       <use x="55.615234" xlink:href="#ArialMT-48"/>
      </g>
     </g>
    </g>
    <g id="text_17">
     <!-- Percent Matching -->
     <defs>
      <path d="M 7.421875 0 
L 7.421875 71.578125 
L 21.6875 71.578125 
L 38.625 20.90625 
Q 40.96875 13.8125 42.046875 10.296875 
Q 43.265625 14.203125 45.84375 21.78125 
L 62.984375 71.578125 
L 75.734375 71.578125 
L 75.734375 0 
L 66.609375 0 
L 66.609375 59.90625 
L 45.796875 0 
L 37.25 0 
L 16.546875 60.9375 
L 16.546875 0 
z
" id="ArialMT-77"/>
      <path d="M 6.59375 0 
L 6.59375 71.578125 
L 15.375 71.578125 
L 15.375 45.90625 
Q 21.53125 53.03125 30.90625 53.03125 
Q 36.671875 53.03125 40.921875 50.75 
Q 45.171875 48.484375 47 44.484375 
Q 48.828125 40.484375 48.828125 32.859375 
L 48.828125 0 
L 40.046875 0 
L 40.046875 32.859375 
Q 40.046875 39.453125 37.1875 42.453125 
Q 34.328125 45.453125 29.109375 45.453125 
Q 25.203125 45.453125 21.75 43.421875 
Q 18.3125 41.40625 16.84375 37.9375 
Q 15.375 34.46875 15.375 28.375 
L 15.375 0 
z
" id="ArialMT-104"/>
     </defs>
     <g style="fill:#262626;" transform="translate(17.50725 216.29475)rotate(-90)scale(0.144 -0.144)">
      <use xlink:href="#ArialMT-80"/>
      <use x="66.699219" xlink:href="#ArialMT-101"/>
      <use x="122.314453" xlink:href="#ArialMT-114"/>
      <use x="155.615234" xlink:href="#ArialMT-99"/>
      <use x="205.615234" xlink:href="#ArialMT-101"/>
      <use x="261.230469" xlink:href="#ArialMT-110"/>
      <use x="316.845703" xlink:href="#ArialMT-116"/>
      <use x="344.628906" xlink:href="#ArialMT-32"/>
      <use x="372.412109" xlink:href="#ArialMT-77"/>
      <use x="455.712891" xlink:href="#ArialMT-97"/>
      <use x="511.328125" xlink:href="#ArialMT-116"/>
      <use x="539.111328" xlink:href="#ArialMT-99"/>
      <use x="589.111328" xlink:href="#ArialMT-104"/>
      <use x="644.726562" xlink:href="#ArialMT-105"/>
      <use x="666.943359" xlink:href="#ArialMT-110"/>
      <use x="722.558594" xlink:href="#ArialMT-103"/>
     </g>
    </g>
   </g>
   <g id="PathCollection_1">
    <path clip-path="url(#p9621beba95)" d="M 173.618646 195.142969 
C 174.80467 195.142969 175.942278 194.671757 176.780924 193.833111 
C 177.61957 192.994465 178.090782 191.856857 178.090782 190.670833 
C 178.090782 189.484809 177.61957 188.347201 176.780924 187.508555 
C 175.942278 186.66991 174.80467 186.198697 173.618646 186.198697 
C 172.432622 186.198697 171.295014 186.66991 170.456368 187.508555 
C 169.617723 188.347201 169.14651 189.484809 169.14651 190.670833 
C 169.14651 191.856857 169.617723 192.994465 170.456368 193.833111 
C 171.295014 194.671757 172.432622 195.142969 173.618646 195.142969 
z
" style="fill:#e41a1c;fill-opacity:0.8;stroke:#000000;stroke-opacity:0.8;stroke-width:0.715542;"/>
    <path clip-path="url(#p9621beba95)" d="M 230.936724 213.292869 
C 232.122748 213.292869 233.260356 212.821657 234.099002 211.983011 
C 234.937647 211.144365 235.40886 210.006758 235.40886 208.820733 
C 235.40886 207.634709 234.937647 206.497102 234.099002 205.658456 
C 233.260356 204.81981 232.122748 204.348597 230.936724 204.348597 
C 229.7507 204.348597 228.613092 204.81981 227.774446 205.658456 
C 226.9358 206.497102 226.464588 207.634709 226.464588 208.820733 
C 226.464588 210.006758 226.9358 211.144365 227.774446 211.983011 
C 228.613092 212.821657 229.7507 213.292869 230.936724 213.292869 
z
" style="fill:#e41a1c;fill-opacity:0.8;stroke:#000000;stroke-opacity:0.8;stroke-width:0.715542;"/>
    <path clip-path="url(#p9621beba95)" d="M 150.691415 195.142969 
C 151.877439 195.142969 153.015047 194.671757 153.853693 193.833111 
C 154.692339 192.994465 155.163551 191.856857 155.163551 190.670833 
C 155.163551 189.484809 154.692339 188.347201 153.853693 187.508555 
C 153.015047 186.66991 151.877439 186.198697 150.691415 186.198697 
C 149.505391 186.198697 148.367783 186.66991 147.529137 187.508555 
C 146.690492 188.347201 146.219279 189.484809 146.219279 190.670833 
C 146.219279 191.856857 146.690492 192.994465 147.529137 193.833111 
C 148.367783 194.671757 149.505391 195.142969 150.691415 195.142969 
z
" style="fill:#e41a1c;fill-opacity:0.8;stroke:#000000;stroke-opacity:0.8;stroke-width:0.715542;"/>
    <path clip-path="url(#p9621beba95)" d="M 136.991731 213.292869 
L 139.227799 211.056801 
L 141.463867 213.292869 
L 143.699935 211.056801 
L 141.463867 208.820733 
L 143.699935 206.584665 
L 141.463867 204.348597 
L 139.227799 206.584665 
L 136.991731 204.348597 
L 134.755664 206.584665 
L 136.991731 208.820733 
L 134.755664 211.056801 
z
" style="fill:#e41a1c;fill-opacity:0.8;stroke:#000000;stroke-opacity:0.8;stroke-width:0.715542;"/>
    <path clip-path="url(#p9621beba95)" d="M 150.691415 176.993069 
C 151.877439 176.993069 153.015047 176.521856 153.853693 175.68321 
C 154.692339 174.844565 155.163551 173.706957 155.163551 172.520933 
C 155.163551 171.334908 154.692339 170.197301 153.853693 169.358655 
C 153.015047 168.520009 151.877439 168.048797 150.691415 168.048797 
C 149.505391 168.048797 148.367783 168.520009 147.529137 169.358655 
C 146.690492 170.197301 146.219279 171.334908 146.219279 172.520933 
C 146.219279 173.706957 146.690492 174.844565 147.529137 175.68321 
C 148.367783 176.521856 149.505391 176.993069 150.691415 176.993069 
z
" style="fill:#377eb8;fill-opacity:0.8;stroke:#000000;stroke-opacity:0.8;stroke-width:0.715542;"/>
    <path clip-path="url(#p9621beba95)" d="M 194.309809 195.142969 
L 196.545877 192.906901 
L 198.781945 195.142969 
L 201.018013 192.906901 
L 198.781945 190.670833 
L 201.018013 188.434765 
L 198.781945 186.198697 
L 196.545877 188.434765 
L 194.309809 186.198697 
L 192.073741 188.434765 
L 194.309809 190.670833 
L 192.073741 192.906901 
z
" style="fill:#377eb8;fill-opacity:0.8;stroke:#000000;stroke-opacity:0.8;stroke-width:0.715542;"/>
    <path clip-path="url(#p9621beba95)" d="M 196.545877 176.993069 
C 197.731902 176.993069 198.869509 176.521856 199.708155 175.68321 
C 200.546801 174.844565 201.018013 173.706957 201.018013 172.520933 
C 201.018013 171.334908 200.546801 170.197301 199.708155 169.358655 
C 198.869509 168.520009 197.731902 168.048797 196.545877 168.048797 
C 195.359853 168.048797 194.222245 168.520009 193.3836 169.358655 
C 192.544954 170.197301 192.073741 171.334908 192.073741 172.520933 
C 192.073741 173.706957 192.544954 174.844565 193.3836 175.68321 
C 194.222245 176.521856 195.359853 176.993069 196.545877 176.993069 
z
" style="fill:#4daf4a;fill-opacity:0.8;stroke:#000000;stroke-opacity:0.8;stroke-width:0.715542;"/>
    <path clip-path="url(#p9621beba95)" d="M 125.528116 231.44277 
L 127.764184 229.206702 
L 130.000252 231.44277 
L 132.23632 229.206702 
L 130.000252 226.970634 
L 132.23632 224.734566 
L 130.000252 222.498498 
L 127.764184 224.734566 
L 125.528116 222.498498 
L 123.292048 224.734566 
L 125.528116 226.970634 
L 123.292048 229.206702 
z
" style="fill:#4daf4a;fill-opacity:0.8;stroke:#000000;stroke-opacity:0.8;stroke-width:0.715542;"/>
    <path clip-path="url(#p9621beba95)" d="M 242.400339 213.292869 
C 243.586364 213.292869 244.723971 212.821657 245.562617 211.983011 
C 246.401263 211.144365 246.872475 210.006758 246.872475 208.820733 
C 246.872475 207.634709 246.401263 206.497102 245.562617 205.658456 
C 244.723971 204.81981 243.586364 204.348597 242.400339 204.348597 
C 241.214315 204.348597 240.076708 204.81981 239.238062 205.658456 
C 238.399416 206.497102 237.928204 207.634709 237.928204 208.820733 
C 237.928204 210.006758 238.399416 211.144365 239.238062 211.983011 
C 240.076708 212.821657 241.214315 213.292869 242.400339 213.292869 
z
" style="fill:#984ea3;fill-opacity:0.8;stroke:#000000;stroke-opacity:0.8;stroke-width:0.715542;"/>
    <path clip-path="url(#p9621beba95)" d="M 240.164271 213.292869 
L 242.400339 211.056801 
L 244.636407 213.292869 
L 246.872475 211.056801 
L 244.636407 208.820733 
L 246.872475 206.584665 
L 244.636407 204.348597 
L 242.400339 206.584665 
L 240.164271 204.348597 
L 237.928204 206.584665 
L 240.164271 208.820733 
L 237.928204 211.056801 
z
" style="fill:#984ea3;fill-opacity:0.8;stroke:#000000;stroke-opacity:0.8;stroke-width:0.715542;"/>
    <path clip-path="url(#p9621beba95)" d="M 104.836953 231.44277 
C 106.022977 231.44277 107.160585 230.971557 107.99923 230.132911 
C 108.837876 229.294266 109.309089 228.156658 109.309089 226.970634 
C 109.309089 225.784609 108.837876 224.647002 107.99923 223.808356 
C 107.160585 222.96971 106.022977 222.498498 104.836953 222.498498 
C 103.650928 222.498498 102.513321 222.96971 101.674675 223.808356 
C 100.836029 224.647002 100.364817 225.784609 100.364817 226.970634 
C 100.364817 228.156658 100.836029 229.294266 101.674675 230.132911 
C 102.513321 230.971557 103.650928 231.44277 104.836953 231.44277 
z
" style="fill:#ff7f00;fill-opacity:0.8;stroke:#000000;stroke-opacity:0.8;stroke-width:0.715542;"/>
    <path clip-path="url(#p9621beba95)" d="M 171.382578 195.142969 
L 173.618646 192.906901 
L 175.854714 195.142969 
L 178.090782 192.906901 
L 175.854714 190.670833 
L 178.090782 188.434765 
L 175.854714 186.198697 
L 173.618646 188.434765 
L 171.382578 186.198697 
L 169.14651 188.434765 
L 171.382578 190.670833 
L 169.14651 192.906901 
z
" style="fill:#ff7f00;fill-opacity:0.8;stroke:#000000;stroke-opacity:0.8;stroke-width:0.715542;"/>
   </g>
   <g id="PathCollection_2"/>
   <g id="PathCollection_3"/>
   <g id="PathCollection_4"/>
   <g id="PathCollection_5"/>
   <g id="PathCollection_6"/>
   <g id="PathCollection_7"/>
   <g id="PathCollection_8"/>
   <g id="patch_3">
    <path d="M 47.518875 296.84775 
L 47.518875 23.69175 
" style="fill:none;stroke:#262626;stroke-linecap:square;stroke-linejoin:miter;"/>
   </g>
   <g id="patch_4">
    <path d="M 47.518875 296.84775 
L 357.036495 296.84775 
" style="fill:none;stroke:#262626;stroke-linecap:square;stroke-linejoin:miter;"/>
   </g>
   <g id="text_18">
    <!-- Cell Type = A549 -->
    <defs>
     <path d="M 58.796875 25.09375 
L 68.265625 22.703125 
Q 65.28125 11.03125 57.546875 4.90625 
Q 49.8125 -1.21875 38.625 -1.21875 
Q 27.046875 -1.21875 19.796875 3.484375 
Q 12.546875 8.203125 8.765625 17.140625 
Q 4.984375 26.078125 4.984375 36.328125 
Q 4.984375 47.515625 9.25 55.828125 
Q 13.53125 64.15625 21.40625 68.46875 
Q 29.296875 72.796875 38.765625 72.796875 
Q 49.515625 72.796875 56.828125 67.328125 
Q 64.15625 61.859375 67.046875 51.953125 
L 57.71875 49.75 
Q 55.21875 57.5625 50.484375 61.125 
Q 45.75 64.703125 38.578125 64.703125 
Q 30.328125 64.703125 24.78125 60.734375 
Q 19.234375 56.78125 16.984375 50.109375 
Q 14.75 43.453125 14.75 36.375 
Q 14.75 27.25 17.40625 20.4375 
Q 20.0625 13.625 25.671875 10.25 
Q 31.296875 6.890625 37.84375 6.890625 
Q 45.796875 6.890625 51.3125 11.46875 
Q 56.84375 16.0625 58.796875 25.09375 
z
" id="ArialMT-67"/>
     <path d="M 25.921875 0 
L 25.921875 63.140625 
L 2.34375 63.140625 
L 2.34375 71.578125 
L 59.078125 71.578125 
L 59.078125 63.140625 
L 35.40625 63.140625 
L 35.40625 0 
z
" id="ArialMT-84"/>
     <path d="M 6.203125 -19.96875 
L 5.21875 -11.71875 
Q 8.109375 -12.5 10.25 -12.5 
Q 13.1875 -12.5 14.9375 -11.515625 
Q 16.703125 -10.546875 17.828125 -8.796875 
Q 18.65625 -7.46875 20.515625 -2.25 
Q 20.75 -1.515625 21.296875 -0.09375 
L 1.609375 51.859375 
L 11.078125 51.859375 
L 21.875 21.828125 
Q 23.96875 16.109375 25.640625 9.8125 
Q 27.15625 15.875 29.25 21.625 
L 40.328125 51.859375 
L 49.125 51.859375 
L 29.390625 -0.875 
Q 26.21875 -9.421875 24.46875 -12.640625 
Q 22.125 -17 19.09375 -19.015625 
Q 16.0625 -21.046875 11.859375 -21.046875 
Q 9.328125 -21.046875 6.203125 -19.96875 
z
" id="ArialMT-121"/>
     <path d="M 52.828125 42.09375 
L 5.5625 42.09375 
L 5.5625 50.296875 
L 52.828125 50.296875 
z
M 52.828125 20.359375 
L 5.5625 20.359375 
L 5.5625 28.5625 
L 52.828125 28.5625 
z
" id="ArialMT-61"/>
     <path d="M -0.140625 0 
L 27.34375 71.578125 
L 37.546875 71.578125 
L 66.84375 0 
L 56.0625 0 
L 47.703125 21.6875 
L 17.78125 21.6875 
L 9.90625 0 
z
M 20.515625 29.390625 
L 44.78125 29.390625 
L 37.3125 49.21875 
Q 33.890625 58.25 32.234375 64.0625 
Q 30.859375 57.171875 28.375 50.390625 
z
" id="ArialMT-65"/>
     <path d="M 5.46875 16.546875 
L 13.921875 17.328125 
Q 14.984375 11.375 18.015625 8.6875 
Q 21.046875 6 25.78125 6 
Q 29.828125 6 32.875 7.859375 
Q 35.9375 9.71875 37.890625 12.8125 
Q 39.84375 15.921875 41.15625 21.1875 
Q 42.484375 26.46875 42.484375 31.9375 
Q 42.484375 32.515625 42.4375 33.6875 
Q 39.796875 29.5 35.234375 26.875 
Q 30.671875 24.265625 25.34375 24.265625 
Q 16.453125 24.265625 10.296875 30.703125 
Q 4.15625 37.15625 4.15625 47.703125 
Q 4.15625 58.59375 10.578125 65.234375 
Q 17 71.875 26.65625 71.875 
Q 33.640625 71.875 39.421875 68.109375 
Q 45.21875 64.359375 48.21875 57.390625 
Q 51.21875 50.4375 51.21875 37.25 
Q 51.21875 23.53125 48.234375 15.40625 
Q 45.265625 7.28125 39.375 3.03125 
Q 33.5 -1.21875 25.59375 -1.21875 
Q 17.1875 -1.21875 11.859375 3.4375 
Q 6.546875 8.109375 5.46875 16.546875 
z
M 41.453125 48.140625 
Q 41.453125 55.71875 37.421875 60.15625 
Q 33.40625 64.59375 27.734375 64.59375 
Q 21.875 64.59375 17.53125 59.8125 
Q 13.1875 55.03125 13.1875 47.40625 
Q 13.1875 40.578125 17.3125 36.296875 
Q 21.4375 32.03125 27.484375 32.03125 
Q 33.59375 32.03125 37.515625 36.296875 
Q 41.453125 40.578125 41.453125 48.140625 
z
" id="ArialMT-57"/>
    </defs>
    <g style="fill:#262626;" transform="translate(146.86131 17.69175)scale(0.144 -0.144)">
     <use xlink:href="#ArialMT-67"/>
     <use x="72.216797" xlink:href="#ArialMT-101"/>
     <use x="127.832031" xlink:href="#ArialMT-108"/>
     <use x="150.048828" xlink:href="#ArialMT-108"/>
     <use x="172.265625" xlink:href="#ArialMT-32"/>
     <use x="200.033203" xlink:href="#ArialMT-84"/>
     <use x="261.039062" xlink:href="#ArialMT-121"/>
     <use x="311.039062" xlink:href="#ArialMT-112"/>
     <use x="366.654297" xlink:href="#ArialMT-101"/>
     <use x="422.269531" xlink:href="#ArialMT-32"/>
     <use x="450.052734" xlink:href="#ArialMT-61"/>
     <use x="508.451172" xlink:href="#ArialMT-32"/>
     <use x="536.15625" xlink:href="#ArialMT-65"/>
     <use x="602.855469" xlink:href="#ArialMT-53"/>
     <use x="658.470703" xlink:href="#ArialMT-52"/>
     <use x="714.085938" xlink:href="#ArialMT-57"/>
    </g>
   </g>
  </g>
  <g id="axes_2">
   <g id="patch_5">
    <path d="M 382.787044 296.84775 
L 692.304665 296.84775 
L 692.304665 23.69175 
L 382.787044 23.69175 
z
" style="fill:#ffffff;"/>
   </g>
   <g id="matplotlib.axis_3">
    <g id="xtick_8">
     <g id="line2d_16">
      <g>
       <use style="fill:#262626;stroke:#262626;" x="382.787044" xlink:href="#maebb8eba9f" y="296.84775"/>
      </g>
     </g>
     <g id="text_19">
      <!-- 50 -->
      <g style="fill:#262626;" transform="translate(375.446607 314.596063)scale(0.132 -0.132)">
       <use xlink:href="#ArialMT-53"/>
       <use x="55.615234" xlink:href="#ArialMT-48"/>
      </g>
     </g>
    </g>
    <g id="xtick_9">
     <g id="line2d_17">
      <g>
       <use style="fill:#262626;stroke:#262626;" x="434.373314" xlink:href="#maebb8eba9f" y="296.84775"/>
      </g>
     </g>
     <g id="text_20">
      <!-- 55 -->
      <g style="fill:#262626;" transform="translate(427.032877 314.596063)scale(0.132 -0.132)">
       <use xlink:href="#ArialMT-53"/>
       <use x="55.615234" xlink:href="#ArialMT-53"/>
      </g>
     </g>
    </g>
    <g id="xtick_10">
     <g id="line2d_18">
      <g>
       <use style="fill:#262626;stroke:#262626;" x="485.959584" xlink:href="#maebb8eba9f" y="296.84775"/>
      </g>
     </g>
     <g id="text_21">
      <!-- 60 -->
      <g style="fill:#262626;" transform="translate(478.619147 314.596063)scale(0.132 -0.132)">
       <use xlink:href="#ArialMT-54"/>
       <use x="55.615234" xlink:href="#ArialMT-48"/>
      </g>
     </g>
    </g>
    <g id="xtick_11">
     <g id="line2d_19">
      <g>
       <use style="fill:#262626;stroke:#262626;" x="537.545854" xlink:href="#maebb8eba9f" y="296.84775"/>
      </g>
     </g>
     <g id="text_22">
      <!-- 65 -->
      <g style="fill:#262626;" transform="translate(530.205417 314.596063)scale(0.132 -0.132)">
       <use xlink:href="#ArialMT-54"/>
       <use x="55.615234" xlink:href="#ArialMT-53"/>
      </g>
     </g>
    </g>
    <g id="xtick_12">
     <g id="line2d_20">
      <g>
       <use style="fill:#262626;stroke:#262626;" x="589.132124" xlink:href="#maebb8eba9f" y="296.84775"/>
      </g>
     </g>
     <g id="text_23">
      <!-- 70 -->
      <g style="fill:#262626;" transform="translate(581.791687 314.596063)scale(0.132 -0.132)">
       <use xlink:href="#ArialMT-55"/>
       <use x="55.615234" xlink:href="#ArialMT-48"/>
      </g>
     </g>
    </g>
    <g id="xtick_13">
     <g id="line2d_21">
      <g>
       <use style="fill:#262626;stroke:#262626;" x="640.718394" xlink:href="#maebb8eba9f" y="296.84775"/>
      </g>
     </g>
     <g id="text_24">
      <!-- 75 -->
      <g style="fill:#262626;" transform="translate(633.377957 314.596063)scale(0.132 -0.132)">
       <use xlink:href="#ArialMT-55"/>
       <use x="55.615234" xlink:href="#ArialMT-53"/>
      </g>
     </g>
    </g>
    <g id="xtick_14">
     <g id="line2d_22">
      <g>
       <use style="fill:#262626;stroke:#262626;" x="692.304665" xlink:href="#maebb8eba9f" y="296.84775"/>
      </g>
     </g>
     <g id="text_25">
      <!-- 80 -->
      <g style="fill:#262626;" transform="translate(684.964227 314.596063)scale(0.132 -0.132)">
       <use xlink:href="#ArialMT-56"/>
       <use x="55.615234" xlink:href="#ArialMT-48"/>
      </g>
     </g>
    </g>
    <g id="text_26">
     <!-- Percent Replicating -->
     <g style="fill:#262626;" transform="translate(475.115104 331.526813)scale(0.144 -0.144)">
      <use xlink:href="#ArialMT-80"/>
      <use x="66.699219" xlink:href="#ArialMT-101"/>
      <use x="122.314453" xlink:href="#ArialMT-114"/>
      <use x="155.615234" xlink:href="#ArialMT-99"/>
      <use x="205.615234" xlink:href="#ArialMT-101"/>
      <use x="261.230469" xlink:href="#ArialMT-110"/>
      <use x="316.845703" xlink:href="#ArialMT-116"/>
      <use x="344.628906" xlink:href="#ArialMT-32"/>
      <use x="372.412109" xlink:href="#ArialMT-82"/>
      <use x="444.628906" xlink:href="#ArialMT-101"/>
      <use x="500.244141" xlink:href="#ArialMT-112"/>
      <use x="555.859375" xlink:href="#ArialMT-108"/>
      <use x="578.076172" xlink:href="#ArialMT-105"/>
      <use x="600.292969" xlink:href="#ArialMT-99"/>
      <use x="650.292969" xlink:href="#ArialMT-97"/>
      <use x="705.908203" xlink:href="#ArialMT-116"/>
      <use x="733.691406" xlink:href="#ArialMT-105"/>
      <use x="755.908203" xlink:href="#ArialMT-110"/>
      <use x="811.523438" xlink:href="#ArialMT-103"/>
     </g>
    </g>
   </g>
   <g id="matplotlib.axis_4">
    <g id="ytick_9">
     <g id="line2d_23">
      <g>
       <use style="fill:#262626;stroke:#262626;" x="382.787044" xlink:href="#m807ac9419d" y="296.84775"/>
      </g>
     </g>
    </g>
    <g id="ytick_10">
     <g id="line2d_24">
      <g>
       <use style="fill:#262626;stroke:#262626;" x="382.787044" xlink:href="#m807ac9419d" y="257.825464"/>
      </g>
     </g>
    </g>
    <g id="ytick_11">
     <g id="line2d_25">
      <g>
       <use style="fill:#262626;stroke:#262626;" x="382.787044" xlink:href="#m807ac9419d" y="218.803179"/>
      </g>
     </g>
    </g>
    <g id="ytick_12">
     <g id="line2d_26">
      <g>
       <use style="fill:#262626;stroke:#262626;" x="382.787044" xlink:href="#m807ac9419d" y="179.780893"/>
      </g>
     </g>
    </g>
    <g id="ytick_13">
     <g id="line2d_27">
      <g>
       <use style="fill:#262626;stroke:#262626;" x="382.787044" xlink:href="#m807ac9419d" y="140.758607"/>
      </g>
     </g>
    </g>
    <g id="ytick_14">
     <g id="line2d_28">
      <g>
       <use style="fill:#262626;stroke:#262626;" x="382.787044" xlink:href="#m807ac9419d" y="101.736321"/>
      </g>
     </g>
    </g>
    <g id="ytick_15">
     <g id="line2d_29">
      <g>
       <use style="fill:#262626;stroke:#262626;" x="382.787044" xlink:href="#m807ac9419d" y="62.714036"/>
      </g>
     </g>
    </g>
    <g id="ytick_16">
     <g id="line2d_30">
      <g>
       <use style="fill:#262626;stroke:#262626;" x="382.787044" xlink:href="#m807ac9419d" y="23.69175"/>
      </g>
     </g>
    </g>
   </g>
   <g id="PathCollection_9">
    <path clip-path="url(#p2b8dcba9da)" d="M 543.277662 140.693268 
C 544.463687 140.693268 545.601294 140.222056 546.43994 139.38341 
C 547.278586 138.544764 547.749798 137.407156 547.749798 136.221132 
C 547.749798 135.035108 547.278586 133.8975 546.43994 133.058854 
C 545.601294 132.220209 544.463687 131.748996 543.277662 131.748996 
C 542.091638 131.748996 540.95403 132.220209 540.115385 133.058854 
C 539.276739 133.8975 538.805526 135.035108 538.805526 136.221132 
C 538.805526 137.407156 539.276739 138.544764 540.115385 139.38341 
C 540.95403 140.222056 542.091638 140.693268 543.277662 140.693268 
z
" style="fill:#e41a1c;fill-opacity:0.8;stroke:#000000;stroke-opacity:0.8;stroke-width:0.715542;"/>
    <path clip-path="url(#p2b8dcba9da)" d="M 527.692297 154.521764 
C 528.878322 154.521764 530.015929 154.050551 530.854575 153.211905 
C 531.693221 152.373259 532.164433 151.235652 532.164433 150.049628 
C 532.164433 148.863603 531.693221 147.725996 530.854575 146.88735 
C 530.015929 146.048704 528.878322 145.577492 527.692297 145.577492 
C 526.506273 145.577492 525.368665 146.048704 524.53002 146.88735 
C 523.691374 147.725996 523.220161 148.863603 523.220161 150.049628 
C 523.220161 151.235652 523.691374 152.373259 524.53002 153.211905 
C 525.368665 154.050551 526.506273 154.521764 527.692297 154.521764 
z
" style="fill:#e41a1c;fill-opacity:0.8;stroke:#000000;stroke-opacity:0.8;stroke-width:0.715542;"/>
    <path clip-path="url(#p2b8dcba9da)" d="M 543.277662 176.993069 
C 544.463687 176.993069 545.601294 176.521856 546.43994 175.68321 
C 547.278586 174.844565 547.749798 173.706957 547.749798 172.520933 
C 547.749798 171.334908 547.278586 170.197301 546.43994 169.358655 
C 545.601294 168.520009 544.463687 168.048797 543.277662 168.048797 
C 542.091638 168.048797 540.95403 168.520009 540.115385 169.358655 
C 539.276739 170.197301 538.805526 171.334908 538.805526 172.520933 
C 538.805526 173.706957 539.276739 174.844565 540.115385 175.68321 
C 540.95403 176.521856 542.091638 176.993069 543.277662 176.993069 
z
" style="fill:#e41a1c;fill-opacity:0.8;stroke:#000000;stroke-opacity:0.8;stroke-width:0.715542;"/>
    <path clip-path="url(#p2b8dcba9da)" d="M 529.577979 195.142969 
L 531.814047 192.906901 
L 534.050115 195.142969 
L 536.286183 192.906901 
L 534.050115 190.670833 
L 536.286183 188.434765 
L 534.050115 186.198697 
L 531.814047 188.434765 
L 529.577979 186.198697 
L 527.341911 188.434765 
L 529.577979 190.670833 
L 527.341911 192.906901 
z
" style="fill:#e41a1c;fill-opacity:0.8;stroke:#000000;stroke-opacity:0.8;stroke-width:0.715542;"/>
    <path clip-path="url(#p2b8dcba9da)" d="M 481.322616 154.521764 
C 482.508641 154.521764 483.646248 154.050551 484.484894 153.211905 
C 485.32354 152.373259 485.794752 151.235652 485.794752 150.049628 
C 485.794752 148.863603 485.32354 147.725996 484.484894 146.88735 
C 483.646248 146.048704 482.508641 145.577492 481.322616 145.577492 
C 480.136592 145.577492 478.998985 146.048704 478.160339 146.88735 
C 477.321693 147.725996 476.85048 148.863603 476.85048 150.049628 
C 476.85048 151.235652 477.321693 152.373259 478.160339 153.211905 
C 478.998985 154.050551 480.136592 154.521764 481.322616 154.521764 
z
" style="fill:#377eb8;fill-opacity:0.8;stroke:#000000;stroke-opacity:0.8;stroke-width:0.715542;"/>
    <path clip-path="url(#p2b8dcba9da)" d="M 502.271389 210.267886 
L 504.507457 208.031818 
L 506.743525 210.267886 
L 508.979593 208.031818 
L 506.743525 205.79575 
L 508.979593 203.559682 
L 506.743525 201.323614 
L 504.507457 203.559682 
L 502.271389 201.323614 
L 500.035321 203.559682 
L 502.271389 205.79575 
L 500.035321 208.031818 
z
" style="fill:#377eb8;fill-opacity:0.8;stroke:#000000;stroke-opacity:0.8;stroke-width:0.715542;"/>
    <path clip-path="url(#p2b8dcba9da)" d="M 520.350431 195.142969 
C 521.536455 195.142969 522.674063 194.671757 523.512709 193.833111 
C 524.351355 192.994465 524.822567 191.856857 524.822567 190.670833 
C 524.822567 189.484809 524.351355 188.347201 523.512709 187.508555 
C 522.674063 186.66991 521.536455 186.198697 520.350431 186.198697 
C 519.164407 186.198697 518.026799 186.66991 517.188153 187.508555 
C 516.349508 188.347201 515.878295 189.484809 515.878295 190.670833 
C 515.878295 191.856857 516.349508 192.994465 517.188153 193.833111 
C 518.026799 194.671757 519.164407 195.142969 520.350431 195.142969 
z
" style="fill:#4daf4a;fill-opacity:0.8;stroke:#000000;stroke-opacity:0.8;stroke-width:0.715542;"/>
    <path clip-path="url(#p2b8dcba9da)" d="M 495.187132 213.292869 
L 497.4232 211.056801 
L 499.659268 213.292869 
L 501.895336 211.056801 
L 499.659268 208.820733 
L 501.895336 206.584665 
L 499.659268 204.348597 
L 497.4232 206.584665 
L 495.187132 204.348597 
L 492.951064 206.584665 
L 495.187132 208.820733 
L 492.951064 211.056801 
z
" style="fill:#4daf4a;fill-opacity:0.8;stroke:#000000;stroke-opacity:0.8;stroke-width:0.715542;"/>
   </g>
   <g id="patch_6">
    <path d="M 382.787044 296.84775 
L 382.787044 23.69175 
" style="fill:none;stroke:#262626;stroke-linecap:square;stroke-linejoin:miter;"/>
   </g>
   <g id="patch_7">
    <path d="M 382.787044 296.84775 
L 692.304665 296.84775 
" style="fill:none;stroke:#262626;stroke-linecap:square;stroke-linejoin:miter;"/>
   </g>
   <g id="text_27">
    <!-- Cell Type = U2OS -->
    <defs>
     <path d="M 54.6875 71.578125 
L 64.15625 71.578125 
L 64.15625 30.21875 
Q 64.15625 19.4375 61.71875 13.078125 
Q 59.28125 6.734375 52.90625 2.75 
Q 46.53125 -1.21875 36.1875 -1.21875 
Q 26.125 -1.21875 19.71875 2.25 
Q 13.328125 5.71875 10.59375 12.28125 
Q 7.859375 18.84375 7.859375 30.21875 
L 7.859375 71.578125 
L 17.328125 71.578125 
L 17.328125 30.28125 
Q 17.328125 20.953125 19.0625 16.53125 
Q 20.796875 12.109375 25.015625 9.71875 
Q 29.25 7.328125 35.359375 7.328125 
Q 45.796875 7.328125 50.234375 12.0625 
Q 54.6875 16.796875 54.6875 30.28125 
z
" id="ArialMT-85"/>
     <path d="M 4.828125 34.859375 
Q 4.828125 52.6875 14.390625 62.765625 
Q 23.96875 72.859375 39.109375 72.859375 
Q 49.03125 72.859375 56.984375 68.109375 
Q 64.9375 63.375 69.109375 54.90625 
Q 73.296875 46.4375 73.296875 35.6875 
Q 73.296875 24.8125 68.890625 16.21875 
Q 64.5 7.625 56.4375 3.203125 
Q 48.390625 -1.21875 39.0625 -1.21875 
Q 28.953125 -1.21875 20.984375 3.65625 
Q 13.03125 8.546875 8.921875 16.984375 
Q 4.828125 25.4375 4.828125 34.859375 
z
M 14.59375 34.71875 
Q 14.59375 21.78125 21.546875 14.328125 
Q 28.515625 6.890625 39.015625 6.890625 
Q 49.703125 6.890625 56.609375 14.40625 
Q 63.53125 21.921875 63.53125 35.75 
Q 63.53125 44.484375 60.578125 51 
Q 57.625 57.515625 51.921875 61.109375 
Q 46.234375 64.703125 39.15625 64.703125 
Q 29.109375 64.703125 21.84375 57.78125 
Q 14.59375 50.875 14.59375 34.71875 
z
" id="ArialMT-79"/>
     <path d="M 4.5 23 
L 13.421875 23.78125 
Q 14.0625 18.40625 16.375 14.96875 
Q 18.703125 11.53125 23.578125 9.40625 
Q 28.46875 7.28125 34.578125 7.28125 
Q 39.984375 7.28125 44.140625 8.890625 
Q 48.296875 10.5 50.3125 13.296875 
Q 52.34375 16.109375 52.34375 19.4375 
Q 52.34375 22.796875 50.390625 25.3125 
Q 48.4375 27.828125 43.953125 29.546875 
Q 41.0625 30.671875 31.203125 33.03125 
Q 21.34375 35.40625 17.390625 37.5 
Q 12.25 40.1875 9.734375 44.15625 
Q 7.234375 48.140625 7.234375 53.078125 
Q 7.234375 58.5 10.296875 63.203125 
Q 13.375 67.921875 19.28125 70.359375 
Q 25.203125 72.796875 32.421875 72.796875 
Q 40.375 72.796875 46.453125 70.234375 
Q 52.546875 67.671875 55.8125 62.6875 
Q 59.078125 57.71875 59.328125 51.421875 
L 50.25 50.734375 
Q 49.515625 57.515625 45.28125 60.984375 
Q 41.0625 64.453125 32.8125 64.453125 
Q 24.21875 64.453125 20.28125 61.296875 
Q 16.359375 58.15625 16.359375 53.71875 
Q 16.359375 49.859375 19.140625 47.359375 
Q 21.875 44.875 33.421875 42.265625 
Q 44.96875 39.65625 49.265625 37.703125 
Q 55.515625 34.8125 58.484375 30.390625 
Q 61.46875 25.984375 61.46875 20.21875 
Q 61.46875 14.5 58.203125 9.4375 
Q 54.9375 4.390625 48.796875 1.578125 
Q 42.671875 -1.21875 35.015625 -1.21875 
Q 25.296875 -1.21875 18.71875 1.609375 
Q 12.15625 4.4375 8.421875 10.125 
Q 4.6875 15.828125 4.5 23 
z
" id="ArialMT-83"/>
    </defs>
    <g style="fill:#262626;" transform="translate(479.331604 17.69175)scale(0.144 -0.144)">
     <use xlink:href="#ArialMT-67"/>
     <use x="72.216797" xlink:href="#ArialMT-101"/>
     <use x="127.832031" xlink:href="#ArialMT-108"/>
     <use x="150.048828" xlink:href="#ArialMT-108"/>
     <use x="172.265625" xlink:href="#ArialMT-32"/>
     <use x="200.033203" xlink:href="#ArialMT-84"/>
     <use x="261.039062" xlink:href="#ArialMT-121"/>
     <use x="311.039062" xlink:href="#ArialMT-112"/>
     <use x="366.654297" xlink:href="#ArialMT-101"/>
     <use x="422.269531" xlink:href="#ArialMT-32"/>
     <use x="450.052734" xlink:href="#ArialMT-61"/>
     <use x="508.451172" xlink:href="#ArialMT-32"/>
     <use x="536.234375" xlink:href="#ArialMT-85"/>
     <use x="608.451172" xlink:href="#ArialMT-50"/>
     <use x="664.066406" xlink:href="#ArialMT-79"/>
     <use x="741.849609" xlink:href="#ArialMT-83"/>
    </g>
   </g>
  </g>
  <g id="legend_1">
   <g id="text_28">
    <!-- Clone type -->
    <defs>
     <path d="M 3.328125 25.921875 
Q 3.328125 40.328125 11.328125 47.265625 
Q 18.015625 53.03125 27.640625 53.03125 
Q 38.328125 53.03125 45.109375 46.015625 
Q 51.90625 39.015625 51.90625 26.65625 
Q 51.90625 16.65625 48.90625 10.90625 
Q 45.90625 5.171875 40.15625 2 
Q 34.421875 -1.171875 27.640625 -1.171875 
Q 16.75 -1.171875 10.03125 5.8125 
Q 3.328125 12.796875 3.328125 25.921875 
z
M 12.359375 25.921875 
Q 12.359375 15.96875 16.703125 11.015625 
Q 21.046875 6.0625 27.640625 6.0625 
Q 34.1875 6.0625 38.53125 11.03125 
Q 42.875 16.015625 42.875 26.21875 
Q 42.875 35.84375 38.5 40.796875 
Q 34.125 45.75 27.640625 45.75 
Q 21.046875 45.75 16.703125 40.8125 
Q 12.359375 35.890625 12.359375 25.921875 
z
" id="ArialMT-111"/>
    </defs>
    <g style="fill:#262626;" transform="translate(710.435464 95.274656)scale(0.144 -0.144)">
     <use xlink:href="#ArialMT-67"/>
     <use x="72.216797" xlink:href="#ArialMT-108"/>
     <use x="94.433594" xlink:href="#ArialMT-111"/>
     <use x="150.048828" xlink:href="#ArialMT-110"/>
     <use x="205.664062" xlink:href="#ArialMT-101"/>
     <use x="261.279297" xlink:href="#ArialMT-32"/>
     <use x="289.0625" xlink:href="#ArialMT-116"/>
     <use x="316.845703" xlink:href="#ArialMT-121"/>
     <use x="366.845703" xlink:href="#ArialMT-112"/>
     <use x="422.460938" xlink:href="#ArialMT-101"/>
    </g>
   </g>
   <g id="PathCollection_10">
    <defs>
     <path d="M 0 3.6 
C 0.954731 3.6 1.870488 3.220681 2.545584 2.545584 
C 3.220681 1.870488 3.6 0.954731 3.6 0 
C 3.6 -0.954731 3.220681 -1.870488 2.545584 -2.545584 
C 1.870488 -3.220681 0.954731 -3.6 0 -3.6 
C -0.954731 -3.6 -1.870488 -3.220681 -2.545584 -2.545584 
C -3.220681 -1.870488 -3.6 -0.954731 -3.6 0 
C -3.6 0.954731 -3.220681 1.870488 -2.545584 2.545584 
C -1.870488 3.220681 -0.954731 3.6 0 3.6 
z
" id="m37b49e31f5" style="stroke:#e41a1c;stroke-width:0.8;"/>
    </defs>
    <g>
     <use style="fill:#e41a1c;stroke:#e41a1c;stroke-width:0.8;" x="713.075464" xlink:href="#m37b49e31f5" y="111.747656"/>
    </g>
   </g>
   <g id="text_29">
    <!-- Parental -->
    <g style="fill:#262626;" transform="translate(736.835464 115.212656)scale(0.144 -0.144)">
     <use xlink:href="#ArialMT-80"/>
     <use x="66.699219" xlink:href="#ArialMT-97"/>
     <use x="122.314453" xlink:href="#ArialMT-114"/>
     <use x="155.615234" xlink:href="#ArialMT-101"/>
     <use x="211.230469" xlink:href="#ArialMT-110"/>
     <use x="266.845703" xlink:href="#ArialMT-116"/>
     <use x="294.628906" xlink:href="#ArialMT-97"/>
     <use x="350.244141" xlink:href="#ArialMT-108"/>
    </g>
   </g>
   <g id="PathCollection_11">
    <defs>
     <path d="M 0 3.6 
C 0.954731 3.6 1.870488 3.220681 2.545584 2.545584 
C 3.220681 1.870488 3.6 0.954731 3.6 0 
C 3.6 -0.954731 3.220681 -1.870488 2.545584 -2.545584 
C 1.870488 -3.220681 0.954731 -3.6 0 -3.6 
C -0.954731 -3.6 -1.870488 -3.220681 -2.545584 -2.545584 
C -3.220681 -1.870488 -3.6 -0.954731 -3.6 0 
C -3.6 0.954731 -3.220681 1.870488 -2.545584 2.545584 
C -1.870488 3.220681 -0.954731 3.6 0 3.6 
z
" id="m14c9e60e6e" style="stroke:#377eb8;stroke-width:0.8;"/>
    </defs>
    <g>
     <use style="fill:#377eb8;stroke:#377eb8;stroke-width:0.8;" x="713.075464" xlink:href="#m14c9e60e6e" y="131.516906"/>
    </g>
   </g>
   <g id="text_30">
    <!-- Polyclonal -->
    <g style="fill:#262626;" transform="translate(736.835464 134.981906)scale(0.144 -0.144)">
     <use xlink:href="#ArialMT-80"/>
     <use x="66.699219" xlink:href="#ArialMT-111"/>
     <use x="122.314453" xlink:href="#ArialMT-108"/>
     <use x="144.53125" xlink:href="#ArialMT-121"/>
     <use x="194.53125" xlink:href="#ArialMT-99"/>
     <use x="244.53125" xlink:href="#ArialMT-108"/>
     <use x="266.748047" xlink:href="#ArialMT-111"/>
     <use x="322.363281" xlink:href="#ArialMT-110"/>
     <use x="377.978516" xlink:href="#ArialMT-97"/>
     <use x="433.59375" xlink:href="#ArialMT-108"/>
    </g>
   </g>
   <g id="PathCollection_12">
    <defs>
     <path d="M 0 3.6 
C 0.954731 3.6 1.870488 3.220681 2.545584 2.545584 
C 3.220681 1.870488 3.6 0.954731 3.6 0 
C 3.6 -0.954731 3.220681 -1.870488 2.545584 -2.545584 
C 1.870488 -3.220681 0.954731 -3.6 0 -3.6 
C -0.954731 -3.6 -1.870488 -3.220681 -2.545584 -2.545584 
C -3.220681 -1.870488 -3.6 -0.954731 -3.6 0 
C -3.6 0.954731 -3.220681 1.870488 -2.545584 2.545584 
C -1.870488 3.220681 -0.954731 3.6 0 3.6 
z
" id="mddaf4ef3b1" style="stroke:#4daf4a;stroke-width:0.8;"/>
    </defs>
    <g>
     <use style="fill:#4daf4a;stroke:#4daf4a;stroke-width:0.8;" x="713.075464" xlink:href="#mddaf4ef3b1" y="151.454906"/>
    </g>
   </g>
   <g id="text_31">
    <!-- Monoclonal 1 -->
    <g style="fill:#262626;" transform="translate(736.835464 154.919906)scale(0.144 -0.144)">
     <use xlink:href="#ArialMT-77"/>
     <use x="83.300781" xlink:href="#ArialMT-111"/>
     <use x="138.916016" xlink:href="#ArialMT-110"/>
     <use x="194.53125" xlink:href="#ArialMT-111"/>
     <use x="250.146484" xlink:href="#ArialMT-99"/>
     <use x="300.146484" xlink:href="#ArialMT-108"/>
     <use x="322.363281" xlink:href="#ArialMT-111"/>
     <use x="377.978516" xlink:href="#ArialMT-110"/>
     <use x="433.59375" xlink:href="#ArialMT-97"/>
     <use x="489.208984" xlink:href="#ArialMT-108"/>
     <use x="511.425781" xlink:href="#ArialMT-32"/>
     <use x="539.208984" xlink:href="#ArialMT-49"/>
    </g>
   </g>
   <g id="PathCollection_13">
    <defs>
     <path d="M 0 3.6 
C 0.954731 3.6 1.870488 3.220681 2.545584 2.545584 
C 3.220681 1.870488 3.6 0.954731 3.6 0 
C 3.6 -0.954731 3.220681 -1.870488 2.545584 -2.545584 
C 1.870488 -3.220681 0.954731 -3.6 0 -3.6 
C -0.954731 -3.6 -1.870488 -3.220681 -2.545584 -2.545584 
C -3.220681 -1.870488 -3.6 -0.954731 -3.6 0 
C -3.6 0.954731 -3.220681 1.870488 -2.545584 2.545584 
C -1.870488 3.220681 -0.954731 3.6 0 3.6 
z
" id="m097b4952fb" style="stroke:#984ea3;stroke-width:0.8;"/>
    </defs>
    <g>
     <use style="fill:#984ea3;stroke:#984ea3;stroke-width:0.8;" x="713.075464" xlink:href="#m097b4952fb" y="171.224156"/>
    </g>
   </g>
   <g id="text_32">
    <!-- Monoclonal 2 -->
    <g style="fill:#262626;" transform="translate(736.835464 174.689156)scale(0.144 -0.144)">
     <use xlink:href="#ArialMT-77"/>
     <use x="83.300781" xlink:href="#ArialMT-111"/>
     <use x="138.916016" xlink:href="#ArialMT-110"/>
     <use x="194.53125" xlink:href="#ArialMT-111"/>
     <use x="250.146484" xlink:href="#ArialMT-99"/>
     <use x="300.146484" xlink:href="#ArialMT-108"/>
     <use x="322.363281" xlink:href="#ArialMT-111"/>
     <use x="377.978516" xlink:href="#ArialMT-110"/>
     <use x="433.59375" xlink:href="#ArialMT-97"/>
     <use x="489.208984" xlink:href="#ArialMT-108"/>
     <use x="511.425781" xlink:href="#ArialMT-32"/>
     <use x="539.208984" xlink:href="#ArialMT-50"/>
    </g>
   </g>
   <g id="PathCollection_14">
    <defs>
     <path d="M 0 3.6 
C 0.954731 3.6 1.870488 3.220681 2.545584 2.545584 
C 3.220681 1.870488 3.6 0.954731 3.6 0 
C 3.6 -0.954731 3.220681 -1.870488 2.545584 -2.545584 
C 1.870488 -3.220681 0.954731 -3.6 0 -3.6 
C -0.954731 -3.6 -1.870488 -3.220681 -2.545584 -2.545584 
C -3.220681 -1.870488 -3.6 -0.954731 -3.6 0 
C -3.6 0.954731 -3.220681 1.870488 -2.545584 2.545584 
C -1.870488 3.220681 -0.954731 3.6 0 3.6 
z
" id="m47044fea65" style="stroke:#ff7f00;stroke-width:0.8;"/>
    </defs>
    <g>
     <use style="fill:#ff7f00;stroke:#ff7f00;stroke-width:0.8;" x="713.075464" xlink:href="#m47044fea65" y="190.993406"/>
    </g>
   </g>
   <g id="text_33">
    <!-- Monoclonal 3 -->
    <g style="fill:#262626;" transform="translate(736.835464 194.458406)scale(0.144 -0.144)">
     <use xlink:href="#ArialMT-77"/>
     <use x="83.300781" xlink:href="#ArialMT-111"/>
     <use x="138.916016" xlink:href="#ArialMT-110"/>
     <use x="194.53125" xlink:href="#ArialMT-111"/>
     <use x="250.146484" xlink:href="#ArialMT-99"/>
     <use x="300.146484" xlink:href="#ArialMT-108"/>
     <use x="322.363281" xlink:href="#ArialMT-111"/>
     <use x="377.978516" xlink:href="#ArialMT-110"/>
     <use x="433.59375" xlink:href="#ArialMT-97"/>
     <use x="489.208984" xlink:href="#ArialMT-108"/>
     <use x="511.425781" xlink:href="#ArialMT-32"/>
     <use x="539.208984" xlink:href="#ArialMT-51"/>
    </g>
   </g>
   <g id="text_34">
    <!-- Density -->
    <defs>
     <path d="M 7.71875 0 
L 7.71875 71.578125 
L 32.375 71.578125 
Q 40.71875 71.578125 45.125 70.5625 
Q 51.265625 69.140625 55.609375 65.4375 
Q 61.28125 60.640625 64.078125 53.1875 
Q 66.890625 45.75 66.890625 36.1875 
Q 66.890625 28.03125 64.984375 21.734375 
Q 63.09375 15.4375 60.109375 11.296875 
Q 57.125 7.171875 53.578125 4.796875 
Q 50.046875 2.4375 45.046875 1.21875 
Q 40.046875 0 33.546875 0 
z
M 17.1875 8.453125 
L 32.46875 8.453125 
Q 39.546875 8.453125 43.578125 9.765625 
Q 47.609375 11.078125 50 13.484375 
Q 53.375 16.84375 55.25 22.53125 
Q 57.125 28.21875 57.125 36.328125 
Q 57.125 47.5625 53.4375 53.59375 
Q 49.75 59.625 44.484375 61.671875 
Q 40.671875 63.140625 32.234375 63.140625 
L 17.1875 63.140625 
z
" id="ArialMT-68"/>
     <path d="M 3.078125 15.484375 
L 11.765625 16.84375 
Q 12.5 11.625 15.84375 8.84375 
Q 19.1875 6.0625 25.203125 6.0625 
Q 31.25 6.0625 34.171875 8.515625 
Q 37.109375 10.984375 37.109375 14.3125 
Q 37.109375 17.28125 34.515625 19 
Q 32.71875 20.171875 25.53125 21.96875 
Q 15.875 24.421875 12.140625 26.203125 
Q 8.40625 27.984375 6.46875 31.125 
Q 4.546875 34.28125 4.546875 38.09375 
Q 4.546875 41.546875 6.125 44.5 
Q 7.71875 47.46875 10.453125 49.421875 
Q 12.5 50.921875 16.03125 51.96875 
Q 19.578125 53.03125 23.640625 53.03125 
Q 29.734375 53.03125 34.34375 51.265625 
Q 38.96875 49.515625 41.15625 46.5 
Q 43.359375 43.5 44.1875 38.484375 
L 35.59375 37.3125 
Q 35.015625 41.3125 32.203125 43.546875 
Q 29.390625 45.796875 24.265625 45.796875 
Q 18.21875 45.796875 15.625 43.796875 
Q 13.03125 41.796875 13.03125 39.109375 
Q 13.03125 37.40625 14.109375 36.03125 
Q 15.1875 34.625 17.484375 33.6875 
Q 18.796875 33.203125 25.25 31.453125 
Q 34.578125 28.953125 38.25 27.359375 
Q 41.9375 25.78125 44.03125 22.75 
Q 46.140625 19.734375 46.140625 15.234375 
Q 46.140625 10.84375 43.578125 6.953125 
Q 41.015625 3.078125 36.171875 0.953125 
Q 31.34375 -1.171875 25.25 -1.171875 
Q 15.140625 -1.171875 9.84375 3.03125 
Q 4.546875 7.234375 3.078125 15.484375 
z
" id="ArialMT-115"/>
    </defs>
    <g style="fill:#262626;" transform="translate(710.435464 214.227656)scale(0.144 -0.144)">
     <use xlink:href="#ArialMT-68"/>
     <use x="72.216797" xlink:href="#ArialMT-101"/>
     <use x="127.832031" xlink:href="#ArialMT-110"/>
     <use x="183.447266" xlink:href="#ArialMT-115"/>
     <use x="233.447266" xlink:href="#ArialMT-105"/>
     <use x="255.664062" xlink:href="#ArialMT-116"/>
     <use x="283.447266" xlink:href="#ArialMT-121"/>
    </g>
   </g>
   <g id="PathCollection_15">
    <defs>
     <path d="M 0 3.6 
C 0.954731 3.6 1.870488 3.220681 2.545584 2.545584 
C 3.220681 1.870488 3.6 0.954731 3.6 0 
C 3.6 -0.954731 3.220681 -1.870488 2.545584 -2.545584 
C 1.870488 -3.220681 0.954731 -3.6 0 -3.6 
C -0.954731 -3.6 -1.870488 -3.220681 -2.545584 -2.545584 
C -3.220681 -1.870488 -3.6 -0.954731 -3.6 0 
C -3.6 0.954731 -3.220681 1.870488 -2.545584 2.545584 
C -1.870488 3.220681 -0.954731 3.6 0 3.6 
z
" id="mfc439643fb" style="stroke:#333333;stroke-width:0.8;"/>
    </defs>
    <g>
     <use style="fill:#333333;stroke:#333333;stroke-width:0.8;" x="713.075464" xlink:href="#mfc439643fb" y="230.700656"/>
    </g>
   </g>
   <g id="text_35">
    <!-- Lower -->
    <defs>
     <path d="M 7.328125 0 
L 7.328125 71.578125 
L 16.796875 71.578125 
L 16.796875 8.453125 
L 52.046875 8.453125 
L 52.046875 0 
z
" id="ArialMT-76"/>
     <path d="M 16.15625 0 
L 0.296875 51.859375 
L 9.375 51.859375 
L 17.625 21.921875 
L 20.703125 10.796875 
Q 20.90625 11.625 23.390625 21.484375 
L 31.640625 51.859375 
L 40.671875 51.859375 
L 48.4375 21.78125 
L 51.03125 11.859375 
L 54 21.875 
L 62.890625 51.859375 
L 71.4375 51.859375 
L 55.21875 0 
L 46.09375 0 
L 37.84375 31.0625 
L 35.84375 39.890625 
L 25.34375 0 
z
" id="ArialMT-119"/>
    </defs>
    <g style="fill:#262626;" transform="translate(736.835464 234.165656)scale(0.144 -0.144)">
     <use xlink:href="#ArialMT-76"/>
     <use x="55.615234" xlink:href="#ArialMT-111"/>
     <use x="111.230469" xlink:href="#ArialMT-119"/>
     <use x="183.447266" xlink:href="#ArialMT-101"/>
     <use x="239.0625" xlink:href="#ArialMT-114"/>
    </g>
   </g>
   <g id="PathCollection_16">
    <defs>
     <path d="M -1.8 3.6 
L 0 1.8 
L 1.8 3.6 
L 3.6 1.8 
L 1.8 0 
L 3.6 -1.8 
L 1.8 -3.6 
L 0 -1.8 
L -1.8 -3.6 
L -3.6 -1.8 
L -1.8 0 
L -3.6 1.8 
z
" id="m79af2d5eb9" style="stroke:#333333;stroke-width:0.8;"/>
    </defs>
    <g>
     <use style="fill:#333333;stroke:#333333;stroke-width:0.8;" x="713.075464" xlink:href="#m79af2d5eb9" y="250.469906"/>
    </g>
   </g>
   <g id="text_36">
    <!-- Higher -->
    <defs>
     <path d="M 8.015625 0 
L 8.015625 71.578125 
L 17.484375 71.578125 
L 17.484375 42.1875 
L 54.6875 42.1875 
L 54.6875 71.578125 
L 64.15625 71.578125 
L 64.15625 0 
L 54.6875 0 
L 54.6875 33.734375 
L 17.484375 33.734375 
L 17.484375 0 
z
" id="ArialMT-72"/>
    </defs>
    <g style="fill:#262626;" transform="translate(736.835464 253.934906)scale(0.144 -0.144)">
     <use xlink:href="#ArialMT-72"/>
     <use x="72.216797" xlink:href="#ArialMT-105"/>
     <use x="94.433594" xlink:href="#ArialMT-103"/>
     <use x="150.048828" xlink:href="#ArialMT-104"/>
     <use x="205.664062" xlink:href="#ArialMT-101"/>
     <use x="261.279297" xlink:href="#ArialMT-114"/>
    </g>
   </g>
  </g>
 </g>
 <defs>
  <clipPath id="p9621beba95">
   <rect height="273.156" width="309.51762" x="47.518875" y="23.69175"/>
  </clipPath>
  <clipPath id="p2b8dcba9da">
   <rect height="273.156" width="309.51762" x="382.787044" y="23.69175"/>
  </clipPath>
 </defs>
</svg>
